<?xml version="1.0" standalone="no"?>
<!DOCTYPE svg PUBLIC "-//W3C//DTD SVG 1.1//EN" "http://www.w3.org/Graphics/SVG/1.1/DTD/svg11.dtd" >
<svg>
<metadata>
Created by FontForge 20110222 at Tue Mar 24 16:09:33 2015
 By deploy user
(c)2012 Paul Barnes, Christian Schwartz, and Ross Milne, under exclusive license to Schwartzco Inc./Commercial Type. All rights reserved.
</metadata>
<defs>
<font id="PublicoBanner-Bold" horiz-adv-x="480" >
  <font-face 
    font-family="Publico Banner Bold"
    font-weight="700"
    font-stretch="normal"
    units-per-em="1000"
    panose-1="2 4 8 2 6 5 4 6 2 3"
    ascent="803"
    descent="-197"
    x-height="522"
    cap-height="693"
    bbox="-134 -244 1236 1061"
    underline-thickness="71"
    underline-position="-7"
    unicode-range="U+0020-FB04"
  />
<missing-glyph horiz-adv-x="500" 
 />
    <glyph glyph-name="f_f" unicode="ff" horiz-adv-x="651" 
d="M305 749q95 0 128 -47q65 60 184 60q65 0 103 -22.5t38 -62.5q0 -30 -18.5 -46.5t-50.5 -16.5q-36 0 -52 19t-20 67q-1 21 -5 27.5t-14 6.5q-54 0 -54 -116v-96h96l-7 -49h-89v-395q0 -31 5.5 -39t31.5 -15l33 -9v-15h-296v15l18 5q26 6 31 14t5 44v395h-136v-394
q0 -35 5 -43.5t29 -15.5l22 -5v-15h-290v15l21 6q28 7 34 15.5t6 42.5v394h-65v11l65 38v19q0 95 63.5 151.5t178.5 56.5zM372 522v31q0 22 5 49q-32 1 -45.5 20t-16.5 66q-1 20 -6 27t-15 7q-58 0 -58 -116v-84h136z" />
    <glyph glyph-name="f_i" unicode="fi" horiz-adv-x="606" 
d="M364 522l176 13l7 -5q-4 -52 -4 -126v-326q0 -33 6 -41.5t35 -15.5l20 -6v-15h-288v15l18 5q26 6 31 14t5 44v332q0 42 -8.5 52.5t-39.5 10.5h-86v-395q0 -34 5 -42.5t29 -15.5l22 -5v-15h-290v15l21 6q28 7 34 15.5t6 41.5v395h-65v11l65 38v10q0 104 72 167t200 63
q74 0 118.5 -26.5t44.5 -73.5q0 -25 -20 -42.5t-55 -17.5q-42 0 -59.5 20.5t-27.5 82.5q-2 17 -7.5 23t-18.5 6q-74 0 -74 -130v-82h128z" />
    <glyph glyph-name="f_l" unicode="fl" horiz-adv-x="610" 
d="M2 0v15l21 6q28 7 34 15.5t6 41.5v395h-65v11l65 38v29q0 97 63.5 154t186.5 57q106 0 135 -52l92 47l8 -5q-4 -55 -4 -122v-551q0 -33 7 -41.5t37 -16.5l21 -6v-15h-291v15l18 5q25 6 30.5 14.5t5.5 44.5v535q-28 4 -40.5 23.5t-15.5 62.5q-2 21 -6.5 27.5t-14.5 6.5
q-31 0 -45 -27t-14 -91v-94h86l-7 -49h-79v-395q0 -34 5 -42.5t29 -15.5l22 -5v-15h-290z" />
    <glyph glyph-name="f_f_i" unicode="ffi" horiz-adv-x="915" 
d="M318 0v15l18 5q26 6 31 14.5t5 43.5v395h-136v-394q0 -34 5.5 -43t29.5 -16l22 -5v-15h-291v15l21 6q29 8 35 16.5t6 41.5v394h-66v11l66 38v19q0 95 63 151.5t178 56.5q106 0 133 -55q73 68 206 68q74 0 118.5 -26.5t44.5 -73.5q0 -25 -20 -42.5t-55 -17.5
q-43 0 -60 20.5t-27 82.5q-3 17 -8.5 23t-17.5 6q-74 0 -74 -130v-82h128l175 13l8 -5q-4 -52 -4 -126v-326q0 -34 6 -42t35 -15l20 -6v-15h-288v15l18 5q26 6 31 14t5 44v332q0 42 -8.5 52.5t-39.5 10.5h-86v-395q0 -34 5 -42.5t29 -15.5l22 -5v-15h-283zM372 532
q0 37 9 70q-35 1 -48.5 19.5t-17.5 66.5q-2 34 -20 34q-59 0 -59 -116v-84h136v10z" />
    <glyph glyph-name="f_f_l" unicode="ffl" horiz-adv-x="918" 
d="M318 0v15l18 5q25 6 30.5 14.5t5.5 43.5v395h-136v-394q0 -35 5 -43.5t29 -15.5l22 -5v-15h-290v15l21 6q28 7 34 15.5t6 42.5v394h-65v11l65 38v19q0 95 63 151.5t179 56.5q99 0 129 -49q70 62 196 62q105 0 137 -46l81 41l9 -5q-4 -55 -4 -122v-551q0 -33 7 -41.5
t37 -16.5l20 -6v-15h-291v15l18 5q26 6 31 14.5t5 44.5v545q-23 6 -33.5 23.5t-13.5 52.5q-2 21 -6.5 27.5t-14.5 6.5q-68 0 -68 -118v-94h98l-7 -49h-91v-395q0 -33 5.5 -42t29.5 -16l22 -5v-15h-283zM372 551q0 24 5 51q-32 1 -45 20t-17 66q-2 34 -21 34q-58 0 -58 -116
v-84h136v29z" />
    <glyph glyph-name="f_b" unicode="fb" horiz-adv-x="926" 
d="M2 0v15l21 6q28 7 34 15.5t6 41.5v395h-65v11l65 38v29q0 96 67.5 153.5t191.5 57.5q104 0 136 -46l81 41l8 -5q-4 -56 -4 -122v-167h2q79 73 166 73q80 0 137.5 -61t57.5 -185q0 -153 -81 -227.5t-218 -74.5q-147 0 -237 63v574q-39 10 -45 75q-2 21 -6.5 27.5
t-14.5 6.5q-68 0 -68 -118v-94h86l-7 -49h-79v-395q0 -31 5.5 -39t31.5 -15l33 -9v-15h-304zM620 15q56 0 82.5 50.5t26.5 188.5q0 109 -29 151.5t-94 42.5q-30 0 -63 -11v-383q30 -39 77 -39z" />
    <glyph glyph-name="f_f_b" unicode="ffb" horiz-adv-x="1234" 
d="M305 749q99 0 129 -49q70 62 196 62q103 0 137 -46l80 41l8 -5q-4 -56 -4 -122v-167h3q77 73 165 73q81 0 138 -60.5t57 -185.5q0 -153 -81 -227.5t-218 -74.5q-146 0 -236 63v574q-23 5 -33 22.5t-13 52.5q-2 21 -6.5 27.5t-14.5 6.5q-68 0 -68 -118v-94h87l-7 -49h-80
v-395q0 -31 5.5 -39t31.5 -15l33 -9v-15h-296v15l18 5q25 6 30.5 14.5t5.5 43.5v395h-136v-394q0 -35 5 -43.5t29 -15.5l22 -5v-15h-290v15l21 6q28 7 34 15.5t6 42.5v394h-65v11l65 38v19q0 95 63 151.5t179 56.5zM928 15q37 0 59.5 18t36 72t13.5 149q0 109 -29 151.5
t-94 42.5q-30 0 -63 -11v-383q30 -39 77 -39zM372 522v29q0 24 5 51q-32 1 -45 20t-17 66q-2 34 -21 34q-58 0 -58 -116v-84h136z" />
    <glyph glyph-name="f_f_h" unicode="ffh" horiz-adv-x="1236" 
d="M318 0v15l18 5q25 6 30.5 14.5t5.5 43.5v395h-136v-394q0 -35 5 -43.5t29 -15.5l22 -5v-15h-290v15l21 6q28 7 34 15.5t6 42.5v394h-65v11l65 38v19q0 95 63 151.5t179 56.5q99 0 129 -49q70 62 196 62q105 0 137 -46l82 41l8 -5q-4 -55 -4 -122v-166h3q99 72 189 72
q61 0 95 -34t34 -100v-324q0 -33 6 -41t36 -16l20 -6v-15h-289v15l18 5q26 7 31.5 15t5.5 43v292q0 42 -16 59.5t-49 17.5q-42 0 -84 -12v-357q0 -35 5.5 -43t31.5 -15l18 -5v-15h-282v15l18 5q26 7 31 15t5 43v546q-23 6 -33.5 23.5t-13.5 52.5q-2 21 -6.5 27.5t-14.5 6.5
q-68 0 -68 -118v-94h87l-7 -49h-80v-395q0 -34 5 -42.5t30 -15.5l22 -5v-15h-283zM372 551q0 24 5 51q-32 1 -45 20t-17 66q-2 34 -21 34q-58 0 -58 -116v-84h136v29z" />
    <glyph glyph-name="f_f_j" unicode="ffj" horiz-adv-x="900" 
d="M305 749q106 0 133 -55q73 68 206 68q73 0 117.5 -26.5t44.5 -73.5q0 -25 -19.5 -42.5t-54.5 -17.5q-43 0 -60.5 20.5t-27.5 82.5q-2 17 -7.5 23t-18.5 6q-74 0 -74 -130v-82h129l175 13l7 -5q-4 -78 -4 -126v-385q0 -100 -60.5 -160.5t-159.5 -60.5q-70 0 -106.5 26
t-36.5 70q0 29 18.5 46t51.5 17q37 0 53.5 -20t21.5 -82q1 -18 4.5 -23.5t11.5 -5.5q30 0 30 71v513q0 42 -8.5 52.5t-40.5 10.5h-86v-395q0 -31 5.5 -39t31.5 -15l33 -9v-15h-296v15l18 5q25 6 30.5 14.5t5.5 43.5v395h-136v-394q0 -35 5 -43.5t29 -15.5l22 -5v-15h-290v15
l21 6q28 7 34 15.5t6 42.5v394h-65v11l65 38v19q0 95 63 151.5t179 56.5zM372 522v10q0 37 9 70q-35 1 -48.5 19.5t-17.5 66.5q-2 34 -21 34q-58 0 -58 -116v-84h136z" />
    <glyph glyph-name="f_f_k" unicode="ffk" horiz-adv-x="1210" 
d="M317 0v15l18 5q26 6 31 14.5t5 43.5v395h-136v-394q0 -34 5.5 -43t29.5 -16l22 -5v-15h-290v15l20 6q29 7 35 15.5t6 42.5v394h-65v11l65 38v19q0 95 62.5 151.5t179.5 56.5q97 0 129 -49q68 62 196 62q105 0 137 -47l82 42l8 -5q-4 -55 -4 -122v-551q0 -36 5 -44t30 -15
l17 -5v-15h-279v15l18 5q25 6 30.5 14.5t5.5 44.5v545q-23 6 -33.5 23.5t-13.5 52.5q-2 21 -6.5 27.5t-14.5 6.5q-68 0 -68 -118v-94h86l-7 -49h-79v-395q0 -33 5 -42.5t29 -15.5l22 -5v-15h-283zM1009 0q-89 115 -144 245v10l108 120q52 57 52 86t-46 41l-15 5v15h224v-16
l-11 -3q-47 -11 -93 -58l-95 -95q36 -75 91 -165.5t91 -136.5q20 -26 39 -30l9 -3v-15h-210zM371 551q0 24 5 51q-32 1 -45 20t-16 66q-2 21 -6.5 27.5t-14.5 6.5q-59 0 -59 -116v-84h136v29z" />
    <glyph glyph-name="f_h" unicode="fh" horiz-adv-x="928" 
d="M2 0v15l21 6q28 7 34 15.5t6 41.5v395h-65v11l65 38v29q0 96 67.5 153.5t191.5 57.5q105 0 137 -47l82 42l8 -5q-4 -55 -4 -122v-166h3q97 72 188 72q62 0 96 -34t34 -100v-324q0 -33 6 -41t35 -16l21 -6v-15h-289v15l18 5q26 7 31 15t5 43v292q0 42 -15.5 59.5
t-48.5 17.5q-44 0 -84 -12v-357q0 -35 5.5 -43t30.5 -15l19 -5v-15h-282v15l18 5q26 7 31 15.5t5 42.5v546q-23 6 -33.5 23.5t-13.5 52.5q-2 21 -6.5 27.5t-14.5 6.5q-68 0 -68 -118v-94h86l-7 -49h-79v-395q0 -34 4.5 -42.5t29.5 -15.5l22 -5v-15h-290z" />
    <glyph glyph-name="f_j" unicode="fj" horiz-adv-x="592" 
d="M543 404v-385q0 -100 -60.5 -160.5t-159.5 -60.5q-70 0 -106.5 26t-36.5 70q0 29 18.5 46t51.5 17q36 0 53 -20.5t21 -81.5q2 -18 5 -23.5t12 -5.5q29 0 29 71v513q0 42 -8.5 52.5t-39.5 10.5h-86v-395q0 -31 5.5 -39t31.5 -15l33 -9v-15h-304v15l21 6q28 7 34 15.5
t6 41.5v395h-65v11l65 38v10q0 104 72 167t200 63q74 0 118.5 -26.5t44.5 -73.5q0 -25 -20 -42.5t-55 -17.5q-42 0 -59.5 20.5t-27.5 82.5q-2 17 -7.5 23t-18.5 6q-74 0 -74 -130v-82h128l176 13l7 -5q-4 -52 -4 -126z" />
    <glyph glyph-name="f_k" unicode="fk" horiz-adv-x="902" 
d="M2 0v15l20 6q29 7 35 15.5t6 41.5v395h-65v11l65 38v29q0 96 67.5 153.5t190.5 57.5q105 0 137 -46l82 41l9 -5q-4 -55 -4 -122v-551q0 -36 5 -44t29 -15l17 -5v-15h-279v15l18 5q26 6 31 14.5t5 44.5v545q-23 6 -33.5 23.5t-13.5 52.5q-2 21 -6.5 27.5t-14.5 6.5
q-68 0 -68 -118v-94h87l-7 -49h-80v-395q0 -33 5 -42t30 -16l22 -5v-15h-290zM700 0q-87 114 -144 245v10l109 120q51 58 51 86q0 29 -45 41l-16 5v15h225v-16l-12 -3q-46 -11 -93 -58l-95 -95q37 -76 92 -166.5t91 -135.5q20 -26 38 -30l10 -3v-15h-211z" />
    <glyph glyph-name=".notdef" horiz-adv-x="500" 
 />
    <glyph glyph-name=".null" horiz-adv-x="0" 
 />
    <glyph glyph-name="nonmarkingreturn" horiz-adv-x="333" 
 />
    <glyph glyph-name="space" unicode=" " horiz-adv-x="187" 
 />
    <glyph glyph-name="exclam" unicode="!" horiz-adv-x="274" 
d="M127 217l-85 339q-21 72 6.5 109.5t87.5 37.5t88.5 -37.5t7.5 -109.5l-85 -339h-20zM50 79q0 37 25.5 61.5t61.5 24.5q35 0 61 -24.5t26 -61.5q0 -35 -26.5 -60.5t-60.5 -25.5q-36 0 -61.5 25t-25.5 61z" />
    <glyph glyph-name="quotedbl" unicode="&#x22;" horiz-adv-x="363" 
d="M93 450l-56 153q-20 53 0 79.5t63 26.5q41 0 60 -26t1 -80l-51 -153h-17zM253 450l-51 153q-19 54 0.5 80t61.5 26q41 0 61 -26.5t0 -79.5l-55 -153h-17z" />
    <glyph glyph-name="numbersign" unicode="#" horiz-adv-x="456" 
d="M202 0l44 192h-109l-43 -192h-32l43 192h-90l27 109h89l23 99h-90l25 109h90l42 184h32l-42 -184h108l43 184h32l-43 -184h90l-26 -109h-89l-22 -99h90l-26 -109h-90l-44 -192h-32zM185 400l-22 -99h109l22 99h-109z" />
    <glyph glyph-name="dollar" unicode="$" horiz-adv-x="520" 
d="M14 110q0 33 19.5 50t53.5 17q39 0 59 -19t28 -76q5 -37 16 -50t43 -15v248q-119 43 -165.5 96t-46.5 131q0 83 64 141.5t160 66.5v65h30v-64q103 -1 154 -33t51 -78q0 -29 -19.5 -46t-50.5 -17q-40 0 -57 19t-24 71q-4 31 -14 42.5t-40 13.5v-226q125 -48 176.5 -100.5
t51.5 -132.5q0 -90 -64.5 -153.5t-176.5 -69.5v-96h-29v95q-219 3 -219 120zM369 131q0 82 -107 124v-238q46 2 76.5 32t30.5 82zM148 574q0 -39 22 -66t75 -49v214q-45 -3 -71 -28.5t-26 -70.5z" />
    <glyph glyph-name="percent" unicode="%" horiz-adv-x="720" 
d="M68 -50l526 764h39l-525 -764h-40zM195 358q-74 0 -123.5 43.5t-49.5 125.5q0 60 30 102t68.5 58.5t78.5 16.5q71 0 123 -45t52 -126q0 -85 -54 -130t-125 -45zM198 384q33 0 43 29.5t10 112.5q0 90 -11 121t-42 31q-29 0 -41.5 -30t-12.5 -114q0 -87 11 -118.5t43 -31.5
zM519 -12q-74 0 -123 43t-49 126q0 46 17 81.5t44 55.5t56.5 30t58.5 10q72 0 123.5 -45t51.5 -126q0 -85 -54 -130t-125 -45zM522 14q33 0 43 29.5t10 112.5q0 90 -11 121t-42 31q-29 0 -41.5 -30t-12.5 -114q0 -87 11 -118.5t43 -31.5z" />
    <glyph glyph-name="ampersand" unicode="&#x26;" horiz-adv-x="722" 
d="M547 573q0 -54 -48 -92.5t-131 -70.5q88 -132 168 -229q37 65 37 119q0 43 -44 56l-24 7v16h213v-16l-21 -6q-27 -8 -47.5 -32.5t-51.5 -81.5q-28 -55 -45 -83q51 -59 93 -103q31 -31 56 -38l12 -3v-16h-254q-14 12 -38 39q-82 -51 -181 -51q-113 0 -171.5 45.5
t-58.5 130.5q0 68 48.5 117.5t127.5 79.5q-40 77 -40 139q0 87 64.5 145.5t158.5 58.5q84 0 130.5 -37.5t46.5 -93.5zM405 60q-112 127 -204 278q-27 -34 -27 -103q0 -85 40.5 -140t105.5 -55q45 0 85 20zM297 584q0 -74 59 -157q78 49 78 146q0 47 -16.5 76t-48.5 29
t-52 -25t-20 -69z" />
    <glyph glyph-name="quotesingle" unicode="'" horiz-adv-x="200" 
d="M92 450l-55 153q-20 53 0.5 79.5t63.5 26.5q41 0 61.5 -26.5t1.5 -79.5l-55 -153h-17z" />
    <glyph glyph-name="parenleft" unicode="(" horiz-adv-x="301" 
d="M281 -141q-246 175 -246 441q0 74 23.5 146.5t62 128.5t79 98t81.5 72l9 -9q-67 -65 -109.5 -177t-42.5 -237q0 -155 40.5 -262.5t112.5 -191.5z" />
    <glyph glyph-name="parenright" unicode=")" horiz-adv-x="301" 
d="M20 745q42 -30 82 -71t78.5 -97t62 -128.5t23.5 -148.5q0 -80 -23 -152.5t-62.5 -127t-78 -92.5t-82.5 -69l-10 10q153 176 153 445q0 132 -42.5 244.5t-109.5 177.5z" />
    <glyph glyph-name="asterisk" unicode="*" horiz-adv-x="338" 
d="M73 414q-23 13 -22 41.5t35 45.5l79 44l-87 -10q-40 -5 -54.5 15t-6.5 46t29.5 32t54.5 -21l65 -58l-38 82q-16 38 -2.5 57t43.5 19q29 0 41.5 -18.5t-3.5 -57.5l-38 -82l66 60q33 27 55 20t30 -33t-7.5 -46.5t-54.5 -14.5l-87 10l79 -45q23 -12 30.5 -29.5t1.5 -31.5
t-19 -24q-18 -17 -44.5 -7.5t-32.5 47.5l-18 88l-18 -89q-6 -37 -32.5 -46.5t-44.5 6.5z" />
    <glyph glyph-name="plus" unicode="+" horiz-adv-x="474" 
d="M221 138v192h-179v29h179v191h33v-191h178v-29h-178v-192h-33z" />
    <glyph glyph-name="comma" unicode="," horiz-adv-x="224" 
d="M18 -109l-4 13q53 19 84.5 57t33.5 85q-14 -28 -46 -28q-29 0 -47 18.5t-18 49.5q0 35 25 56.5t60 21.5q42 0 70 -27.5t28 -77.5q0 -65 -50.5 -109.5t-135.5 -58.5z" />
    <glyph glyph-name="hyphen" unicode="-" horiz-adv-x="268" 
d="M17 228l10 105h224l-12 -105h-222z" />
    <glyph glyph-name="period" unicode="." horiz-adv-x="219" 
d="M22 79q0 37 25.5 61.5t61.5 24.5q35 0 61 -24.5t26 -61.5q0 -36 -26 -61t-61 -25q-36 0 -61.5 25t-25.5 61z" />
    <glyph glyph-name="slash" unicode="/" horiz-adv-x="374" 
d="M363 734l-328 -864h-35l328 864h35z" />
    <glyph glyph-name="zero" unicode="0" horiz-adv-x="680" 
d="M336 -12q-135 0 -223.5 89.5t-88.5 260.5q0 96 30.5 170t79.5 115t102.5 61.5t106.5 20.5q129 0 221 -92.5t92 -262.5q0 -92 -28 -163.5t-74.5 -113.5t-102 -63.5t-115.5 -21.5zM341 16q63 0 87.5 68.5t24.5 251.5q0 138 -12.5 213t-35.5 101.5t-64 26.5q-39 0 -62.5 -24
t-37.5 -97t-14 -203q0 -133 12 -206t35.5 -102t66.5 -29z" />
    <glyph glyph-name="one" unicode="1" horiz-adv-x="390" 
d="M11 0v15l37 8q33 8 40.5 19t7.5 56v448l-81 18v15q188 35 262 123l17 -6v-598q0 -45 7.5 -56t40.5 -19l37 -8v-15h-368z" />
    <glyph glyph-name="two" unicode="2" horiz-adv-x="531" 
d="M8 0v96q123 98 188 166q63 67 90.5 130.5t27.5 144.5q0 74 -19.5 107t-58.5 33q-26 0 -35 -11.5t-11 -44.5q-4 -68 -25 -91t-72 -23q-34 0 -54 18t-20 49q0 56 62.5 93.5t170.5 37.5q121 0 189.5 -49.5t68.5 -145.5q0 -42 -21 -82.5t-55 -74.5t-88.5 -71t-109 -67.5
t-129.5 -67.5v-3h292q38 0 51.5 12.5t36.5 67.5h17l-14 -224h-482z" />
    <glyph glyph-name="three" unicode="3" horiz-adv-x="549" 
d="M232 -12q-221 0 -221 122q0 32 21.5 50t58.5 18q43 0 61.5 -24t22.5 -89q2 -30 11.5 -39.5t34.5 -9.5q102 0 102 181q0 88 -28.5 119t-91.5 31h-48v30h43q61 0 88 34t27 118q0 79 -16 113.5t-57 34.5q-22 0 -30.5 -8.5t-10.5 -29.5q-7 -64 -26 -88t-63 -24q-73 0 -73 62
q0 54 57 85t160 31q112 0 179.5 -44t67.5 -122q0 -60 -43.5 -105.5t-130.5 -61.5v-3q92 -6 145.5 -48t53.5 -126q0 -95 -75 -151t-219 -56z" />
    <glyph glyph-name="four" unicode="4" horiz-adv-x="587" 
d="M212 0v15l31 8q31 8 39 20t8 55v104h-281v47l347 444h121v-425h100l-7 -66h-93v-104q0 -45 7.5 -56.5t38.5 -18.5l35 -8v-15h-346zM68 268h222v286h-3l-219 -283v-3z" />
    <glyph glyph-name="five" unicode="5" horiz-adv-x="520" 
d="M208 -12q-97 0 -146 31t-49 83q0 67 76 67q43 0 62 -22.5t23 -87.5q3 -25 12 -34.5t36 -9.5q52 0 80.5 36t28.5 105q0 77 -40 112t-120 35q-61 0 -107 -20l-12 8l43 402h302q24 0 34.5 9t27.5 44h18l-21 -192h-344l-13 -127q48 21 139 21q123 0 191.5 -57t68.5 -165
q0 -98 -76.5 -168t-213.5 -70z" />
    <glyph glyph-name="six" unicode="6" horiz-adv-x="608" 
d="M311 -12q-124 0 -205 81.5t-81 248.5q0 101 31.5 178t84 121t114.5 66t130 22q86 0 133 -27.5t47 -77.5q0 -67 -78 -67q-43 0 -60.5 19.5t-22.5 74.5q-3 31 -10.5 40.5t-27.5 9.5q-65 0 -100 -67.5t-40 -235.5q70 41 154 41q99 0 155 -49t56 -149q0 -102 -72.5 -165.5
t-207.5 -63.5zM314 16q48 0 64.5 44.5t16.5 148.5q0 87 -23 120.5t-76 33.5q-37 0 -71 -16v-36q0 -170 18 -232.5t71 -62.5z" />
    <glyph glyph-name="seven" unicode="7" horiz-adv-x="509" 
d="M93 0q33 163 120 293t224 256h-327q-32 0 -44 -15t-35 -77h-18l17 236h471v-86q-102 -141 -144 -280.5t-52 -326.5h-212z" />
    <glyph glyph-name="eight" unicode="8" horiz-adv-x="563" 
d="M273 -12q-120 0 -190 45t-70 119q0 57 40 93t119 66v2q-71 33 -100.5 75.5t-29.5 104.5q0 92 76.5 152t175.5 60q93 0 161 -40.5t68 -109.5q0 -92 -143 -141v-2q88 -36 129 -85t41 -120q0 -87 -81.5 -153t-195.5 -66zM282 16q55 0 91.5 28t36.5 84q0 51 -41 82t-172 87
q-45 -56 -45 -130q0 -151 130 -151zM351 429q21 24 31 49.5t10 73.5q0 126 -107 126q-49 0 -78.5 -26t-29.5 -73t37.5 -78.5t136.5 -71.5z" />
    <glyph glyph-name="nine" unicode="9" horiz-adv-x="609" 
d="M298 705q58 0 108 -18.5t90.5 -56.5t63.5 -103.5t23 -151.5q0 -100 -30 -176.5t-82 -121t-116 -66.5t-138 -22q-85 0 -132 27.5t-47 76.5q0 69 77 69q43 0 61.5 -20t22.5 -73q3 -32 11 -42t28 -10q72 0 105.5 66t38.5 237q-63 -41 -152 -41q-98 0 -155.5 49t-57.5 149
q0 101 72.5 164.5t208.5 63.5zM295 678q-48 0 -65 -45t-17 -150q0 -85 24 -118.5t76 -33.5q38 0 70 16v36q0 170 -17.5 232.5t-70.5 62.5z" />
    <glyph glyph-name="colon" unicode=":" horiz-adv-x="219" 
d="M22 79q0 37 25.5 61.5t61.5 24.5q35 0 61 -24.5t26 -61.5q0 -36 -26 -61t-61 -25q-36 0 -61.5 25t-25.5 61zM22 354q0 37 25.5 61.5t61.5 24.5q35 0 61 -24.5t26 -61.5q0 -36 -26 -61t-61 -25q-36 0 -61.5 25t-25.5 61z" />
    <glyph glyph-name="semicolon" unicode=";" horiz-adv-x="224" 
d="M19 -108l-4 13q53 18 84 56.5t33 85.5q-13 -28 -46 -28q-29 0 -46.5 18.5t-17.5 49.5q0 34 25 56t60 22q42 0 69.5 -27.5t27.5 -77.5q0 -65 -50 -109.5t-135 -58.5zM22 354q0 37 25.5 61.5t61.5 24.5q35 0 61 -24.5t26 -61.5q0 -36 -26 -61t-61 -25q-36 0 -61.5 25
t-25.5 61z" />
    <glyph glyph-name="less" unicode="&#x3c;" horiz-adv-x="468" 
d="M415 133l-373 172v30l373 172v-35l-331 -152l331 -153v-34z" />
    <glyph glyph-name="equal" unicode="=" horiz-adv-x="530" 
d="M46 388v31h438v-31h-438zM46 247v32h438v-32h-438z" />
    <glyph glyph-name="greater" unicode="&#x3e;" horiz-adv-x="468" 
d="M426 305l-373 -172v34l332 153l-332 152v35l373 -172v-30z" />
    <glyph glyph-name="question" unicode="?" horiz-adv-x="455" 
d="M140 217v190q68 21 105 56.5t37 104.5q0 53 -21.5 80t-59.5 27q-16 0 -21.5 -9.5t-8.5 -36.5q-6 -51 -25.5 -71t-63.5 -20q-33 0 -50.5 17.5t-17.5 45.5q0 48 53 75.5t142 27.5q104 0 162.5 -49t58.5 -138t-64.5 -150t-190.5 -88v-62h-35zM79 79q0 37 25.5 61.5
t61.5 24.5q35 0 61 -24.5t26 -61.5q0 -35 -26.5 -60.5t-60.5 -25.5q-36 0 -61.5 25t-25.5 61z" />
    <glyph glyph-name="at" unicode="@" horiz-adv-x="890" 
d="M658 69q49 0 95 67t46 204t-72.5 219.5t-221.5 82.5q-108 0 -198.5 -47t-148.5 -144t-58 -227q0 -161 82.5 -248.5t246.5 -87.5q138 0 242 50v-18q-42 -25 -113.5 -44t-157.5 -19q-165 0 -272.5 91.5t-107.5 256.5q0 96 42.5 183.5t110.5 148.5t156 96.5t177 35.5
q165 0 263.5 -86.5t98.5 -230.5q0 -151 -83.5 -234.5t-202.5 -83.5q-99 0 -104 98h-3q-26 -40 -68.5 -69t-89.5 -29q-50 0 -76.5 35t-26.5 100q0 131 89.5 230t195.5 99q73 0 124 -45h4l55 39l8 -3q-11 -30 -28 -118l-37 -196q-11 -51 -4 -78.5t37 -27.5zM401 115
q37 0 71 47l56 286q-14 27 -38 27q-47 0 -85 -100t-38 -202q0 -58 34 -58z" />
    <glyph glyph-name="A" unicode="A" horiz-adv-x="679" 
d="M-7 0v15l14 5q26 8 39 26.5t39 91.5l202 555h102l203 -557q24 -68 36 -88.5t34 -27.5l18 -5v-15h-359v15l27 7q38 9 38 44q0 31 -19 84l-25 78h-186l-25 -73q-20 -58 -20 -86q0 -18 10.5 -28.5t38.5 -18.5l25 -7v-15h-192zM252 509l-85 -249h165l-77 249h-3z" />
    <glyph glyph-name="B" unicode="B" horiz-adv-x="654" 
d="M7 0v15l30 7q28 8 35 19t7 57v497q0 46 -7 57t-35 19l-30 7v15h330q142 0 207.5 -39.5t65.5 -124.5q0 -130 -179 -156v-3q106 -13 158.5 -53.5t52.5 -121.5q0 -195 -281 -195h-354zM343 32q50 0 72.5 38t22.5 128q0 85 -26 118t-88 33h-49v-254q0 -38 15 -50.5t53 -12.5z
M275 378h43q58 0 80 30.5t22 114.5q0 80 -21.5 109t-71.5 29q-34 0 -52 -5v-278z" />
    <glyph glyph-name="C" unicode="C" horiz-adv-x="623" 
d="M365 -12q-159 0 -251.5 91t-92.5 262q0 93 29.5 164.5t81 114t117 64t142.5 21.5q109 0 185 -24l15 -221h-17q-54 109 -90 159q-21 31 -43.5 44.5t-59.5 13.5q-152 0 -152 -316q0 -191 35 -268t110 -77q46 0 73 13.5t52 50.5q25 34 82 159h17l-12 -212q-99 -39 -221 -39z
" />
    <glyph glyph-name="D" unicode="D" horiz-adv-x="728" 
d="M7 0v15l30 7q28 8 35 19t7 57v497q0 46 -7 57t-35 19l-30 7v15h351q166 0 257.5 -82.5t91.5 -250.5q0 -169 -94.5 -264.5t-258.5 -95.5h-347zM342 30q158 0 158 306q0 183 -38.5 254.5t-121.5 71.5q-40 0 -62 -7v-559q0 -41 13 -53.5t51 -12.5z" />
    <glyph glyph-name="E" unicode="E" horiz-adv-x="602" 
d="M454 492v-270h-16q-11 47 -31 91q-9 19 -26.5 25t-68.5 6h-34v-242q0 -47 14 -59t75 -12q58 0 80 11.5t47 51.5q34 53 75 157h18l-14 -251h-566v15l30 7q28 8 35 19t7 57v497q0 46 -7 57t-35 19l-30 7v15h546l9 -213h-17q-36 83 -62 124q-21 35 -45.5 46.5t-75.5 11.5
q-58 0 -84 -7v-281h35q51 0 67.5 6.5t26.5 24.5q18 34 31 87h16z" />
    <glyph glyph-name="F" unicode="F" horiz-adv-x="572" 
d="M309 334h-31v-236q0 -47 6.5 -58t37.5 -17l40 -8v-15h-355v15l30 7q28 8 35 19t7 57v497q0 46 -7 57t-35 19l-30 7v15h541l10 -222h-17q-45 100 -59 123q-23 41 -45 54.5t-74 13.5q-57 0 -85 -7v-291h32q51 0 68 6.5t29 26.5q14 27 30 89h16v-279h-16q-16 64 -30 90
q-14 24 -30 30.5t-68 6.5z" />
    <glyph glyph-name="G" unicode="G" horiz-adv-x="680" 
d="M384 -12q-180 0 -271.5 91.5t-91.5 264.5q0 95 31.5 166.5t87 113t123 61.5t146.5 20q109 0 190 -25l11 -219h-17q-46 99 -78 145q-29 42 -55.5 56.5t-67.5 14.5q-84 0 -124.5 -77.5t-40.5 -239.5q0 -189 31.5 -266.5t115.5 -77.5q44 0 71 20v162q0 47 -7 58t-37 18
l-29 7v15h312v-15l-25 -6q-19 -5 -23.5 -17t-4.5 -58v-171q-41 -17 -110.5 -29t-136.5 -12z" />
    <glyph glyph-name="H" unicode="H" horiz-adv-x="765" 
d="M7 0v15l30 7q28 8 35 19t7 57v497q0 46 -7 57t-35 19l-30 7v15h341v-15l-27 -7q-30 -8 -36.5 -19t-6.5 -57v-224h209v224q0 46 -6.5 56.5t-36.5 19.5l-27 7v15h341v-15l-30 -7q-29 -8 -36 -19t-7 -57v-497q0 -46 7 -57t36 -19l30 -7v-15h-341v15l27 7q30 9 36.5 19.5
t6.5 56.5v240h-209v-240q0 -46 6.5 -56.5t36.5 -19.5l27 -7v-15h-341z" />
    <glyph glyph-name="I" unicode="I" horiz-adv-x="362" 
d="M7 0v15l32 7q29 7 36 18.5t7 57.5v497q0 46 -7 57.5t-36 18.5l-32 7v15h348v-15l-32 -7q-29 -7 -36 -18t-7 -58v-497q0 -47 7 -58t36 -18l32 -7v-15h-348z" />
    <glyph glyph-name="J" unicode="J" horiz-adv-x="503" 
d="M165 -10q-81 0 -126 30.5t-45 78.5q0 37 22 57t60 20q45 0 65.5 -26.5t25.5 -104.5q1 -25 21 -25q39 0 39 91v484q0 47 -6.5 58.5t-34.5 17.5l-31 7v15h343v-15l-30 -7q-30 -8 -36.5 -18.5t-6.5 -57.5v-350q0 -115 -69 -185t-191 -70z" />
    <glyph glyph-name="K" unicode="K" horiz-adv-x="720" 
d="M486 0q-112 147 -189 326v17l182 213q35 41 35 74q0 29 -39 39l-29 9v15h243v-15l-24 -6q-28 -8 -52.5 -26t-63.5 -61l-117 -132q53 -111 119.5 -223t121.5 -182q20 -24 40 -28l15 -5v-15h-242zM7 0v15l30 7q28 8 35 19t7 57v497q0 46 -7 57t-35 19l-30 7v15h341v-15
l-27 -7q-30 -8 -36.5 -19t-6.5 -57v-497q0 -46 6.5 -56.5t36.5 -19.5l27 -7v-15h-341z" />
    <glyph glyph-name="L" unicode="L" horiz-adv-x="584" 
d="M7 0v15l30 7q28 8 35 19t7 57v497q0 46 -7 57t-35 19l-30 7v15h348v-15l-34 -7q-30 -6 -36.5 -17.5t-6.5 -58.5v-499q0 -42 13 -54t66 -12q59 0 80 11t45 52q33 56 77 170h18l-18 -263h-552z" />
    <glyph glyph-name="M" unicode="M" horiz-adv-x="856" 
d="M7 0v15l30 8q27 7 34.5 23.5t7.5 71.5v477q0 45 -7 56.5t-36 19.5l-29 7v15h276l144 -392h3l146 392h273v-15l-29 -7q-29 -8 -36 -19t-7 -57v-497q0 -46 7 -57t36 -19l29 -7v-15h-346v15l30 7q30 8 37 19t7 57v490h-4l-210 -572h-39l-204 572h-4v-465q0 -59 7 -76t39 -24
l31 -8v-15h-186z" />
    <glyph glyph-name="N" unicode="N" horiz-adv-x="670" 
d="M534 -1l-415 585h-3v-461q0 -59 8 -75.5t41 -24.5l33 -8v-15h-191v15l30 8q27 8 34.5 24.5t7.5 70.5v477q0 39 -8.5 54t-34.5 22l-29 7v15h268l276 -384h3v261q0 59 -7.5 75t-40.5 24l-36 9v15h193v-15l-30 -8q-27 -7 -34.5 -23.5t-7.5 -71.5v-576h-57z" />
    <glyph glyph-name="O" unicode="O" horiz-adv-x="727" 
d="M361 -12q-67 0 -127 21t-108 62.5t-76.5 110t-28.5 156.5q0 95 31 168.5t82.5 115t110.5 62.5t122 21q54 0 102.5 -12t92.5 -38.5t75.5 -66.5t50.5 -100t19 -134q0 -77 -21 -140t-55 -104.5t-79.5 -69.5t-93 -40t-97.5 -12zM364 16q72 0 104 69.5t32 246.5
q0 192 -32 268.5t-105 76.5q-70 0 -103 -71t-33 -246q0 -193 32 -268.5t105 -75.5z" />
    <glyph glyph-name="P" unicode="P" horiz-adv-x="646" 
d="M7 0v15l30 7q28 8 35 19t7 57v497q0 46 -7 57t-36 19l-29 7v15h339q148 0 217.5 -47t69.5 -152q0 -91 -64 -149t-197 -58q-42 0 -71 8v20q79 3 104.5 37.5t25.5 134.5q0 106 -20.5 141t-78.5 35q-30 0 -54 -6v-559q0 -44 7.5 -55t38.5 -19l38 -9v-15h-355z" />
    <glyph glyph-name="Q" unicode="Q" horiz-adv-x="727" 
d="M583 -167q-58 0 -102.5 14.5t-94.5 47.5q-43 27 -137 112q-102 28 -165 112.5t-63 218.5q0 95 31 168.5t82.5 115t110.5 62.5t122 21q68 0 127 -19.5t108 -60t77 -110t28 -161.5q0 -261 -228 -328v-3q43 -40 84 -67q62 -41 120 -41q46 0 84 17v-14q-25 -33 -73.5 -59
t-110.5 -26zM364 12q72 0 104 71.5t32 248.5q0 192 -32 268.5t-105 76.5q-70 0 -103 -71t-33 -246q0 -193 32.5 -270.5t104.5 -77.5z" />
    <glyph glyph-name="R" unicode="R" horiz-adv-x="703" 
d="M7 0v15l30 7q28 8 35 19t7 57v497q0 46 -7 57t-35 19l-30 7v15h349q144 0 210.5 -43.5t66.5 -134.5q0 -67 -31.5 -106.5t-98.5 -60.5v-3q89 -195 160 -292q19 -27 43 -33l18 -5v-15h-254q-75 110 -154 311q-22 0 -37 1v-214q0 -46 6 -57.5t33 -18.5l29 -7v-15h-340z
M321 340q59 0 86 34.5t27 123.5q0 87 -21.5 125t-75.5 38q-35 0 -58 -5v-312q20 -4 42 -4z" />
    <glyph glyph-name="S" unicode="S" horiz-adv-x="513" 
d="M233 -12q-137 0 -206 32l-12 204h18q49 -98 81 -140q28 -36 57 -52t72 -16q51 0 79 29t28 79q0 51 -30.5 81.5t-112.5 61.5q-103 37 -146 86.5t-43 131.5q0 95 71 157.5t184 62.5q109 0 175 -30l10 -183h-19q-42 92 -77 132q-26 30 -48.5 41.5t-55.5 11.5q-48 0 -76 -26
t-28 -72q0 -44 28.5 -71.5t106.5 -58.5q117 -44 164 -92.5t47 -128.5q0 -98 -72 -169t-195 -71z" />
    <glyph glyph-name="T" unicode="T" horiz-adv-x="635" 
d="M441 663h-24v-565q0 -46 7.5 -56.5t41.5 -19.5l32 -7v-15h-361v15l32 7q34 8 42 19t8 57v565h-25q-34 0 -51 -11.5t-35 -41.5q-29 -46 -79 -164h-17l8 247h595l9 -247h-18q-50 121 -78 164q-20 33 -35 43t-52 10z" />
    <glyph glyph-name="U" unicode="U" horiz-adv-x="688" 
d="M371 -12q-143 0 -218.5 53.5t-75.5 178.5v375q0 46 -7 57t-37 19l-29 7v15h344v-15l-30 -7q-29 -8 -36.5 -19t-7.5 -57v-392q0 -82 37.5 -120.5t118.5 -38.5q77 0 111 43t34 126v357q0 58 -8 75t-41 24l-36 9v15h194v-15l-31 -8q-25 -6 -33 -24t-8 -71v-370
q0 -99 -59 -158t-182 -59z" />
    <glyph glyph-name="V" unicode="V" horiz-adv-x="664" 
d="M295 0l-218 572q-21 56 -33 75.5t-34 24.5l-23 6v15h355v-15l-28 -7q-36 -10 -36 -40q0 -19 20 -76l123 -360h3l118 359q18 54 18 75q0 32 -40 42l-30 7v15h187v-15l-24 -8q-21 -6 -33 -27t-31 -73l-199 -570h-95z" />
    <glyph glyph-name="W" unicode="W" horiz-adv-x="1011" 
d="M785 204l106 351q15 47 15 73q0 35 -40 43l-31 7v15h190v-15l-18 -6q-25 -7 -40 -30t-35 -84l-183 -558h-95l-135 420h-3l-141 -420h-100l-206 583q-18 53 -28.5 69t-32.5 20l-24 6v15h343v-15l-24 -6q-37 -9 -37 -39q0 -20 20 -78l120 -351h3l91 271l-41 126
q-11 34 -22 49t-33 22l-20 6v15h338v-15l-33 -8q-34 -7 -34 -42q0 -19 17 -73l110 -351h3z" />
    <glyph glyph-name="X" unicode="X" horiz-adv-x="686" 
d="M337 569l83 -155h2l83 154q24 42 24 68q0 27 -39 36l-27 6v15h205v-15l-16 -5q-26 -7 -43 -25.5t-48 -68.5l-119 -196l161 -287q14 -25 23 -39t19.5 -21.5t12.5 -8.5t17 -7l14 -5v-15h-365v15l34 7q32 4 32 33q0 22 -26 68l-92 169h-2l-92 -158q-34 -56 -34 -79
q0 -25 33 -33l32 -7v-15h-212v15l14 4q29 9 50.5 27t50.5 62l140 214l-157 277q-19 36 -31.5 49.5t-35.5 22.5l-17 7v15h368v-15l-36 -8q-32 -7 -32 -31q0 -25 26 -70z" />
    <glyph glyph-name="Y" unicode="Y" horiz-adv-x="637" 
d="M154 0v15l32 7q34 8 41.5 19t7.5 57v198l-165 295q-28 50 -38 62.5t-28 18.5l-18 6v15h366v-15l-32 -7q-44 -10 -44 -42q0 -24 17 -55l120 -231h3l97 220q17 41 17 64q0 31 -42 44l-27 7v15h186v-15l-19 -7q-19 -6 -31.5 -23.5t-36.5 -70.5l-127 -276v-203q0 -46 8 -57
t41 -19l33 -7v-15h-361z" />
    <glyph glyph-name="Z" unicode="Z" horiz-adv-x="617" 
d="M18 0v32l348 628v4h-42q-87 0 -117 -9.5t-51 -41.5q-36 -54 -82 -161h-18l14 241h517v-32l-352 -628v-4h46q108 0 140 10.5t61 52.5q29 40 88 164h19l-19 -256h-552z" />
    <glyph glyph-name="bracketleft" unicode="[" horiz-adv-x="310" 
d="M166 635v-665q0 -48 11.5 -60.5t55.5 -17.5l66 -7v-15h-226v864h226v-15l-66 -7q-44 -5 -55.5 -17t-11.5 -60z" />
    <glyph glyph-name="backslash" unicode="\" horiz-adv-x="374" 
d="M339 -130l-328 864h35l328 -864h-35z" />
    <glyph glyph-name="bracketright" unicode="]" horiz-adv-x="310" 
d="M144 -30v665q0 48 -11 60t-55 17l-67 7v15h227v-864h-227v15l67 7q44 5 55 17.5t11 60.5z" />
    <glyph glyph-name="asciicircum" unicode="^" horiz-adv-x="397" 
d="M29 439l-9 8l156 249h44l157 -249l-9 -8l-172 126z" />
    <glyph glyph-name="underscore" unicode="_" horiz-adv-x="399" 
d="M-2 -160v34h403v-34h-403z" />
    <glyph glyph-name="grave" unicode="`" 
d="M350 585l-4 -10l-183 33q-25 4 -38 21t-13 38q0 28 18.5 48.5t43.5 20.5q31 0 58 -28z" />
    <glyph glyph-name="a" unicode="a" horiz-adv-x="528" 
d="M157 -12q-67 0 -106 33t-39 91q0 34 12.5 58.5t38 40.5t49 25t61.5 19l118 32v99q0 69 -11.5 95.5t-48.5 26.5q-24 0 -34 -8.5t-11 -33.5q-4 -57 -21 -77.5t-58 -20.5q-73 0 -73 60q0 51 59 79.5t170 28.5q201 0 201 -140v-284q0 -30 4 -43.5t17 -20.5q20 -10 47 -10v-13
q-47 -37 -122 -37q-89 0 -109 65h-4q-53 -65 -140 -65zM240 55q37 0 51 24v170l-32 -4q-42 -5 -60 -26t-18 -73q0 -91 59 -91z" />
    <glyph glyph-name="b" unicode="b" horiz-adv-x="603" 
d="M283 -12q-146 0 -236 63v585q0 39 -5 51t-29 22l-32 15v11l234 22l9 -5q-4 -56 -4 -122v-64l-1 -103h3q79 73 165 73q81 0 138.5 -60.5t57.5 -185.5q0 -153 -81 -227.5t-219 -74.5zM296 15q37 0 59.5 18t36.5 72t14 149q0 109 -29.5 152.5t-93.5 43.5q-24 0 -63 -13v-383
q30 -39 76 -39z" />
    <glyph glyph-name="c" unicode="c" horiz-adv-x="494" 
d="M269 -12q-120 0 -187 70.5t-67 192.5q0 73 27 129.5t72 89.5t96.5 49.5t106.5 16.5q80 0 123.5 -26.5t43.5 -77.5q0 -69 -75 -69q-43 0 -59 21t-21 75q-4 30 -10 39t-27 9q-102 0 -102 -207q0 -118 34 -173t124 -55q67 0 130 34v-17q-25 -36 -80.5 -68.5t-128.5 -32.5z
" />
    <glyph glyph-name="d" unicode="d" horiz-adv-x="618" 
d="M223 -12q-90 0 -146.5 62t-56.5 184q0 78 23.5 137.5t64.5 94.5t92 52.5t111 17.5q36 0 71 -11v111q0 34 -5 44t-27 22l-40 21v12l242 22l8 -6q-4 -52 -4 -121v-522q0 -38 5 -48t30 -19l25 -9v-12l-221 -32l-11 8v61h-3q-76 -69 -158 -69zM312 68q38 0 70 16v381
q-25 44 -72 44q-113 0 -113 -231q0 -113 27.5 -161.5t87.5 -48.5z" />
    <glyph glyph-name="e" unicode="e" horiz-adv-x="528" 
d="M280 -12q-132 0 -198.5 68.5t-66.5 198.5t80 205.5t187 75.5q227 0 233 -242h-329q1 -126 42 -173.5t129 -47.5q74 0 139 35v-17q-31 -41 -87.5 -72t-128.5 -31zM275 510q-86 0 -89 -192l160 10q0 104 -15 143t-56 39z" />
    <glyph glyph-name="f" unicode="f" horiz-adv-x="342" 
d="M2 0v15l21 6q28 7 34 15.5t6 41.5v395h-65v11l65 38v31q0 95 64.5 152t181.5 57q65 0 102.5 -22.5t37.5 -62.5q0 -30 -18.5 -46.5t-49.5 -16.5q-36 0 -52 19t-20 67q-1 20 -5.5 27t-14.5 7q-53 0 -53 -116v-96h96l-7 -49h-89v-395q0 -31 5.5 -39t31.5 -15l33 -9v-15h-304
z" />
    <glyph glyph-name="g" unicode="g" horiz-adv-x="522" 
d="M212 -202q-224 0 -224 108q0 37 32 62.5t95 35.5v2q-93 23 -93 102q0 39 23.5 70.5t56.5 50.5v2q-83 41 -83 129q0 82 62 129t156 47q74 0 131 -30q58 56 111 56q29 0 46.5 -14.5t17.5 -43.5q0 -22 -12.5 -36.5t-37.5 -14.5q-21 0 -30 8t-16 27q-15 39 -63 6v-2
q72 -47 72 -118q0 -82 -62 -128t-157 -46q-65 0 -116 20q-20 -20 -20 -45q0 -29 48 -29h194q168 0 168 -135q0 -95 -82 -154t-217 -59zM234 -175q82 0 126 26.5t44 76.5q0 38 -22.5 54.5t-72.5 16.5h-171q-27 -21 -27 -78q0 -96 123 -96zM237 226q35 0 48 28t13 110
q0 86 -13.5 116t-47.5 30t-47 -28.5t-13 -111.5q0 -84 13.5 -114t46.5 -30z" />
    <glyph glyph-name="h" unicode="h" horiz-adv-x="619" 
d="M427 536q62 0 96 -34t34 -100v-324q0 -33 6 -41t35 -16l21 -6v-15h-289v15l18 5q26 7 31 15t5 43v292q0 42 -15.5 59.5t-48.5 17.5q-42 0 -84 -12v-357q0 -35 5.5 -43t31.5 -15l18 -5v-15h-289v15l20 6q29 7 35 15.5t6 41.5v558q0 38 -5 49t-29 24l-32 15v11l235 22l8 -5
q-4 -55 -4 -122v-166h3q97 72 188 72z" />
    <glyph glyph-name="i" unicode="i" horiz-adv-x="299" 
d="M2 0v15l21 6q28 7 34 15.5t6 41.5v336q0 31 -5.5 41t-29.5 26l-31 20v9l236 25l7 -5q-4 -55 -4 -125v-327q0 -33 6 -41t35 -16l20 -6v-15h-295zM58 663q0 36 25 58.5t62 22.5q38 0 63 -22.5t25 -58.5q0 -37 -25 -59t-63 -22t-62.5 22t-24.5 59z" />
    <glyph glyph-name="j" unicode="j" horiz-adv-x="283" 
d="M234 405v-386q0 -99 -62 -160t-158 -61q-71 0 -109.5 26t-38.5 71q0 31 19 48.5t54 17.5q37 0 54.5 -21.5t22.5 -84.5q1 -18 4 -23.5t11 -5.5q31 0 31 71v517q0 31 -5.5 41t-30.5 26l-30 20v9l235 25l7 -5q-4 -80 -4 -125zM56 663q0 36 25 58.5t62 22.5q38 0 63 -22.5
t25 -58.5q0 -37 -25 -59t-63 -22t-62.5 22t-24.5 59z" />
    <glyph glyph-name="k" unicode="k" horiz-adv-x="593" 
d="M392 0q-87 114 -144 245v10l109 120q51 58 51 86q0 29 -46 41l-15 5v15h224v-16l-11 -3q-47 -11 -93 -58l-95 -95q37 -76 92 -166.5t91 -135.5q20 -26 38 -30l9 -3v-15h-210zM236 630v-551q0 -36 5 -44t30 -15l17 -5v-15h-286v15l20 6q29 7 35 15.5t6 42.5v558
q0 38 -5 48.5t-29 23.5l-32 15v11l235 22l8 -5q-4 -55 -4 -122z" />
    <glyph glyph-name="l" unicode="l" horiz-adv-x="303" 
d="M238 630v-551q0 -33 7 -41.5t37 -16.5l20 -6v-15h-300v15l20 6q31 8 37 16.5t6 41.5v557q0 38 -5.5 49t-30.5 24l-32 15v11l237 22l8 -5q-4 -55 -4 -122z" />
    <glyph glyph-name="m" unicode="m" horiz-adv-x="917" 
d="M2 0v15l21 6q28 7 34 15.5t6 42.5v334q0 31 -5 40.5t-28 26.5l-31 21v9l226 25l8 -5l-1 -72h3q97 78 186 78q91 0 116 -79h3q100 79 189 79q58 0 91.5 -34.5t33.5 -99.5v-323q0 -34 6 -42t36 -16l21 -6v-15h-286v15l18 5q23 7 28 15t5 44v291q0 43 -13.5 59t-46.5 16
q-44 0 -79 -11q2 -16 2 -42v-313q0 -35 4.5 -43t28.5 -16l16 -5v-15h-272v15l18 5q24 7 28.5 15t4.5 44v291q0 43 -13 59t-45 16q-41 0 -79 -12v-354q0 -36 4.5 -44t28.5 -15l18 -5v-15h-285z" />
    <glyph glyph-name="n" unicode="n" horiz-adv-x="620" 
d="M2 0v15l21 6q28 7 34 15.5t6 41.5v335q0 32 -5 41.5t-28 25.5l-31 21v9l226 25l8 -5l-1 -72h3q106 78 192 78q62 0 96 -34t34 -100v-324q0 -33 6 -41t35 -16l21 -6v-15h-290v15l19 5q26 6 31 14.5t5 43.5v291q0 42 -15.5 59t-48.5 17q-44 0 -84 -12v-355q0 -35 5.5 -43.5
t30.5 -14.5l19 -5v-15h-289z" />
    <glyph glyph-name="o" unicode="o" horiz-adv-x="583" 
d="M291 -12q-117 0 -196.5 70.5t-79.5 201.5q0 93 41.5 157.5t102 91.5t132.5 27q117 0 196.5 -70t79.5 -202q0 -70 -23 -124.5t-62.5 -87t-88 -48.5t-102.5 -16zM294 15q34 0 53 17t30 70.5t11 152.5q0 104 -13 161.5t-32.5 75t-53.5 17.5q-31 0 -50.5 -18t-31.5 -71.5
t-12 -146.5q0 -107 11 -164t31 -75.5t57 -18.5z" />
    <glyph glyph-name="p" unicode="p" horiz-adv-x="618" 
d="M1 -199v16l21 5q28 8 34 16.5t6 41.5v533q0 32 -5 41.5t-28 25.5l-30 21v9l226 25l7 -5v-67h4q81 73 167 73t140.5 -61t54.5 -185q0 -152 -79.5 -227t-211.5 -75q-35 0 -72 10v-118q0 -33 6 -41.5t33 -15.5l29 -6v-16h-302zM310 15q57 0 84 50.5t27 187.5
q0 109 -28.5 153t-83.5 44q-32 0 -74 -13v-385q28 -37 75 -37z" />
    <glyph glyph-name="q" unicode="q" horiz-adv-x="608" 
d="M314 -199v16l28 6q28 7 33.5 15t5.5 42v92l1 80h-3q-73 -63 -160 -63q-86 0 -142.5 61.5t-56.5 187.5q0 150 82 224t210 74q96 0 181 -47h3l49 44l9 -5v-648q0 -33 6 -41.5t35 -16.5l21 -5v-16h-302zM309 64q37 0 72 16v391q-25 38 -73 38q-111 0 -111 -231
q0 -119 27 -166.5t85 -47.5z" />
    <glyph glyph-name="r" unicode="r" horiz-adv-x="460" 
d="M2 0v15l21 6q28 7 34 15.5t6 42.5v335q0 31 -5 40.5t-28 25.5l-31 21v9l226 25l8 -5v-78h2q74 83 147 83q35 0 56 -20.5t21 -57.5q0 -38 -21 -60t-55 -22q-51 0 -72 49q-6 13 -10.5 17t-13.5 4q-27 0 -51 -21v-345q0 -34 6.5 -43.5t33.5 -14.5l27 -5v-16h-301z" />
    <glyph glyph-name="s" unicode="s" horiz-adv-x="430" 
d="M188 -12q-90 0 -163 21l-5 166h17q37 -69 69 -109q20 -28 41 -39t56 -11q36 0 58.5 20t22.5 54q0 33 -24 52.5t-100 49.5q-72 26 -106.5 65t-34.5 101q0 76 56 127t160 51q84 0 139 -21l6 -141h-15q-45 70 -62 89q-22 24 -40.5 34.5t-47.5 10.5q-35 0 -56 -18t-21 -48
q0 -32 22.5 -50.5t87.5 -42.5q90 -33 128 -73.5t38 -102.5q0 -83 -59 -134t-167 -51z" />
    <glyph glyph-name="t" unicode="t" horiz-adv-x="360" 
d="M199 -12q-76 0 -111.5 35t-35.5 111v339h-55v11q61 22 112 69.5t75 103.5h41v-135h125l-7 -49h-118v-338q0 -43 13.5 -57.5t52.5 -14.5q31 0 67 9v-15q-62 -69 -159 -69z" />
    <glyph glyph-name="u" unicode="u" horiz-adv-x="618" 
d="M382 91v320q0 33 -5 43.5t-28 25.5l-31 21v9l229 25l7 -5v-420q0 -38 5.5 -49t30.5 -20l25 -9v-12l-223 -32l-7 6v71h-3q-102 -77 -192 -77q-60 0 -94.5 34.5t-34.5 99.5v290q0 32 -5 41.5t-28 26.5l-30 21v9l228 25l8 -5v-369q0 -82 64 -82q34 0 84 12z" />
    <glyph glyph-name="v" unicode="v" horiz-adv-x="543" 
d="M237 0l-174 420q-19 46 -30 60.5t-30 20.5l-17 6v15h318v-15l-23 -7q-21 -6 -29 -14.5t-8 -25.5q0 -23 14 -57l89 -239h3l79 228q17 46 17 71t-37 37l-23 7v15h170v-15l-13 -5q-23 -8 -36 -25.5t-32 -67.5l-157 -409h-81z" />
    <glyph glyph-name="w" unicode="w" horiz-adv-x="828" 
d="M761 410l-150 -410h-76l-114 319h-2l-121 -319h-76l-162 421q-18 46 -29 60.5t-27 19.5l-18 6v15h292v-15l-14 -4q-30 -7 -30 -32q0 -17 16 -67l77 -236h3l73 198l-19 55q-17 47 -26.5 61.5t-27.5 19.5l-15 5v15h295v-15l-22 -6q-21 -6 -29 -15t-8 -26q0 -21 11 -56
l76 -236h4l77 235q13 38 13 61q0 28 -33 36l-27 7v15h170v-15l-14 -5q-24 -8 -36.5 -25t-30.5 -67z" />
    <glyph glyph-name="x" unicode="x" horiz-adv-x="566" 
d="M489 90q29 -43 39.5 -53.5t30.5 -17.5l13 -4v-15h-317v15l21 4q31 7 31 29q0 18 -24 56l-73 114h-3l-60 -99q-25 -42 -25 -67q0 -26 34 -33l19 -4v-15h-184v15l22 5q20 5 34 17.5t41 51.5l103 156l-120 186q-27 42 -39 54t-27 17l-14 5l1 15h316v-15l-20 -5
q-35 -8 -35 -31q0 -19 23 -54l67 -106h3l53 99q17 31 17 54q0 28 -37 38l-20 5v15h183v-15l-16 -5q-21 -6 -38 -23.5t-42 -58.5l-83 -137z" />
    <glyph glyph-name="y" unicode="y" horiz-adv-x="536" 
d="M345 180l80 216q17 46 17 65q0 31 -34 39l-26 7v15h167v-15l-18 -7q-17 -6 -28 -23.5t-32 -69.5l-187 -453q-35 -84 -73.5 -121.5t-103.5 -37.5q-41 0 -69.5 21t-28.5 56q0 29 18.5 46t52.5 17q59 0 67 -60q2 -16 5 -21.5t13 -5.5q18 0 41 27t45 82l9 22l-198 440
q-21 46 -33 61.5t-27 20.5l-16 6v15h313v-15l-26 -8q-33 -10 -33 -40q0 -15 15 -56l86 -223h4z" />
    <glyph glyph-name="z" unicode="z" horiz-adv-x="500" 
d="M14 0v36l279 450v4h-53q-53 0 -72 -6t-41 -31q-18 -20 -73 -115h-14l11 184h433v-34l-279 -452v-4h57q65 0 88.5 8t44.5 32q31 35 73 118h16l-18 -190h-452z" />
    <glyph glyph-name="braceleft" unicode="{" horiz-adv-x="333" 
d="M29 293v23q66 4 93 19.5t27 42.5q0 22 -26.5 117.5t-26.5 124.5q0 57 52 82t175 34v-15q-79 -11 -101.5 -26t-22.5 -56t12 -126t12 -107q0 -41 -30.5 -63.5t-110.5 -37.5v-2q81 -15 111 -38.5t30 -65.5q0 -21 -12 -105.5t-12 -125.5q0 -40 23.5 -56t100.5 -28v-15
q-126 11 -176.5 35.5t-50.5 82.5q0 29 26.5 124t26.5 116q0 57 -120 66z" />
    <glyph glyph-name="bar" unicode="|" horiz-adv-x="182" 
d="M75 -130v864h32v-864h-32z" />
    <glyph glyph-name="braceright" unicode="}" horiz-adv-x="334" 
d="M304 316v-23q-119 -9 -119 -66q0 -21 26 -116t26 -124q0 -58 -50 -82.5t-176 -35.5v15q76 12 99.5 28t23.5 56q0 41 -12 125.5t-12 105.5q0 42 30.5 65.5t111.5 38.5v2q-81 15 -111.5 37.5t-30.5 63.5q0 22 12 107t12 126t-22.5 56t-100.5 26v15q123 -9 174.5 -34
t51.5 -82q0 -29 -26 -124.5t-26 -117.5q0 -54 119 -62z" />
    <glyph glyph-name="asciitilde" unicode="~" horiz-adv-x="372" 
d="M30 210l-15 7q30 76 52 106t60 30q23 0 81 -13.5t77 -13.5q17 0 28.5 11.5t28.5 38.5l14 -7q-28 -75 -50.5 -105.5t-59.5 -30.5q-33 0 -88 13.5t-71 13.5q-17 0 -28.5 -11.5t-28.5 -38.5z" />
    <glyph glyph-name="uni00A0" unicode="&#xa0;" horiz-adv-x="187" 
 />
    <glyph glyph-name="exclamdown" unicode="&#xa1;" horiz-adv-x="274" 
d="M42 51l85 339h20l85 -339q21 -72 -6.5 -109.5t-87.5 -37.5q-61 0 -89 37.5t-7 109.5zM50 528q0 36 26 61t61 25q36 0 61.5 -25t25.5 -61q0 -38 -25 -62t-62 -24q-35 0 -61 24.5t-26 61.5z" />
    <glyph glyph-name="cent" unicode="&#xa2;" horiz-adv-x="493" 
d="M267 -12q-121 0 -188 70t-67 191q0 127 75 198.5t183 84.5v64h30v-62q5 1 17 1q80 0 123.5 -26t43.5 -74q0 -65 -67 -65q-40 0 -56.5 19t-21.5 68q-4 26 -11.5 37t-27.5 12v-432q28 -4 47 -4q63 0 131 36v-17q-22 -31 -69.5 -61.5t-108.5 -37.5v-95h-30v93h-3zM186 300
q0 -93 18 -145t66 -72v420q-84 -19 -84 -203z" />
    <glyph glyph-name="sterling" unicode="&#xa3;" horiz-adv-x="536" 
d="M27 350v30h57q-25 83 -25 126q0 93 73.5 146t199.5 53q102 0 151 -31.5t49 -82.5q0 -30 -20 -46.5t-53 -16.5q-46 0 -64.5 22.5t-23.5 82.5q-3 29 -10.5 37t-27.5 8q-75 0 -75 -127q0 -21 1.5 -49.5t4 -64.5t3.5 -57h144v-30h-143v-14q0 -73 -37 -116.5t-117 -78.5v-3
h303q30 0 45 14t34 65h18l-17 -217h-485v90q56 34 81 64.5t25 80.5q0 37 -24 115h-67z" />
    <glyph glyph-name="yen" unicode="&#xa5;" horiz-adv-x="638" 
d="M61 315v29h160l-136 247q-27 49 -37.5 62t-29.5 19l-19 6v15h362v-15l-28 -7q-25 -7 -34.5 -16t-9.5 -26q0 -20 17 -55l100 -202h3l82 191q16 39 16 64q0 31 -42 44l-26 7v15h186v-15l-14 -5q-22 -7 -36.5 -27.5t-43.5 -85.5l-99 -216h163v-29h-168v-70h168v-30h-168
v-117q0 -46 8 -57t41 -19l33 -7v-15h-361v15l32 7q34 8 41.5 19t7.5 57v117h-168v30h168v70h-168z" />
    <glyph glyph-name="brokenbar" unicode="&#xa6;" horiz-adv-x="182" 
d="M75 -130v387h32v-387h-32zM75 324v410h32v-410h-32z" />
    <glyph glyph-name="section" unicode="&#xa7;" horiz-adv-x="577" 
d="M438 60q26 -37 26 -82q0 -79 -60 -130.5t-141 -51.5q-83 0 -129 27t-46 73q0 26 16.5 41.5t47.5 15.5q36 0 53.5 -20t21.5 -66q2 -25 12 -34.5t36 -9.5q33 0 54.5 17t21.5 48q0 38 -29.5 66t-138.5 104q-95 67 -129.5 110t-34.5 101q0 101 125 163q-31 48 -31 92
q0 79 57.5 128.5t144.5 49.5q81 0 125.5 -27t44.5 -72q0 -25 -16.5 -40.5t-48.5 -15.5q-36 0 -51.5 19t-20.5 65q-4 25 -14 34.5t-33 9.5q-36 0 -57.5 -17.5t-21.5 -50.5q0 -37 28 -63t141 -103q102 -69 134.5 -113.5t32.5 -105.5q0 -95 -120 -162zM418 83q32 26 32 61
q0 30 -28.5 61.5t-118.5 92.5q-111 76 -143 115q-33 -30 -33 -62q0 -29 29.5 -59t114.5 -90q110 -79 147 -119z" />
    <glyph glyph-name="dieresis" unicode="&#xa8;" 
d="M59 652q0 36 23 57t57 21q36 0 59 -21t23 -57t-23 -57t-59 -21q-34 0 -57 21t-23 57zM259 652q0 36 23.5 57t57.5 21q35 0 58.5 -21t23.5 -57t-23.5 -57t-58.5 -21q-34 0 -57.5 21t-23.5 57z" />
    <glyph glyph-name="copyright" unicode="&#xa9;" horiz-adv-x="769" 
d="M391 133q-95 0 -154.5 55.5t-59.5 157.5q0 109 65 164.5t160 55.5q72 0 116 -14l7 -127h-20q-32 63 -49 84q-21 31 -60 31q-48 0 -65 -40.5t-17 -140.5q0 -117 18 -158.5t66 -41.5q42 0 68 36q15 22 44 87h20l-8 -124q-56 -25 -131 -25zM28 344q0 149 103.5 253.5
t253.5 104.5t253 -104.5t103 -253.5q0 -150 -103 -254t-253 -104t-253.5 104t-103.5 254zM63 344q0 -136 92.5 -232.5t229.5 -96.5q136 0 229 96.5t93 232.5t-93 232.5t-229 96.5t-229 -96.5t-93 -232.5z" />
    <glyph glyph-name="ordfeminine" unicode="&#xaa;" horiz-adv-x="441" 
d="M125 275q-51 0 -80.5 26.5t-29.5 74.5q0 49 35 74t113 44l74 18v72q0 53 -10 71t-40 18q-16 0 -22 -7t-7 -25q-5 -45 -21 -62.5t-50 -17.5q-25 0 -40 14.5t-15 36.5q0 39 44 63.5t137 24.5q81 0 123 -25t42 -84v-219q0 -41 18 -49q9 -5 37 -8v-11q-42 -29 -102 -29
q-75 0 -89 48h-3q-39 -48 -114 -48zM197 330q27 0 40 18v134l-28 -2q-56 -6 -56 -79q0 -40 11 -55.5t33 -15.5z" />
    <glyph glyph-name="guillemotleft" unicode="&#xab;" horiz-adv-x="398" 
d="M194 48l-175 201v7l175 201h19l-87 -203l87 -206h-19zM353 48l-175 201v7l175 201h19l-87 -203l87 -206h-19z" />
    <glyph glyph-name="registered" unicode="&#xae;" horiz-adv-x="375" 
d="M11 522q0 75 50.5 126.5t125.5 51.5t126 -51.5t51 -126.5q0 -74 -51 -126t-126 -52q-74 0 -125 52t-51 126zM35 522q0 -65 43.5 -110.5t108.5 -45.5q64 0 108.5 46t44.5 110t-44.5 110t-108.5 46q-65 0 -108.5 -45.5t-43.5 -110.5zM92 432v11l10 2q5 1 6.5 2.5t2.5 5
t1 12.5v120q0 12 -2 15.5t-8 5.5l-10 1v11h94q82 0 82 -49q0 -36 -34 -46v-1q14 -35 38 -69q8 -8 13 -9l6 -1v-11h-67q-20 27 -40 78h-16v-45q0 -12 2 -15t8 -5l10 -2v-11h-96zM168 525q4 -1 13 -1q17 0 24.5 9t7.5 31q0 23 -6 31t-23 8q-15 0 -16 -1v-77z" />
    <glyph glyph-name="macron" unicode="&#xaf;" 
d="M104 612v62h272v-62h-272z" />
    <glyph glyph-name="degree" unicode="&#xb0;" horiz-adv-x="268" 
d="M19 589q0 49 32.5 82t82.5 33t82.5 -33t32.5 -82t-32.5 -82t-82.5 -33t-82.5 33t-32.5 82zM50 589q0 -38 23.5 -63t60.5 -25t60.5 25t23.5 63t-23.5 62.5t-60.5 24.5t-60.5 -24.5t-23.5 -62.5z" />
    <glyph glyph-name="twosuperior" unicode="&#xb2;" horiz-adv-x="328" 
d="M8 309v59q71 54 106 91q66 75 66 145t-38 70q-13 0 -17 -6t-6 -26q-4 -35 -17.5 -49.5t-44.5 -14.5q-22 0 -35 13t-13 34q0 34 40 54.5t109 20.5q72 0 114.5 -29.5t42.5 -83.5q0 -46 -51 -89t-173 -91v-3h154q19 0 27.5 9t21.5 40h17l-8 -144h-295z" />
    <glyph glyph-name="threesuperior" unicode="&#xb3;" horiz-adv-x="340" 
d="M142 302q-64 0 -99.5 20.5t-35.5 55.5q0 19 13.5 30t35.5 11q27 0 39.5 -14.5t15.5 -50.5q2 -17 7 -22t20 -5q23 0 36.5 21t13.5 61q0 46 -17.5 66.5t-55.5 20.5h-26v28h24q67 0 67 80q0 71 -36 71q-12 0 -16.5 -4.5t-7.5 -20.5q-6 -32 -17.5 -46t-37.5 -14q-45 0 -45 41
q0 30 33.5 49.5t98.5 19.5q69 0 111.5 -23.5t42.5 -71.5q0 -34 -27.5 -56.5t-80.5 -29.5v-3q64 -7 94 -31t30 -71q0 -49 -46 -80.5t-134 -31.5z" />
    <glyph glyph-name="acute" unicode="&#xb4;" 
d="M132 575l-4 10l118 123q27 28 58 28q25 0 43.5 -20.5t18.5 -48.5q0 -21 -13 -38t-38 -21z" />
    <glyph glyph-name="paragraph" unicode="&#xb6;" horiz-adv-x="492" 
d="M258 -100v429q-18 -2 -36 -2q-103 0 -154.5 52t-51.5 135q0 79 50.5 129t142.5 50h276v-16l-29 -7q-29 -7 -36 -18t-7 -58v-694h-39v759h-78v-759h-38z" />
    <glyph glyph-name="periodcentered" unicode="&#xb7;" horiz-adv-x="219" 
d="M22 336q0 37 25.5 61.5t61.5 24.5q35 0 61.5 -24.5t26.5 -61.5q0 -36 -26.5 -61.5t-61.5 -25.5q-36 0 -61.5 25t-25.5 62z" />
    <glyph glyph-name="cedilla" unicode="&#xb8;" 
d="M152 -201v13q84 21 84 60q0 24 -40 27l-4 4l47 97h34l-29 -42q84 -8 84 -64q0 -39 -51.5 -63.5t-124.5 -31.5z" />
    <glyph glyph-name="onesuperior" unicode="&#xb9;" horiz-adv-x="248" 
d="M6 309v16l18 5q19 6 23.5 12.5t4.5 35.5v208l-45 11v15q50 8 97.5 32t72.5 54l19 -5v-315q0 -28 5.5 -36t23.5 -12l18 -5v-16h-237z" />
    <glyph glyph-name="ordmasculine" unicode="&#xba;" horiz-adv-x="469" 
d="M234 277q-89 0 -154 54.5t-65 156.5q0 72 34 122t81.5 70.5t103.5 20.5q90 0 155.5 -54.5t65.5 -155.5q0 -106 -65.5 -160t-155.5 -54zM236 300q23 0 37 12.5t23.5 54.5t9.5 118q0 80 -8.5 123t-23 56.5t-41.5 13.5q-36 0 -52.5 -38t-16.5 -138q0 -84 7.5 -127.5t22 -59
t42.5 -15.5z" />
    <glyph glyph-name="guillemotright" unicode="&#xbb;" horiz-adv-x="398" 
d="M379 249l-175 -201h-19l87 203l-87 206h19l175 -201v-7zM220 249l-175 -201h-19l87 203l-87 206h19l175 -201v-7z" />
    <glyph glyph-name="onequarter" unicode="&#xbc;" horiz-adv-x="728" 
d="M482 0v16l18 5q21 5 25.5 12t4.5 36v38h-156v30l199 247h93v-235h57l-4 -42h-53v-38q0 -30 4.5 -37t24.5 -11l20 -5v-16h-233zM420 149h110v138h-2l-108 -136v-2zM6 309v16l18 5q19 6 23.5 12.5t4.5 35.5v208l-45 11v15q50 8 97.5 32t72.5 54l19 -5v-315q0 -28 5.5 -36
t23.5 -12l18 -5v-16h-237zM72 -50l527 764h39l-526 -764h-40z" />
    <glyph glyph-name="onehalf" unicode="&#xbd;" horiz-adv-x="744" 
d="M424 0v59q71 54 106 91q66 75 66 145t-38 70q-13 0 -17 -6.5t-6 -25.5q-4 -35 -17.5 -49.5t-44.5 -14.5q-22 0 -35 13t-13 34q0 34 40 54.5t109 20.5q72 0 114.5 -29.5t42.5 -83.5q0 -46 -51 -89t-173 -91v-3h154q19 0 27.5 9t21.5 40h17l-8 -144h-295zM6 309v16l18 5
q19 6 23.5 12.5t4.5 35.5v208l-45 11v15q50 8 97.5 32t72.5 54l19 -5v-315q0 -28 5.5 -36t23.5 -12l18 -5v-16h-237zM62 -50l527 764h39l-526 -764h-40z" />
    <glyph glyph-name="threequarters" unicode="&#xbe;" horiz-adv-x="744" 
d="M498 0v16l18 5q21 5 25.5 12t4.5 36v38h-156v30l199 247h93v-235h57l-4 -42h-53v-38q0 -30 4.5 -37t24.5 -11l20 -5v-16h-233zM436 149h110v138h-2l-108 -136v-2zM93 -50l527 764h39l-526 -764h-40zM142 302q-64 0 -99.5 20.5t-35.5 55.5q0 19 13.5 30t35.5 11
q27 0 39.5 -14.5t15.5 -50.5q2 -17 7 -22t20 -5q23 0 36.5 21t13.5 61q0 46 -17.5 66.5t-55.5 20.5h-26v28h24q67 0 67 80q0 71 -36 71q-12 0 -16.5 -4.5t-7.5 -20.5q-6 -32 -17.5 -46t-37.5 -14q-45 0 -45 41q0 30 33.5 49.5t98.5 19.5q69 0 111.5 -23.5t42.5 -71.5
q0 -34 -27.5 -56.5t-80.5 -29.5v-3q64 -7 94 -31t30 -71q0 -49 -46 -80.5t-134 -31.5z" />
    <glyph glyph-name="questiondown" unicode="&#xbf;" horiz-adv-x="455" 
d="M314 397v-190q-68 -21 -105 -56.5t-37 -104.5q0 -53 21.5 -80t59.5 -27q16 0 22 9.5t9 36.5q5 51 24.5 71t63.5 20q33 0 50.5 -17.5t17.5 -45.5q0 -48 -53 -75.5t-142 -27.5q-104 0 -162.5 49t-58.5 138t64.5 150t190.5 88v62h35zM375 535q0 -37 -25.5 -61.5t-61.5 -24.5
q-35 0 -61 24.5t-26 61.5q0 35 26.5 60.5t60.5 25.5q36 0 61.5 -25t25.5 -61z" />
    <glyph glyph-name="Agrave" unicode="&#xc0;" horiz-adv-x="679" 
d="M-7 0v15l14 5q26 8 39 26.5t39 91.5l202 555h102l203 -557q24 -68 36 -88.5t34 -27.5l18 -5v-15h-359v15l27 7q38 9 38 44q0 31 -19 84l-25 78h-186l-25 -73q-20 -58 -20 -86q0 -18 10.5 -28.5t38.5 -18.5l25 -7v-15h-192zM252 509l-85 -249h165l-77 249h-3zM449 732
l-4 -9l-182 29q-56 8 -56 60q0 28 18 47.5t45 19.5q29 0 55 -26z" />
    <glyph glyph-name="Aacute" unicode="&#xc1;" horiz-adv-x="679" 
d="M-7 0v15l14 5q26 8 39 26.5t39 91.5l202 555h102l203 -557q24 -68 36 -88.5t34 -27.5l18 -5v-15h-359v15l27 7q38 9 38 44q0 31 -19 84l-25 78h-186l-25 -73q-20 -58 -20 -86q0 -18 10.5 -28.5t38.5 -18.5l25 -7v-15h-192zM252 509l-85 -249h165l-77 249h-3zM231 724
l-4 10l124 120q25 26 55 26q27 0 45 -19.5t18 -47.5q0 -51 -56 -60z" />
    <glyph glyph-name="Acircumflex" unicode="&#xc2;" horiz-adv-x="679" 
d="M-7 0v15l14 5q26 8 39 26.5t39 91.5l202 555h102l203 -557q24 -68 36 -88.5t34 -27.5l18 -5v-15h-359v15l27 7q38 9 38 44q0 31 -19 84l-25 78h-186l-25 -73q-20 -58 -20 -86q0 -18 10.5 -28.5t38.5 -18.5l25 -7v-15h-192zM183 723l-5 9l131 142h56l132 -142l-6 -9
l-154 46zM252 509l-85 -249h165l-77 249h-3z" />
    <glyph glyph-name="Atilde" unicode="&#xc3;" horiz-adv-x="679" 
d="M-7 0v15l14 5q26 8 39 26.5t39 91.5l202 555h102l203 -557q24 -68 36 -88.5t34 -27.5l18 -5v-15h-359v15l27 7q38 9 38 44q0 31 -19 84l-25 78h-186l-25 -73q-20 -58 -20 -86q0 -18 10.5 -28.5t38.5 -18.5l25 -7v-15h-192zM416 743q-20 0 -82.5 10t-84.5 10
q-19 0 -31.5 -9t-27.5 -33l-13 7q23 70 45.5 102.5t57.5 32.5q21 0 82.5 -10.5t83.5 -10.5q33 0 60 43l13 -7q-23 -72 -44 -103.5t-59 -31.5zM252 509l-85 -249h165l-77 249h-3z" />
    <glyph glyph-name="Adieresis" unicode="&#xc4;" horiz-adv-x="679" 
d="M-7 0v15l14 5q26 8 39 26.5t39 91.5l202 555h102l203 -557q24 -68 36 -88.5t34 -27.5l18 -5v-15h-359v15l27 7q38 9 38 44q0 31 -19 84l-25 78h-186l-25 -73q-20 -58 -20 -86q0 -18 10.5 -28.5t38.5 -18.5l25 -7v-15h-192zM252 509l-85 -249h165l-77 249h-3zM233 722
q-34 0 -57 21t-23 57t23 57t57 21q36 0 59 -21t23 -57t-23 -57t-59 -21zM442 722q-34 0 -57 21t-23 57t23 57t57 21q36 0 59 -21t23 -57t-23 -57t-59 -21z" />
    <glyph glyph-name="Aring" unicode="&#xc5;" horiz-adv-x="679" 
d="M-7 0v15l14 5q26 8 39 26.5t39 91.5l202 555h102l203 -557q24 -68 36 -88.5t34 -27.5l18 -5v-15h-359v15l27 7q38 9 38 44q0 31 -19 84l-25 78h-186l-25 -73q-20 -58 -20 -86q0 -18 10.5 -28.5t38.5 -18.5l25 -7v-15h-192zM245 807q0 38 27.5 63.5t64.5 25.5t64.5 -25.5
t27.5 -63.5t-27 -63t-65 -25t-65 25t-27 63zM252 509l-85 -249h165l-77 249h-3zM280 807q0 -27 15.5 -44t41.5 -17t41.5 17t15.5 44t-15.5 44.5t-41.5 17.5t-41.5 -17.5t-15.5 -44.5z" />
    <glyph glyph-name="AE" unicode="&#xc6;" horiz-adv-x="910" 
d="M895 251l-14 -251h-559v15l29 7q29 8 36 19t7 57v127h-195l-44 -86q-29 -60 -29 -82q0 -12 10 -19t36 -16l23 -7v-15h-206v15l23 7q30 9 46.5 27.5t50.5 80.5l275 513q-10 16 -49 27l-29 8v15h555l10 -213h-17q-34 78 -63 124q-21 35 -45.5 46.5t-75.5 11.5q-53 0 -81 -7
v-281h32q51 0 67.5 6t26.5 25q18 34 31 87h16v-270h-16q-12 53 -31 91q-9 19 -26.5 25t-68.5 6h-31v-242q0 -46 14 -58.5t72 -12.5q59 0 81 11.5t47 51.5q37 60 74 157h18zM392 599l-177 -343h179v342v1h-2z" />
    <glyph glyph-name="Ccedilla" unicode="&#xc7;" horiz-adv-x="623" 
d="M219 -201v13q84 21 84 60q0 24 -40 27l-4 4l43 89q-131 17 -206 106.5t-75 242.5q0 93 29.5 164.5t81 114t117 64t142.5 21.5q109 0 185 -24l15 -221h-17q-54 109 -90 159q-21 31 -43.5 44.5t-59.5 13.5q-152 0 -152 -316q0 -191 35 -268t110 -77q46 0 73 13.5t52 50.5
q25 34 82 159h17l-12 -212q-99 -39 -221 -39q-5 0 -16 0.5t-17 0.5l-21 -31q84 -8 84 -64q0 -39 -51.5 -63.5t-124.5 -31.5z" />
    <glyph glyph-name="Egrave" unicode="&#xc8;" horiz-adv-x="602" 
d="M415 732l-4 -9l-182 29q-56 8 -56 60q0 28 18 47.5t45 19.5q29 0 55 -26zM454 492v-270h-16q-11 47 -31 91q-9 19 -26.5 25t-68.5 6h-34v-242q0 -47 14 -59t75 -12q58 0 80 11.5t47 51.5q34 53 75 157h18l-14 -251h-566v15l30 7q28 8 35 19t7 57v497q0 46 -7 57t-35 19
l-30 7v15h546l9 -213h-17q-36 83 -62 124q-21 35 -45.5 46.5t-75.5 11.5q-58 0 -84 -7v-281h35q51 0 67.5 6.5t26.5 24.5q18 34 31 87h16z" />
    <glyph glyph-name="Eacute" unicode="&#xc9;" horiz-adv-x="602" 
d="M220 724l-4 10l124 120q25 26 55 26q27 0 45 -19.5t18 -47.5q0 -51 -56 -60zM454 492v-270h-16q-11 47 -31 91q-9 19 -26.5 25t-68.5 6h-34v-242q0 -47 14 -59t75 -12q58 0 80 11.5t47 51.5q34 53 75 157h18l-14 -251h-566v15l30 7q28 8 35 19t7 57v497q0 46 -7 57
t-35 19l-30 7v15h546l9 -213h-17q-36 83 -62 124q-21 35 -45.5 46.5t-75.5 11.5q-58 0 -84 -7v-281h35q51 0 67.5 6.5t26.5 24.5q18 34 31 87h16z" />
    <glyph glyph-name="Ecircumflex" unicode="&#xca;" horiz-adv-x="602" 
d="M164 723l-5 9l131 142h56l132 -142l-6 -9l-154 46zM454 492v-270h-16q-11 47 -31 91q-9 19 -26.5 25t-68.5 6h-34v-242q0 -47 14 -59t75 -12q58 0 80 11.5t47 51.5q34 53 75 157h18l-14 -251h-566v15l30 7q28 8 35 19t7 57v497q0 46 -7 57t-35 19l-30 7v15h546l9 -213
h-17q-36 83 -62 124q-21 35 -45.5 46.5t-75.5 11.5q-58 0 -84 -7v-281h35q51 0 67.5 6.5t26.5 24.5q18 34 31 87h16z" />
    <glyph glyph-name="Edieresis" unicode="&#xcb;" horiz-adv-x="602" 
d="M454 492v-270h-16q-11 47 -31 91q-9 19 -26.5 25t-68.5 6h-34v-242q0 -47 14 -59t75 -12q58 0 80 11.5t47 51.5q34 53 75 157h18l-14 -251h-566v15l30 7q28 8 35 19t7 57v497q0 46 -7 57t-35 19l-30 7v15h546l9 -213h-17q-36 83 -62 124q-21 35 -45.5 46.5t-75.5 11.5
q-58 0 -84 -7v-281h35q51 0 67.5 6.5t26.5 24.5q18 34 31 87h16zM209 722q-34 0 -57 21t-23 57t23 57t57 21q36 0 59 -21t23 -57t-23 -57t-59 -21zM418 722q-34 0 -57 21t-23 57t23 57t57 21q36 0 59 -21t23 -57t-23 -57t-59 -21z" />
    <glyph glyph-name="Igrave" unicode="&#xcc;" horiz-adv-x="362" 
d="M7 0v15l32 7q29 7 36 18.5t7 57.5v497q0 46 -7 57.5t-36 18.5l-32 7v15h348v-15l-32 -7q-29 -7 -36 -18t-7 -58v-497q0 -47 7 -58t36 -18l32 -7v-15h-348zM292 732l-4 -9l-182 29q-56 8 -56 60q0 28 18 47.5t45 19.5q29 0 55 -26z" />
    <glyph glyph-name="Iacute" unicode="&#xcd;" horiz-adv-x="362" 
d="M7 0v15l32 7q29 7 36 18.5t7 57.5v497q0 46 -7 57.5t-36 18.5l-32 7v15h348v-15l-32 -7q-29 -7 -36 -18t-7 -58v-497q0 -47 7 -58t36 -18l32 -7v-15h-348zM80 724l-4 10l124 120q25 26 55 26q27 0 45 -19.5t18 -47.5q0 -51 -56 -60z" />
    <glyph glyph-name="Icircumflex" unicode="&#xce;" horiz-adv-x="362" 
d="M7 0v15l32 7q29 7 36 18.5t7 57.5v497q0 46 -7 57.5t-36 18.5l-32 7v15h348v-15l-32 -7q-29 -7 -36 -18t-7 -58v-497q0 -47 7 -58t36 -18l32 -7v-15h-348zM29 723l-5 9l131 142h56l132 -142l-6 -9l-154 46z" />
    <glyph glyph-name="Idieresis" unicode="&#xcf;" horiz-adv-x="362" 
d="M7 0v15l32 7q29 7 36 18.5t7 57.5v497q0 46 -7 57.5t-36 18.5l-32 7v15h348v-15l-32 -7q-29 -7 -36 -18t-7 -58v-497q0 -47 7 -58t36 -18l32 -7v-15h-348zM76 722q-34 0 -57 21t-23 57t23 57t57 21q36 0 59 -21t23 -57t-23 -57t-59 -21zM285 722q-34 0 -57 21t-23 57
t23 57t57 21q36 0 59 -21t23 -57t-23 -57t-59 -21z" />
    <glyph glyph-name="Eth" unicode="&#xd0;" horiz-adv-x="728" 
d="M19 333v29h60v233q0 46 -7 57t-35 19l-30 7v15h351q166 0 257.5 -82.5t91.5 -250.5q0 -169 -94.5 -264.5t-258.5 -95.5h-347v15l30 7q28 8 35 19t7 57v235h-60zM342 33q81 0 119.5 75t38.5 228q0 124 -18.5 196.5t-52.5 100t-89 27.5q-34 0 -62 -7v-291h128v-29h-128
v-235q0 -40 13 -52.5t51 -12.5z" />
    <glyph glyph-name="Ntilde" unicode="&#xd1;" horiz-adv-x="670" 
d="M435 743q-20 0 -82.5 10t-84.5 10q-20 0 -32 -9t-27 -33l-13 7q23 70 45.5 102.5t57.5 32.5q21 0 82.5 -10.5t83.5 -10.5q33 0 60 43l13 -7q-23 -72 -44 -103.5t-59 -31.5zM534 -1l-415 585h-3v-461q0 -59 8 -75.5t41 -24.5l33 -8v-15h-191v15l30 8q27 8 34.5 24.5
t7.5 70.5v477q0 39 -8.5 54t-34.5 22l-29 7v15h268l276 -384h3v261q0 59 -7.5 75t-40.5 24l-36 9v15h193v-15l-30 -8q-27 -7 -34.5 -23.5t-7.5 -71.5v-576h-57z" />
    <glyph glyph-name="Ograve" unicode="&#xd2;" horiz-adv-x="727" 
d="M482 732l-4 -9l-182 29q-56 8 -56 60q0 28 18 47.5t45 19.5q29 0 55 -26zM361 -12q-67 0 -127 21t-108 62.5t-76.5 110t-28.5 156.5q0 95 31 168.5t82.5 115t110.5 62.5t122 21q54 0 102.5 -12t92.5 -38.5t75.5 -66.5t50.5 -100t19 -134q0 -77 -21 -140t-55 -104.5
t-79.5 -69.5t-93 -40t-97.5 -12zM364 16q72 0 104 69.5t32 246.5q0 192 -32 268.5t-105 76.5q-70 0 -103 -71t-33 -246q0 -193 32 -268.5t105 -75.5z" />
    <glyph glyph-name="Oacute" unicode="&#xd3;" horiz-adv-x="727" 
d="M257 724l-4 10l124 120q25 26 55 26q27 0 45 -19.5t18 -47.5q0 -51 -56 -60zM361 -12q-67 0 -127 21t-108 62.5t-76.5 110t-28.5 156.5q0 95 31 168.5t82.5 115t110.5 62.5t122 21q54 0 102.5 -12t92.5 -38.5t75.5 -66.5t50.5 -100t19 -134q0 -77 -21 -140t-55 -104.5
t-79.5 -69.5t-93 -40t-97.5 -12zM364 16q72 0 104 69.5t32 246.5q0 192 -32 268.5t-105 76.5q-70 0 -103 -71t-33 -246q0 -193 32 -268.5t105 -75.5z" />
    <glyph glyph-name="Ocircumflex" unicode="&#xd4;" horiz-adv-x="727" 
d="M209 723l-5 9l131 142h56l132 -142l-6 -9l-154 46zM361 -12q-67 0 -127 21t-108 62.5t-76.5 110t-28.5 156.5q0 95 31 168.5t82.5 115t110.5 62.5t122 21q54 0 102.5 -12t92.5 -38.5t75.5 -66.5t50.5 -100t19 -134q0 -77 -21 -140t-55 -104.5t-79.5 -69.5t-93 -40
t-97.5 -12zM364 16q72 0 104 69.5t32 246.5q0 192 -32 268.5t-105 76.5q-70 0 -103 -71t-33 -246q0 -193 32 -268.5t105 -75.5z" />
    <glyph glyph-name="Otilde" unicode="&#xd5;" horiz-adv-x="727" 
d="M436 743q-20 0 -82.5 10t-84.5 10q-19 0 -31.5 -9t-27.5 -33l-13 7q23 70 45.5 102.5t57.5 32.5q21 0 82.5 -10.5t83.5 -10.5q33 0 60 43l13 -7q-23 -72 -44 -103.5t-59 -31.5zM361 -12q-67 0 -127 21t-108 62.5t-76.5 110t-28.5 156.5q0 95 31 168.5t82.5 115
t110.5 62.5t122 21q54 0 102.5 -12t92.5 -38.5t75.5 -66.5t50.5 -100t19 -134q0 -77 -21 -140t-55 -104.5t-79.5 -69.5t-93 -40t-97.5 -12zM364 16q72 0 104 69.5t32 246.5q0 192 -32 268.5t-105 76.5q-70 0 -103 -71t-33 -246q0 -193 32 -268.5t105 -75.5z" />
    <glyph glyph-name="Odieresis" unicode="&#xd6;" horiz-adv-x="727" 
d="M258 722q-34 0 -57 21t-23 57t23 57t57 21q36 0 59 -21t23 -57t-23 -57t-59 -21zM467 722q-34 0 -57 21t-23 57t23 57t57 21q36 0 59 -21t23 -57t-23 -57t-59 -21zM361 -12q-67 0 -127 21t-108 62.5t-76.5 110t-28.5 156.5q0 95 31 168.5t82.5 115t110.5 62.5t122 21
q54 0 102.5 -12t92.5 -38.5t75.5 -66.5t50.5 -100t19 -134q0 -77 -21 -140t-55 -104.5t-79.5 -69.5t-93 -40t-97.5 -12zM364 16q72 0 104 69.5t32 246.5q0 192 -32 268.5t-105 76.5q-70 0 -103 -71t-33 -246q0 -193 32 -268.5t105 -75.5z" />
    <glyph glyph-name="multiply" unicode="&#xd7;" horiz-adv-x="447" 
d="M372 522l23 -23l-149 -157l149 -156l-22 -23l-149 156l-149 -156l-23 23l149 156l-148 157l22 23l148 -157z" />
    <glyph glyph-name="Oslash" unicode="&#xd8;" horiz-adv-x="727" 
d="M361 -12q-111 0 -195 53l-67 -94h-36l79 111q-121 96 -121 280q0 95 31 168.5t82.5 115t110.5 62.5t122 21q113 0 197 -52l54 77h37l-67 -94q119 -92 119 -282q0 -77 -21 -140t-55 -104.5t-79.5 -69.5t-93 -40t-97.5 -12zM223 360q0 -108 10 -174l254 358
q-16 71 -46.5 102t-77.5 31q-70 0 -105 -71.5t-35 -245.5zM364 16q73 0 106.5 70.5t33.5 245.5q0 105 -10 171l-254 -357q16 -70 46.5 -100t77.5 -30z" />
    <glyph glyph-name="Ugrave" unicode="&#xd9;" horiz-adv-x="688" 
d="M514 732l-4 -9l-182 29q-56 8 -56 60q0 28 18 47.5t45 19.5q29 0 55 -26zM371 -12q-143 0 -218.5 53.5t-75.5 178.5v375q0 46 -7 57t-37 19l-29 7v15h344v-15l-30 -7q-29 -8 -36.5 -19t-7.5 -57v-392q0 -82 37.5 -120.5t118.5 -38.5q77 0 111 43t34 126v357q0 58 -8 75
t-41 24l-36 9v15h194v-15l-31 -8q-25 -6 -33 -24t-8 -71v-370q0 -99 -59 -158t-182 -59z" />
    <glyph glyph-name="Uacute" unicode="&#xda;" horiz-adv-x="688" 
d="M305 724l-4 10l124 120q25 26 55 26q27 0 45 -19.5t18 -47.5q0 -51 -56 -60zM371 -12q-143 0 -218.5 53.5t-75.5 178.5v375q0 46 -7 57t-37 19l-29 7v15h344v-15l-30 -7q-29 -8 -36.5 -19t-7.5 -57v-392q0 -82 37.5 -120.5t118.5 -38.5q77 0 111 43t34 126v357
q0 58 -8 75t-41 24l-36 9v15h194v-15l-31 -8q-25 -6 -33 -24t-8 -71v-370q0 -99 -59 -158t-182 -59z" />
    <glyph glyph-name="Ucircumflex" unicode="&#xdb;" horiz-adv-x="688" 
d="M243 723l-5 9l131 142h56l132 -142l-6 -9l-154 46zM371 -12q-143 0 -218.5 53.5t-75.5 178.5v375q0 46 -7 57t-37 19l-29 7v15h344v-15l-30 -7q-29 -8 -36.5 -19t-7.5 -57v-392q0 -82 37.5 -120.5t118.5 -38.5q77 0 111 43t34 126v357q0 58 -8 75t-41 24l-36 9v15h194
v-15l-31 -8q-25 -6 -33 -24t-8 -71v-370q0 -99 -59 -158t-182 -59z" />
    <glyph glyph-name="Udieresis" unicode="&#xdc;" horiz-adv-x="688" 
d="M371 -12q-143 0 -218.5 53.5t-75.5 178.5v375q0 46 -7 57t-37 19l-29 7v15h344v-15l-30 -7q-29 -8 -36.5 -19t-7.5 -57v-392q0 -82 37.5 -120.5t118.5 -38.5q77 0 111 43t34 126v357q0 58 -8 75t-41 24l-36 9v15h194v-15l-31 -8q-25 -6 -33 -24t-8 -71v-370
q0 -99 -59 -158t-182 -59zM279 722q-34 0 -57 21t-23 57t23 57t57 21q36 0 59 -21t23 -57t-23 -57t-59 -21zM488 722q-34 0 -57 21t-23 57t23 57t57 21q36 0 59 -21t23 -57t-23 -57t-59 -21z" />
    <glyph glyph-name="Yacute" unicode="&#xdd;" horiz-adv-x="637" 
d="M154 0v15l32 7q34 8 41.5 19t7.5 57v198l-165 295q-28 50 -38 62.5t-28 18.5l-18 6v15h366v-15l-32 -7q-44 -10 -44 -42q0 -24 17 -55l120 -231h3l97 220q17 41 17 64q0 31 -42 44l-27 7v15h186v-15l-19 -7q-19 -6 -31.5 -23.5t-36.5 -70.5l-127 -276v-203q0 -46 8 -57
t41 -19l33 -7v-15h-361zM282 724l-4 10l124 120q25 26 55 26q27 0 45 -19.5t18 -47.5q0 -51 -56 -60z" />
    <glyph glyph-name="Thorn" unicode="&#xde;" horiz-adv-x="643" 
d="M7 693h346v-15l-31 -7q-30 -6 -37 -17.5t-7 -58.5v-39h68q145 0 216 -46.5t71 -146.5q0 -88 -64 -147.5t-190 -59.5q-52 0 -78 8v20q79 3 104.5 37.5t25.5 132.5q0 101 -21 135.5t-76 34.5q-30 0 -56 -6v-420q0 -45 7.5 -56.5t38.5 -16.5l51 -10v-15h-368v15l30 7
q28 8 35 19t7 57v497q0 46 -7 57t-35 19l-30 7v15z" />
    <glyph glyph-name="germandbls" unicode="&#xdf;" horiz-adv-x="653" 
d="M441 -10q-76 0 -115.5 24t-39.5 63q0 57 65 57q31 0 44.5 -16t20.5 -61q4 -24 10 -32t24 -8q30 0 48 16.5t18 43.5q0 34 -22.5 59t-80.5 65q-62 41 -82.5 70.5t-20.5 68.5q0 32 17 69.5t37 66.5t37 69t17 77q0 56 -16.5 83.5t-62.5 27.5q-50 0 -76.5 -32.5t-26.5 -109.5
v-520q0 -31 4.5 -38.5t24.5 -12.5l18 -5v-15h-281v15l21 6q28 7 34 15.5t6 41.5v395h-65v11l65 38v7q0 112 81.5 172t208.5 60q96 0 152 -36.5t56 -94.5q0 -36 -28 -70t-61 -55t-61 -42t-28 -33q0 -15 17 -27t93 -55t112.5 -83.5t36.5 -96.5q0 -76 -55 -127t-146 -51z" />
    <glyph glyph-name="agrave" unicode="&#xe0;" horiz-adv-x="528" 
d="M157 -12q-67 0 -106 33t-39 91q0 34 12.5 58.5t38 40.5t49 25t61.5 19l118 32v99q0 69 -11.5 95.5t-48.5 26.5q-24 0 -34 -8.5t-11 -33.5q-4 -57 -21 -77.5t-58 -20.5q-73 0 -73 60q0 51 59 79.5t170 28.5q201 0 201 -140v-284q0 -30 4 -43.5t17 -20.5q20 -10 47 -10v-13
q-47 -37 -122 -37q-89 0 -109 65h-4q-53 -65 -140 -65zM240 55q37 0 51 24v170l-32 -4q-42 -5 -60 -26t-18 -73q0 -91 59 -91zM360 585l-4 -10l-183 33q-25 4 -38 21t-13 38q0 28 18.5 48.5t43.5 20.5q31 0 58 -28z" />
    <glyph glyph-name="aacute" unicode="&#xe1;" horiz-adv-x="528" 
d="M157 -12q-67 0 -106 33t-39 91q0 34 12.5 58.5t38 40.5t49 25t61.5 19l118 32v99q0 69 -11.5 95.5t-48.5 26.5q-24 0 -34 -8.5t-11 -33.5q-4 -57 -21 -77.5t-58 -20.5q-73 0 -73 60q0 51 59 79.5t170 28.5q201 0 201 -140v-284q0 -30 4 -43.5t17 -20.5q20 -10 47 -10v-13
q-47 -37 -122 -37q-89 0 -109 65h-4q-53 -65 -140 -65zM240 55q37 0 51 24v170l-32 -4q-42 -5 -60 -26t-18 -73q0 -91 59 -91zM153 575l-4 10l118 123q27 28 58 28q25 0 43.5 -20.5t18.5 -48.5q0 -21 -13 -38t-38 -21z" />
    <glyph glyph-name="acircumflex" unicode="&#xe2;" horiz-adv-x="528" 
d="M157 -12q-67 0 -106 33t-39 91q0 34 12.5 58.5t38 40.5t49 25t61.5 19l118 32v99q0 69 -11.5 95.5t-48.5 26.5q-24 0 -34 -8.5t-11 -33.5q-4 -57 -21 -77.5t-58 -20.5q-73 0 -73 60q0 51 59 79.5t170 28.5q201 0 201 -140v-284q0 -30 4 -43.5t17 -20.5q20 -10 47 -10v-13
q-47 -37 -122 -37q-89 0 -109 65h-4q-53 -65 -140 -65zM240 55q37 0 51 24v170l-32 -4q-42 -5 -60 -26t-18 -73q0 -91 59 -91zM226 734h52l119 -154l-5 -8l-140 57l-139 -57l-5 8z" />
    <glyph glyph-name="atilde" unicode="&#xe3;" horiz-adv-x="528" 
d="M157 -12q-67 0 -106 33t-39 91q0 34 12.5 58.5t38 40.5t49 25t61.5 19l118 32v99q0 69 -11.5 95.5t-48.5 26.5q-24 0 -34 -8.5t-11 -33.5q-4 -57 -21 -77.5t-58 -20.5q-73 0 -73 60q0 51 59 79.5t170 28.5q201 0 201 -140v-284q0 -30 4 -43.5t17 -20.5q20 -10 47 -10v-13
q-47 -37 -122 -37q-89 0 -109 65h-4q-53 -65 -140 -65zM240 55q37 0 51 24v170l-32 -4q-42 -5 -60 -26t-18 -73q0 -91 59 -91zM119 571l-12 7q24 71 45 103t56 32q20 0 72.5 -9.5t73.5 -9.5q20 0 32.5 9.5t26.5 33.5l13 -7q-23 -72 -44 -103.5t-58 -31.5q-20 0 -72.5 9
t-73.5 9q-20 0 -32.5 -9.5t-26.5 -32.5z" />
    <glyph glyph-name="adieresis" unicode="&#xe4;" horiz-adv-x="528" 
d="M157 -12q-67 0 -106 33t-39 91q0 34 12.5 58.5t38 40.5t49 25t61.5 19l118 32v99q0 69 -11.5 95.5t-48.5 26.5q-24 0 -34 -8.5t-11 -33.5q-4 -57 -21 -77.5t-58 -20.5q-73 0 -73 60q0 51 59 79.5t170 28.5q201 0 201 -140v-284q0 -30 4 -43.5t17 -20.5q20 -10 47 -10v-13
q-47 -37 -122 -37q-89 0 -109 65h-4q-53 -65 -140 -65zM240 55q37 0 51 24v170l-32 -4q-42 -5 -60 -26t-18 -73q0 -91 59 -91zM70 652q0 36 23 57t57 21q36 0 59 -21t23 -57t-23 -57t-59 -21q-34 0 -57 21t-23 57zM270 652q0 36 23.5 57t57.5 21q35 0 58.5 -21t23.5 -57
t-23.5 -57t-58.5 -21q-34 0 -57.5 21t-23.5 57z" />
    <glyph glyph-name="aring" unicode="&#xe5;" horiz-adv-x="528" 
d="M157 -12q-67 0 -106 33t-39 91q0 34 12.5 58.5t38 40.5t49 25t61.5 19l118 32v99q0 69 -11.5 95.5t-48.5 26.5q-24 0 -34 -8.5t-11 -33.5q-4 -57 -21 -77.5t-58 -20.5q-73 0 -73 60q0 51 59 79.5t170 28.5q201 0 201 -140v-284q0 -30 4 -43.5t17 -20.5q20 -10 47 -10v-13
q-47 -37 -122 -37q-89 0 -109 65h-4q-53 -65 -140 -65zM240 55q37 0 51 24v170l-32 -4q-42 -5 -60 -26t-18 -73q0 -91 59 -91zM158 655q0 38 27 63t65 25t65 -25t27 -63t-27 -63t-65 -25t-65 25t-27 63zM193 655q0 -27 15.5 -44.5t41.5 -17.5t41.5 17.5t15.5 44.5
t-15.5 44.5t-41.5 17.5t-41.5 -17.5t-15.5 -44.5z" />
    <glyph glyph-name="ae" unicode="&#xe6;" horiz-adv-x="800" 
d="M342 75q-67 -87 -185 -87q-67 0 -106 33.5t-39 93.5q0 65 41.5 95.5t119.5 51.5l118 31v93q0 69 -11.5 95.5t-48.5 26.5q-24 0 -34 -8.5t-11 -33.5q-4 -57 -21 -77.5t-58 -20.5q-73 0 -73 60q0 50 56.5 79t156.5 29q114 0 154 -63q65 63 154 63q227 0 233 -245h-326
q1 -124 41.5 -171t125.5 -47q75 0 140 35v-17q-30 -41 -86.5 -72t-130.5 -31q-142 0 -209 87h-1zM547 510q-40 0 -62 -43.5t-23 -151.5l156 10q0 107 -15 146t-56 39zM247 55q47 0 83 39q-37 62 -39 161l-28 -3q-45 -5 -63.5 -27.5t-18.5 -75.5q0 -94 66 -94z" />
    <glyph glyph-name="ccedilla" unicode="&#xe7;" horiz-adv-x="494" 
d="M127 -201v13q84 21 84 60q0 24 -40 27l-4 4l43 90q-93 16 -144 84t-51 174q0 73 27 129.5t72 89.5t96.5 49.5t106.5 16.5q80 0 123.5 -26.5t43.5 -77.5q0 -69 -75 -69q-43 0 -59 21t-21 75q-4 30 -10 39t-27 9q-102 0 -102 -207q0 -118 34 -173t124 -55q67 0 130 34v-17
q-25 -36 -80.5 -68.5t-128.5 -32.5q-5 0 -14.5 0.5t-14.5 0.5l-21 -31q84 -8 84 -64q0 -39 -51.5 -63.5t-124.5 -31.5z" />
    <glyph glyph-name="egrave" unicode="&#xe8;" horiz-adv-x="528" 
d="M280 -12q-132 0 -198.5 68.5t-66.5 198.5t80 205.5t187 75.5q227 0 233 -242h-329q1 -126 42 -173.5t129 -47.5q74 0 139 35v-17q-31 -41 -87.5 -72t-128.5 -31zM275 510q-86 0 -89 -192l160 10q0 104 -15 143t-56 39zM386 585l-4 -10l-183 33q-25 4 -38 21t-13 38
q0 28 18.5 48.5t43.5 20.5q31 0 58 -28z" />
    <glyph glyph-name="eacute" unicode="&#xe9;" horiz-adv-x="528" 
d="M280 -12q-132 0 -198.5 68.5t-66.5 198.5t80 205.5t187 75.5q227 0 233 -242h-329q1 -126 42 -173.5t129 -47.5q74 0 139 35v-17q-31 -41 -87.5 -72t-128.5 -31zM275 510q-86 0 -89 -192l160 10q0 104 -15 143t-56 39zM174 575l-4 10l118 123q27 28 58 28
q25 0 43.5 -20.5t18.5 -48.5q0 -21 -13 -38t-38 -21z" />
    <glyph glyph-name="ecircumflex" unicode="&#xea;" horiz-adv-x="528" 
d="M280 -12q-132 0 -198.5 68.5t-66.5 198.5t80 205.5t187 75.5q227 0 233 -242h-329q1 -126 42 -173.5t129 -47.5q74 0 139 35v-17q-31 -41 -87.5 -72t-128.5 -31zM275 510q-86 0 -89 -192l160 10q0 104 -15 143t-56 39zM245 734h52l119 -154l-5 -8l-140 57l-139 -57l-5 8z
" />
    <glyph glyph-name="edieresis" unicode="&#xeb;" horiz-adv-x="528" 
d="M280 -12q-132 0 -198.5 68.5t-66.5 198.5t80 205.5t187 75.5q227 0 233 -242h-329q1 -126 42 -173.5t129 -47.5q74 0 139 35v-17q-31 -41 -87.5 -72t-128.5 -31zM275 510q-86 0 -89 -192l160 10q0 104 -15 143t-56 39zM296 652q0 36 23.5 57t57.5 21q35 0 58.5 -21
t23.5 -57t-23.5 -57t-58.5 -21q-34 0 -57.5 21t-23.5 57zM96 652q0 36 23 57t57 21q36 0 59 -21t23 -57t-23 -57t-59 -21q-34 0 -57 21t-23 57z" />
    <glyph glyph-name="igrave" unicode="&#xec;" horiz-adv-x="299" 
d="M2 0v15l21 6q28 7 34 15.5t6 41.5v336q0 31 -5.5 41t-29.5 26l-31 20v9l236 25l7 -5q-4 -55 -4 -125v-327q0 -33 6 -41t35 -16l20 -6v-15h-295zM255 585l-4 -10l-183 33q-25 4 -38 21t-13 38q0 28 18.5 48.5t43.5 20.5q31 0 58 -28z" />
    <glyph glyph-name="iacute" unicode="&#xed;" horiz-adv-x="299" 
d="M39 575l-4 10l118 123q27 28 58 28q25 0 43.5 -20.5t18.5 -48.5q0 -21 -13 -38t-38 -21zM2 0v15l21 6q28 7 34 15.5t6 41.5v336q0 31 -5.5 41t-29.5 26l-31 20v9l236 25l7 -5q-4 -55 -4 -125v-327q0 -33 6 -41t35 -16l20 -6v-15h-295z" />
    <glyph glyph-name="icircumflex" unicode="&#xee;" horiz-adv-x="299" 
d="M118 734h52l119 -154l-5 -8l-140 57l-139 -57l-5 8zM2 0v15l21 6q28 7 34 15.5t6 41.5v336q0 31 -5.5 41t-29.5 26l-31 20v9l236 25l7 -5q-4 -55 -4 -125v-327q0 -33 6 -41t35 -16l20 -6v-15h-295z" />
    <glyph glyph-name="idieresis" unicode="&#xef;" horiz-adv-x="299" 
d="M-36 652q0 36 23 57t57 21q36 0 59 -21t23 -57t-23 -57t-59 -21q-34 0 -57 21t-23 57zM164 652q0 36 23.5 57t57.5 21q35 0 58.5 -21t23.5 -57t-23.5 -57t-58.5 -21q-34 0 -57.5 21t-23.5 57zM2 0v15l21 6q28 7 34 15.5t6 41.5v336q0 31 -5.5 41t-29.5 26l-31 20v9
l236 25l7 -5q-4 -55 -4 -125v-327q0 -33 6 -41t35 -16l20 -6v-15h-295z" />
    <glyph glyph-name="eth" unicode="&#xf0;" horiz-adv-x="583" 
d="M139 589l-12 24l118 56q-52 46 -124 81l6 16q105 -29 181 -68l114 54l13 -24l-98 -46q230 -133 230 -379q0 -87 -23.5 -151t-64 -98.5t-87 -50t-101.5 -15.5q-118 0 -197 70t-79 204q0 70 25 125t65.5 86t85.5 47t92 16q43 0 69 -18q-25 71 -85 131zM292 15q34 0 53 16.5
t30.5 69.5t11.5 152q0 102 -12 160t-32 77t-52 19q-51 0 -73 -52.5t-22 -189.5q0 -105 12 -161.5t31 -73.5t53 -17z" />
    <glyph glyph-name="ntilde" unicode="&#xf1;" horiz-adv-x="620" 
d="M2 0v15l21 6q28 7 34 15.5t6 41.5v335q0 32 -5 41.5t-28 25.5l-31 21v9l226 25l8 -5l-1 -72h3q106 78 192 78q62 0 96 -34t34 -100v-324q0 -33 6 -41t35 -16l21 -6v-15h-290v15l19 5q26 6 31 14.5t5 43.5v291q0 42 -15.5 59t-48.5 17q-44 0 -84 -12v-355q0 -35 5.5 -43.5
t30.5 -14.5l19 -5v-15h-289zM177 571l-12 7q24 71 45 103t56 32q20 0 72.5 -9.5t73.5 -9.5q20 0 32.5 9.5t26.5 33.5l13 -7q-23 -72 -44 -103.5t-58 -31.5q-20 0 -72.5 9t-73.5 9q-20 0 -32.5 -9.5t-26.5 -32.5z" />
    <glyph glyph-name="ograve" unicode="&#xf2;" horiz-adv-x="583" 
d="M291 -12q-117 0 -196.5 70.5t-79.5 201.5q0 93 41.5 157.5t102 91.5t132.5 27q117 0 196.5 -70t79.5 -202q0 -70 -23 -124.5t-62.5 -87t-88 -48.5t-102.5 -16zM294 15q34 0 53 17t30 70.5t11 152.5q0 104 -13 161.5t-32.5 75t-53.5 17.5q-31 0 -50.5 -18t-31.5 -71.5
t-12 -146.5q0 -107 11 -164t31 -75.5t57 -18.5zM399 585l-4 -10l-183 33q-25 4 -38 21t-13 38q0 28 18.5 48.5t43.5 20.5q31 0 58 -28z" />
    <glyph glyph-name="oacute" unicode="&#xf3;" horiz-adv-x="583" 
d="M183 575l-4 10l118 123q27 28 58 28q25 0 43.5 -20.5t18.5 -48.5q0 -21 -13 -38t-38 -21zM291 -12q-117 0 -196.5 70.5t-79.5 201.5q0 93 41.5 157.5t102 91.5t132.5 27q117 0 196.5 -70t79.5 -202q0 -70 -23 -124.5t-62.5 -87t-88 -48.5t-102.5 -16zM294 15q34 0 53 17
t30 70.5t11 152.5q0 104 -13 161.5t-32.5 75t-53.5 17.5q-31 0 -50.5 -18t-31.5 -71.5t-12 -146.5q0 -107 11 -164t31 -75.5t57 -18.5z" />
    <glyph glyph-name="ocircumflex" unicode="&#xf4;" horiz-adv-x="583" 
d="M266 734h52l119 -154l-5 -8l-140 57l-139 -57l-5 8zM291 -12q-117 0 -196.5 70.5t-79.5 201.5q0 93 41.5 157.5t102 91.5t132.5 27q117 0 196.5 -70t79.5 -202q0 -70 -23 -124.5t-62.5 -87t-88 -48.5t-102.5 -16zM294 15q34 0 53 17t30 70.5t11 152.5q0 104 -13 161.5
t-32.5 75t-53.5 17.5q-31 0 -50.5 -18t-31.5 -71.5t-12 -146.5q0 -107 11 -164t31 -75.5t57 -18.5z" />
    <glyph glyph-name="otilde" unicode="&#xf5;" horiz-adv-x="583" 
d="M291 -12q-117 0 -196.5 70.5t-79.5 201.5q0 93 41.5 157.5t102 91.5t132.5 27q117 0 196.5 -70t79.5 -202q0 -70 -23 -124.5t-62.5 -87t-88 -48.5t-102.5 -16zM294 15q34 0 53 17t30 70.5t11 152.5q0 104 -13 161.5t-32.5 75t-53.5 17.5q-31 0 -50.5 -18t-31.5 -71.5
t-12 -146.5q0 -107 11 -164t31 -75.5t57 -18.5zM148 571l-12 7q24 71 45 103t56 32q20 0 72.5 -9.5t73.5 -9.5q20 0 32.5 9.5t26.5 33.5l13 -7q-23 -72 -44 -103.5t-58 -31.5q-20 0 -72.5 9t-73.5 9q-20 0 -32.5 -9.5t-26.5 -32.5z" />
    <glyph glyph-name="odieresis" unicode="&#xf6;" horiz-adv-x="583" 
d="M111 652q0 36 23 57t57 21q36 0 59 -21t23 -57t-23 -57t-59 -21q-34 0 -57 21t-23 57zM311 652q0 36 23.5 57t57.5 21q35 0 58.5 -21t23.5 -57t-23.5 -57t-58.5 -21q-34 0 -57.5 21t-23.5 57zM291 -12q-117 0 -196.5 70.5t-79.5 201.5q0 93 41.5 157.5t102 91.5t132.5 27
q117 0 196.5 -70t79.5 -202q0 -70 -23 -124.5t-62.5 -87t-88 -48.5t-102.5 -16zM294 15q34 0 53 17t30 70.5t11 152.5q0 104 -13 161.5t-32.5 75t-53.5 17.5q-31 0 -50.5 -18t-31.5 -71.5t-12 -146.5q0 -107 11 -164t31 -75.5t57 -18.5z" />
    <glyph glyph-name="divide" unicode="&#xf7;" horiz-adv-x="473" 
d="M42 329v31h389v-31h-389zM236 122q-29 0 -49.5 21t-20.5 49q0 30 20.5 50t49.5 20q28 0 48.5 -20t20.5 -50q0 -28 -20.5 -49t-48.5 -21zM236 427q-29 0 -49.5 21t-20.5 48q0 30 20 50t50 20q28 0 48.5 -20t20.5 -50q0 -27 -20.5 -48t-48.5 -21z" />
    <glyph glyph-name="oslash" unicode="&#xf8;" horiz-adv-x="583" 
d="M291 -12q-89 0 -153 38l-49 -70h-35l60 86q-99 74 -99 218q0 93 41.5 157.5t102 91.5t132.5 27q79 0 142 -33l44 63h35l-54 -78q109 -72 109 -224q0 -70 -23 -124.5t-62.5 -87t-88 -48.5t-102.5 -16zM294 15q34 0 54 17t32 71t12 152q0 82 -7 128l-185 -267
q10 -58 32 -79.5t62 -21.5zM190 273q0 -72 4 -115l184 265q-12 49 -33.5 67.5t-55.5 18.5q-32 0 -52 -18t-33.5 -71.5t-13.5 -146.5z" />
    <glyph glyph-name="ugrave" unicode="&#xf9;" horiz-adv-x="618" 
d="M383 91v320q0 33 -5 43.5t-28 25.5l-31 21v9l229 25l7 -5v-420q0 -38 5.5 -49t30.5 -20l25 -9v-12l-223 -32l-7 6v71h-3q-102 -77 -192 -77q-60 0 -94.5 34.5t-34.5 99.5v290q0 32 -5 41.5t-28 26.5l-30 21v9l228 25l8 -5v-369q0 -82 64 -82q34 0 84 12zM413 585l-4 -10
l-183 33q-25 4 -38 21t-13 38q0 28 18.5 48.5t43.5 20.5q31 0 58 -28z" />
    <glyph glyph-name="uacute" unicode="&#xfa;" horiz-adv-x="618" 
d="M208 575l-4 10l118 123q27 28 58 28q25 0 43.5 -20.5t18.5 -48.5q0 -21 -13 -38t-38 -21zM383 91v320q0 33 -5 43.5t-28 25.5l-31 21v9l229 25l7 -5v-420q0 -38 5.5 -49t30.5 -20l25 -9v-12l-223 -32l-7 6v71h-3q-102 -77 -192 -77q-60 0 -94.5 34.5t-34.5 99.5v290
q0 32 -5 41.5t-28 26.5l-30 21v9l228 25l8 -5v-369q0 -82 64 -82q34 0 84 12z" />
    <glyph glyph-name="ucircumflex" unicode="&#xfb;" horiz-adv-x="618" 
d="M280 734h52l119 -154l-5 -8l-140 57l-139 -57l-5 8zM383 91v320q0 33 -5 43.5t-28 25.5l-31 21v9l229 25l7 -5v-420q0 -38 5.5 -49t30.5 -20l25 -9v-12l-223 -32l-7 6v71h-3q-102 -77 -192 -77q-60 0 -94.5 34.5t-34.5 99.5v290q0 32 -5 41.5t-28 26.5l-30 21v9l228 25
l8 -5v-369q0 -82 64 -82q34 0 84 12z" />
    <glyph glyph-name="udieresis" unicode="&#xfc;" horiz-adv-x="618" 
d="M119 652q0 36 23 57t57 21q36 0 59 -21t23 -57t-23 -57t-59 -21q-34 0 -57 21t-23 57zM319 652q0 36 23.5 57t57.5 21q35 0 58.5 -21t23.5 -57t-23.5 -57t-58.5 -21q-34 0 -57.5 21t-23.5 57zM383 91v320q0 33 -5 43.5t-28 25.5l-31 21v9l229 25l7 -5v-420q0 -38 5.5 -49
t30.5 -20l25 -9v-12l-223 -32l-7 6v71h-3q-102 -77 -192 -77q-60 0 -94.5 34.5t-34.5 99.5v290q0 32 -5 41.5t-28 26.5l-30 21v9l228 25l8 -5v-369q0 -82 64 -82q34 0 84 12z" />
    <glyph glyph-name="yacute" unicode="&#xfd;" horiz-adv-x="536" 
d="M345 180l80 216q17 46 17 65q0 31 -34 39l-26 7v15h167v-15l-18 -7q-17 -6 -28 -23.5t-32 -69.5l-187 -453q-35 -84 -73.5 -121.5t-103.5 -37.5q-41 0 -69.5 21t-28.5 56q0 29 18.5 46t52.5 17q59 0 67 -60q2 -16 5 -21.5t13 -5.5q18 0 41 27t45 82l9 22l-198 440
q-21 46 -33 61.5t-27 20.5l-16 6v15h313v-15l-26 -8q-33 -10 -33 -40q0 -15 15 -56l86 -223h4zM203 575l-4 10l118 123q27 28 58 28q25 0 43.5 -20.5t18.5 -48.5q0 -21 -13 -38t-38 -21z" />
    <glyph glyph-name="thorn" unicode="&#xfe;" horiz-adv-x="606" 
d="M298 15q57 0 84 50.5t27 187.5q0 109 -28.5 153t-83.5 44q-35 0 -74 -13v-385q26 -37 75 -37zM223 630v-70l-1 -97h3q81 73 165 73q87 0 141.5 -61t54.5 -185q0 -152 -80 -227t-211 -75q-36 0 -73 10q1 -26 1 -61v-57q0 -34 5.5 -42t33.5 -15l28 -6v-16h-301v16l20 5
q29 8 35 16.5t6 41.5v756q0 39 -5 51t-29 22l-32 15v11l234 22l9 -5q-4 -55 -4 -122z" />
    <glyph glyph-name="ydieresis" unicode="&#xff;" horiz-adv-x="536" 
d="M345 180l80 216q17 46 17 65q0 31 -34 39l-26 7v15h167v-15l-18 -7q-17 -6 -28 -23.5t-32 -69.5l-187 -453q-35 -84 -73.5 -121.5t-103.5 -37.5q-41 0 -69.5 21t-28.5 56q0 29 18.5 46t52.5 17q59 0 67 -60q2 -16 5 -21.5t13 -5.5q18 0 41 27t45 82l9 22l-198 440
q-21 46 -33 61.5t-27 20.5l-16 6v15h313v-15l-26 -8q-33 -10 -33 -40q0 -15 15 -56l86 -223h4zM117 652q0 36 23 57t57 21q36 0 59 -21t23 -57t-23 -57t-59 -21q-34 0 -57 21t-23 57zM317 652q0 36 23.5 57t57.5 21q35 0 58.5 -21t23.5 -57t-23.5 -57t-58.5 -21
q-34 0 -57.5 21t-23.5 57z" />
    <glyph glyph-name="Amacron" unicode="&#x100;" horiz-adv-x="679" 
d="M-7 0v15l14 5q26 8 39 26.5t39 91.5l202 555h102l203 -557q24 -68 36 -88.5t34 -27.5l18 -5v-15h-359v15l27 7q38 9 38 44q0 31 -19 84l-25 78h-186l-25 -73q-20 -58 -20 -86q0 -18 10.5 -28.5t38.5 -18.5l25 -7v-15h-192zM252 509l-85 -249h165l-77 249h-3zM197 755v63
h276v-63h-276z" />
    <glyph glyph-name="amacron" unicode="&#x101;" horiz-adv-x="528" 
d="M157 -12q-67 0 -106 33t-39 91q0 34 12.5 58.5t38 40.5t49 25t61.5 19l118 32v99q0 69 -11.5 95.5t-48.5 26.5q-24 0 -34 -8.5t-11 -33.5q-4 -57 -21 -77.5t-58 -20.5q-73 0 -73 60q0 51 59 79.5t170 28.5q201 0 201 -140v-284q0 -30 4 -43.5t17 -20.5q20 -10 47 -10v-13
q-47 -37 -122 -37q-89 0 -109 65h-4q-53 -65 -140 -65zM240 55q37 0 51 24v170l-32 -4q-42 -5 -60 -26t-18 -73q0 -91 59 -91zM119 612v62h272v-62h-272z" />
    <glyph glyph-name="Abreve" unicode="&#x102;" horiz-adv-x="679" 
d="M-7 0v15l14 5q26 8 39 26.5t39 91.5l202 555h102l203 -557q24 -68 36 -88.5t34 -27.5l18 -5v-15h-359v15l27 7q38 9 38 44q0 31 -19 84l-25 78h-186l-25 -73q-20 -58 -20 -86q0 -18 10.5 -28.5t38.5 -18.5l25 -7v-15h-192zM335 726q-115 0 -137 150l10 4q21 -33 48.5 -47
t78.5 -14q48 0 76.5 14.5t50.5 46.5l10 -4q-8 -69 -42.5 -109.5t-94.5 -40.5zM252 509l-85 -249h165l-77 249h-3z" />
    <glyph glyph-name="abreve" unicode="&#x103;" horiz-adv-x="528" 
d="M157 -12q-67 0 -106 33t-39 91q0 34 12.5 58.5t38 40.5t49 25t61.5 19l118 32v99q0 69 -11.5 95.5t-48.5 26.5q-24 0 -34 -8.5t-11 -33.5q-4 -57 -21 -77.5t-58 -20.5q-73 0 -73 60q0 51 59 79.5t170 28.5q201 0 201 -140v-284q0 -30 4 -43.5t17 -20.5q20 -10 47 -10v-13
q-47 -37 -122 -37q-89 0 -109 65h-4q-53 -65 -140 -65zM240 55q37 0 51 24v170l-32 -4q-42 -5 -60 -26t-18 -73q0 -91 59 -91zM256 575q-104 0 -127 150l10 4q30 -59 118 -59q84 0 116 59l10 -4q-8 -67 -40 -108.5t-87 -41.5z" />
    <glyph glyph-name="Aogonek" unicode="&#x104;" horiz-adv-x="679" 
d="M680 0h-124q-163 0 -163 -109q0 -24 14 -36.5t36 -12.5q16 0 29 4v-14q-34 -36 -91 -36q-48 0 -74 19.5t-26 53.5q0 36 34.5 68t101.5 53l-75 238h-186l-25 -73q-20 -58 -20 -86q0 -18 10.5 -28.5t38.5 -18.5l25 -7v-15h-192v15l14 5q26 8 39 26.5t39 91.5l202 555h102
l203 -557q24 -68 36 -88.5t34 -27.5l18 -5v-15zM255 509h-3l-86 -249h166z" />
    <glyph glyph-name="aogonek" unicode="&#x105;" horiz-adv-x="528" 
d="M325 -128q0 38 32.5 66.5t103.5 55.5q-34 -6 -52 -6q-88 0 -108 65h-4q-53 -65 -140 -65q-67 0 -106 33t-39 91q0 34 12.5 58.5t38 40.5t49 25t61.5 19l118 32v99q0 69 -11.5 95.5t-48.5 26.5q-24 0 -34 -8.5t-11 -33.5q-4 -57 -21 -77.5t-58 -20.5q-73 0 -73 60
q0 51 59 79.5t170 28.5q201 0 201 -140v-284q0 -30 4 -43.5t17 -20.5q20 -10 47 -10v-12q-93 -71 -93 -133q0 -51 47 -51q17 0 29 4v-14q-32 -36 -87 -36q-50 0 -76.5 20.5t-26.5 55.5zM240 55q37 0 51 24v170l-32 -4q-42 -4 -60 -25t-18 -73q0 -92 59 -92z" />
    <glyph glyph-name="Cacute" unicode="&#x106;" horiz-adv-x="623" 
d="M365 -12q-159 0 -251.5 91t-92.5 262q0 93 29.5 164.5t81 114t117 64t142.5 21.5q109 0 185 -24l15 -221h-17q-54 109 -90 159q-21 31 -43.5 44.5t-59.5 13.5q-152 0 -152 -316q0 -191 35 -268t110 -77q46 0 73 13.5t52 50.5q25 34 82 159h17l-12 -212q-99 -39 -221 -39z
M252 724l-4 10l124 120q25 26 55 26q27 0 45 -19.5t18 -47.5q0 -51 -56 -60z" />
    <glyph glyph-name="cacute" unicode="&#x107;" horiz-adv-x="494" 
d="M181 575l-4 10l118 123q27 28 58 28q25 0 43.5 -20.5t18.5 -48.5q0 -21 -13 -38t-38 -21zM269 -12q-120 0 -187 70.5t-67 192.5q0 73 27 129.5t72 89.5t96.5 49.5t106.5 16.5q80 0 123.5 -26.5t43.5 -77.5q0 -69 -75 -69q-43 0 -59 21t-21 75q-4 30 -10 39t-27 9
q-102 0 -102 -207q0 -118 34 -173t124 -55q67 0 130 34v-17q-25 -36 -80.5 -68.5t-128.5 -32.5z" />
    <glyph glyph-name="Ccircumflex" unicode="&#x108;" horiz-adv-x="623" 
d="M202 723l-5 9l131 142h56l132 -142l-6 -9l-154 46zM365 -12q-159 0 -251.5 91t-92.5 262q0 93 29.5 164.5t81 114t117 64t142.5 21.5q109 0 185 -24l15 -221h-17q-54 109 -90 159q-21 31 -43.5 44.5t-59.5 13.5q-152 0 -152 -316q0 -191 35 -268t110 -77q46 0 73 13.5
t52 50.5q25 34 82 159h17l-12 -212q-99 -39 -221 -39z" />
    <glyph glyph-name="ccircumflex" unicode="&#x109;" horiz-adv-x="494" 
d="M249 734h52l119 -154l-5 -8l-140 57l-139 -57l-5 8zM269 -12q-120 0 -187 70.5t-67 192.5q0 73 27 129.5t72 89.5t96.5 49.5t106.5 16.5q80 0 123.5 -26.5t43.5 -77.5q0 -69 -75 -69q-43 0 -59 21t-21 75q-4 30 -10 39t-27 9q-102 0 -102 -207q0 -118 34 -173t124 -55
q67 0 130 34v-17q-25 -36 -80.5 -68.5t-128.5 -32.5z" />
    <glyph glyph-name="Cdotaccent" unicode="&#x10a;" horiz-adv-x="623" 
d="M365 -12q-159 0 -251.5 91t-92.5 262q0 93 29.5 164.5t81 114t117 64t142.5 21.5q109 0 185 -24l15 -221h-17q-54 109 -90 159q-21 31 -43.5 44.5t-59.5 13.5q-152 0 -152 -316q0 -191 35 -268t110 -77q46 0 73 13.5t52 50.5q25 34 82 159h17l-12 -212q-99 -39 -221 -39z
M366 725q-38 0 -63 22.5t-25 59.5q0 36 25 58.5t63 22.5t63 -22.5t25 -58.5q0 -37 -25 -59.5t-63 -22.5z" />
    <glyph glyph-name="cdotaccent" unicode="&#x10b;" horiz-adv-x="494" 
d="M269 -12q-120 0 -187 70.5t-67 192.5q0 73 27 129.5t72 89.5t96.5 49.5t106.5 16.5q80 0 123.5 -26.5t43.5 -77.5q0 -69 -75 -69q-43 0 -59 21t-21 75q-4 30 -10 39t-27 9q-102 0 -102 -207q0 -118 34 -173t124 -55q67 0 130 34v-17q-25 -36 -80.5 -68.5t-128.5 -32.5z
M194 650q0 36 25.5 59t62.5 23q38 0 63 -23t25 -59q0 -37 -25 -59.5t-63 -22.5t-63 22.5t-25 59.5z" />
    <glyph glyph-name="Ccaron" unicode="&#x10c;" horiz-adv-x="623" 
d="M210 872l5 9l154 -46l154 46l6 -9l-132 -142h-56zM365 -12q-159 0 -251.5 91t-92.5 262q0 93 29.5 164.5t81 114t117 64t142.5 21.5q109 0 185 -24l15 -221h-17q-54 109 -90 159q-21 31 -43.5 44.5t-59.5 13.5q-152 0 -152 -316q0 -191 35 -268t110 -77q46 0 73 13.5
t52 50.5q25 34 82 159h17l-12 -212q-99 -39 -221 -39z" />
    <glyph glyph-name="ccaron" unicode="&#x10d;" horiz-adv-x="494" 
d="M302 579h-52l-118 154l5 9l139 -58l140 58l5 -9zM269 -12q-120 0 -187 70.5t-67 192.5q0 73 27 129.5t72 89.5t96.5 49.5t106.5 16.5q80 0 123.5 -26.5t43.5 -77.5q0 -69 -75 -69q-43 0 -59 21t-21 75q-4 30 -10 39t-27 9q-102 0 -102 -207q0 -118 34 -173t124 -55
q67 0 130 34v-17q-25 -36 -80.5 -68.5t-128.5 -32.5z" />
    <glyph glyph-name="Dcaron" unicode="&#x10e;" horiz-adv-x="728" 
d="M199 872l5 9l154 -46l154 46l6 -9l-132 -142h-56zM7 0v15l30 7q28 8 35 19t7 57v497q0 46 -7 57t-35 19l-30 7v15h351q166 0 257.5 -82.5t91.5 -250.5q0 -169 -94.5 -264.5t-258.5 -95.5h-347zM342 30q158 0 158 306q0 183 -38.5 254.5t-121.5 71.5q-40 0 -62 -7v-559
q0 -41 13 -53.5t51 -12.5z" />
    <glyph glyph-name="dcaron" unicode="&#x10f;" horiz-adv-x="618" 
d="M223 -12q-90 0 -146.5 62t-56.5 184q0 78 23.5 137.5t64.5 94.5t92 52.5t111 17.5q36 0 71 -11v111q0 34 -5 44t-27 22l-40 21v12l242 22l8 -6q-4 -52 -4 -121v-522q0 -38 5 -48t30 -19l25 -9v-12l-221 -32l-11 8v61h-3q-76 -69 -158 -69zM312 68q38 0 70 16v381
q-25 44 -72 44q-113 0 -113 -231q0 -113 27.5 -161.5t87.5 -48.5zM599 569l-10 4l4 139q0 49 46 49q23 0 40 -14t19 -32q0 -23 -16 -41z" />
    <glyph glyph-name="Dcroat" unicode="&#x110;" horiz-adv-x="728" 
d="M24 331v34h55v230q0 46 -7 57t-35 19l-30 7v15h351q166 0 257.5 -82.5t91.5 -250.5q0 -169 -94.5 -264.5t-258.5 -95.5h-347v15l30 7q28 8 35 19t7 57v233h-55zM342 30q158 0 158 306q0 183 -38.5 254.5t-121.5 71.5q-40 0 -62 -7v-290h126v-34h-126v-235q0 -41 13 -53.5
t51 -12.5z" />
    <glyph glyph-name="dcroat" unicode="&#x111;" horiz-adv-x="618" 
d="M553 598l3 -490q0 -38 5 -48t30 -19l25 -9v-12l-221 -32l-11 8v61h-3q-76 -69 -158 -69q-90 0 -146.5 62t-56.5 184q0 78 23.5 137.5t64.5 94.5t92 52.5t111 17.5q36 0 71 -11v73h-156v36h156v6q-1 31 -6 40.5t-26 21.5l-40 21v12l242 22l8 -6q-7 -51 -7 -117h62v-36h-62
zM312 68q38 0 70 16v381q-25 44 -72 44q-113 0 -113 -231q0 -113 27.5 -161.5t87.5 -48.5z" />
    <glyph glyph-name="Emacron" unicode="&#x112;" horiz-adv-x="602" 
d="M454 492v-270h-16q-11 47 -31 91q-9 19 -26.5 25t-68.5 6h-34v-242q0 -47 14 -59t75 -12q58 0 80 11.5t47 51.5q34 53 75 157h18l-14 -251h-566v15l30 7q28 8 35 19t7 57v497q0 46 -7 57t-35 19l-30 7v15h546l9 -213h-17q-36 83 -62 124q-21 35 -45.5 46.5t-75.5 11.5
q-58 0 -84 -7v-281h35q51 0 67.5 6.5t26.5 24.5q18 34 31 87h16zM183 755v63h276v-63h-276z" />
    <glyph glyph-name="emacron" unicode="&#x113;" horiz-adv-x="528" 
d="M280 -12q-132 0 -198.5 68.5t-66.5 198.5t80 205.5t187 75.5q227 0 233 -242h-329q1 -126 42 -173.5t129 -47.5q74 0 139 35v-17q-31 -41 -87.5 -72t-128.5 -31zM275 510q-86 0 -89 -192l160 10q0 104 -15 143t-56 39zM132 612v62h272v-62h-272z" />
    <glyph glyph-name="Ebreve" unicode="&#x114;" horiz-adv-x="602" 
d="M454 492v-270h-16q-11 47 -31 91q-9 19 -26.5 25t-68.5 6h-34v-242q0 -47 14 -59t75 -12q58 0 80 11.5t47 51.5q34 53 75 157h18l-14 -251h-566v15l30 7q28 8 35 19t7 57v497q0 46 -7 57t-35 19l-30 7v15h546l9 -213h-17q-36 83 -62 124q-21 35 -45.5 46.5t-75.5 11.5
q-58 0 -84 -7v-281h35q51 0 67.5 6.5t26.5 24.5q18 34 31 87h16zM323 726q-115 0 -137 150l10 4q21 -33 48.5 -47t78.5 -14q48 0 76.5 14.5t50.5 46.5l10 -4q-8 -69 -42.5 -109.5t-94.5 -40.5z" />
    <glyph glyph-name="ebreve" unicode="&#x115;" horiz-adv-x="528" 
d="M280 -12q-132 0 -198.5 68.5t-66.5 198.5t80 205.5t187 75.5q227 0 233 -242h-329q1 -126 42 -173.5t129 -47.5q74 0 139 35v-17q-31 -41 -87.5 -72t-128.5 -31zM275 510q-86 0 -89 -192l160 10q0 104 -15 143t-56 39zM276 575q-104 0 -127 150l10 4q30 -59 118 -59
q84 0 116 59l10 -4q-8 -67 -40 -108.5t-87 -41.5z" />
    <glyph glyph-name="Edotaccent" unicode="&#x116;" horiz-adv-x="602" 
d="M312 725q-38 0 -63 22.5t-25 59.5q0 36 25 58.5t63 22.5t63 -22.5t25 -58.5q0 -37 -25 -59.5t-63 -22.5zM454 492v-270h-16q-11 47 -31 91q-9 19 -26.5 25t-68.5 6h-34v-242q0 -47 14 -59t75 -12q58 0 80 11.5t47 51.5q34 53 75 157h18l-14 -251h-566v15l30 7q28 8 35 19
t7 57v497q0 46 -7 57t-35 19l-30 7v15h546l9 -213h-17q-36 83 -62 124q-21 35 -45.5 46.5t-75.5 11.5q-58 0 -84 -7v-281h35q51 0 67.5 6.5t26.5 24.5q18 34 31 87h16z" />
    <glyph glyph-name="edotaccent" unicode="&#x117;" horiz-adv-x="528" 
d="M280 -12q-132 0 -198.5 68.5t-66.5 198.5t80 205.5t187 75.5q227 0 233 -242h-329q1 -126 42 -173.5t129 -47.5q74 0 139 35v-17q-31 -41 -87.5 -72t-128.5 -31zM275 510q-86 0 -89 -192l160 10q0 104 -15 143t-56 39zM181 650q0 36 25.5 59t62.5 23q38 0 63 -23t25 -59
q0 -37 -25 -59.5t-63 -22.5t-63 22.5t-25 59.5z" />
    <glyph glyph-name="Eogonek" unicode="&#x118;" horiz-adv-x="602" 
d="M465 0h-458v15l30 7q28 8 35 19t7 57v497q0 46 -7 57t-35 19l-30 7v15h546l9 -213h-17q-36 83 -62 124q-21 35 -45.5 46.5t-75.5 11.5q-58 0 -84 -7v-281h35q51 0 67.5 6.5t26.5 24.5q18 34 31 87h16v-270h-16q-11 47 -31 91q-9 19 -26.5 25t-68.5 6h-34v-242
q0 -47 14 -59t75 -12q58 0 80 11.5t47 51.5q34 53 75 157h18l-14 -251h-89q-44 -53 -44 -114q0 -44 43 -44q20 0 32 4v-14q-32 -36 -88 -36q-50 0 -76.5 20.5t-26.5 55.5q0 75 141 128z" />
    <glyph glyph-name="eogonek" unicode="&#x119;" horiz-adv-x="528" 
d="M230 -128q0 36 38 69t99 59q-48 -12 -86 -12q-133 0 -199.5 69t-66.5 199t80.5 205t186.5 75q229 0 233 -242h-328v-3q1 -124 42.5 -171t127.5 -47q74 0 139 35v-17q-13 -14 -89 -85q-64 -58 -64 -114q0 -50 49 -50q16 0 28 4v-14q-32 -36 -88 -36q-50 0 -76 20.5
t-26 55.5zM275 510q-85 0 -88 -192l159 10q0 104 -15 143t-56 39z" />
    <glyph glyph-name="Ecaron" unicode="&#x11a;" horiz-adv-x="602" 
d="M165 872l5 9l154 -46l154 46l6 -9l-132 -142h-56zM454 492v-270h-16q-11 47 -31 91q-9 19 -26.5 25t-68.5 6h-34v-242q0 -47 14 -59t75 -12q58 0 80 11.5t47 51.5q34 53 75 157h18l-14 -251h-566v15l30 7q28 8 35 19t7 57v497q0 46 -7 57t-35 19l-30 7v15h546l9 -213h-17
q-36 83 -62 124q-21 35 -45.5 46.5t-75.5 11.5q-58 0 -84 -7v-281h35q51 0 67.5 6.5t26.5 24.5q18 34 31 87h16z" />
    <glyph glyph-name="ecaron" unicode="&#x11b;" horiz-adv-x="528" 
d="M280 -12q-132 0 -198.5 68.5t-66.5 198.5t80 205.5t187 75.5q227 0 233 -242h-329q1 -126 42 -173.5t129 -47.5q74 0 139 35v-17q-31 -41 -87.5 -72t-128.5 -31zM275 510q-86 0 -89 -192l160 10q0 104 -15 143t-56 39zM297 579h-52l-118 154l5 9l139 -58l140 58l5 -9z
" />
    <glyph glyph-name="Gcircumflex" unicode="&#x11c;" horiz-adv-x="680" 
d="M222 723l-5 9l131 142h56l132 -142l-6 -9l-154 46zM384 -12q-180 0 -271.5 91.5t-91.5 264.5q0 95 31.5 166.5t87 113t123 61.5t146.5 20q109 0 190 -25l11 -219h-17q-46 99 -78 145q-29 42 -55.5 56.5t-67.5 14.5q-84 0 -124.5 -77.5t-40.5 -239.5q0 -189 31.5 -266.5
t115.5 -77.5q44 0 71 20v162q0 47 -7 58t-37 18l-29 7v15h312v-15l-25 -6q-19 -5 -23.5 -17t-4.5 -58v-171q-41 -17 -110.5 -29t-136.5 -12z" />
    <glyph glyph-name="gcircumflex" unicode="&#x11d;" horiz-adv-x="522" 
d="M220 734h52l119 -154l-5 -8l-140 57l-139 -57l-5 8zM212 -202q-224 0 -224 108q0 37 32 62.5t95 35.5v2q-93 23 -93 102q0 39 23.5 70.5t56.5 50.5v2q-83 41 -83 129q0 82 62 129t156 47q74 0 131 -30q58 56 111 56q29 0 46.5 -14.5t17.5 -43.5q0 -22 -12.5 -36.5
t-37.5 -14.5q-21 0 -30 8t-16 27q-15 39 -63 6v-2q72 -47 72 -118q0 -82 -62 -128t-157 -46q-65 0 -116 20q-20 -20 -20 -45q0 -29 48 -29h194q168 0 168 -135q0 -95 -82 -154t-217 -59zM234 -175q82 0 126 26.5t44 76.5q0 38 -22.5 54.5t-72.5 16.5h-171q-27 -21 -27 -78
q0 -96 123 -96zM237 226q35 0 48 28t13 110q0 86 -13.5 116t-47.5 30t-47 -28.5t-13 -111.5q0 -84 13.5 -114t46.5 -30z" />
    <glyph glyph-name="Gbreve" unicode="&#x11e;" horiz-adv-x="680" 
d="M376 726q-115 0 -137 150l10 4q21 -33 48.5 -47t78.5 -14q48 0 76.5 14.5t50.5 46.5l10 -4q-8 -69 -42.5 -109.5t-94.5 -40.5zM384 -12q-180 0 -271.5 91.5t-91.5 264.5q0 95 31.5 166.5t87 113t123 61.5t146.5 20q109 0 190 -25l11 -219h-17q-46 99 -78 145
q-29 42 -55.5 56.5t-67.5 14.5q-84 0 -124.5 -77.5t-40.5 -239.5q0 -189 31.5 -266.5t115.5 -77.5q44 0 71 20v162q0 47 -7 58t-37 18l-29 7v15h312v-15l-25 -6q-19 -5 -23.5 -17t-4.5 -58v-171q-41 -17 -110.5 -29t-136.5 -12z" />
    <glyph glyph-name="gbreve" unicode="&#x11f;" horiz-adv-x="522" 
d="M212 -202q-224 0 -224 108q0 37 32 62.5t95 35.5v2q-93 23 -93 102q0 39 23.5 70.5t56.5 50.5v2q-83 41 -83 129q0 82 62 129t156 47q74 0 131 -30q58 56 111 56q29 0 46.5 -14.5t17.5 -43.5q0 -22 -12.5 -36.5t-37.5 -14.5q-21 0 -30 8t-16 27q-15 39 -63 6v-2
q72 -47 72 -118q0 -82 -62 -128t-157 -46q-65 0 -116 20q-20 -20 -20 -45q0 -29 48 -29h194q168 0 168 -135q0 -95 -82 -154t-217 -59zM234 -175q82 0 126 26.5t44 76.5q0 38 -22.5 54.5t-72.5 16.5h-171q-27 -21 -27 -78q0 -96 123 -96zM237 226q35 0 48 28t13 110
q0 86 -13.5 116t-47.5 30t-47 -28.5t-13 -111.5q0 -84 13.5 -114t46.5 -30zM248 575q-104 0 -127 150l10 4q30 -59 118 -59q84 0 116 59l10 -4q-8 -67 -40 -108.5t-87 -41.5z" />
    <glyph glyph-name="Gdotaccent" unicode="&#x120;" horiz-adv-x="680" 
d="M375 725q-38 0 -63 22.5t-25 59.5q0 36 25 58.5t63 22.5t63 -22.5t25 -58.5q0 -37 -25 -59.5t-63 -22.5zM384 -12q-180 0 -271.5 91.5t-91.5 264.5q0 95 31.5 166.5t87 113t123 61.5t146.5 20q109 0 190 -25l11 -219h-17q-46 99 -78 145q-29 42 -55.5 56.5t-67.5 14.5
q-84 0 -124.5 -77.5t-40.5 -239.5q0 -189 31.5 -266.5t115.5 -77.5q44 0 71 20v162q0 47 -7 58t-37 18l-29 7v15h312v-15l-25 -6q-19 -5 -23.5 -17t-4.5 -58v-171q-41 -17 -110.5 -29t-136.5 -12z" />
    <glyph glyph-name="gdotaccent" unicode="&#x121;" horiz-adv-x="522" 
d="M212 -202q-224 0 -224 108q0 37 32 62.5t95 35.5v2q-93 23 -93 102q0 39 23.5 70.5t56.5 50.5v2q-83 41 -83 129q0 82 62 129t156 47q74 0 131 -30q58 56 111 56q29 0 46.5 -14.5t17.5 -43.5q0 -22 -12.5 -36.5t-37.5 -14.5q-21 0 -30 8t-16 27q-15 39 -63 6v-2
q72 -47 72 -118q0 -82 -62 -128t-157 -46q-65 0 -116 20q-20 -20 -20 -45q0 -29 48 -29h194q168 0 168 -135q0 -95 -82 -154t-217 -59zM234 -175q82 0 126 26.5t44 76.5q0 38 -22.5 54.5t-72.5 16.5h-171q-27 -21 -27 -78q0 -96 123 -96zM237 226q35 0 48 28t13 110
q0 86 -13.5 116t-47.5 30t-47 -28.5t-13 -111.5q0 -84 13.5 -114t46.5 -30zM152 650q0 36 25.5 59t62.5 23q38 0 63 -23t25 -59q0 -37 -25 -59.5t-63 -22.5t-63 22.5t-25 59.5z" />
    <glyph glyph-name="Gcommaaccent" unicode="&#x122;" horiz-adv-x="680" 
d="M272 -244l-2 10q95 27 103 92q-13 -13 -38 -13t-40.5 15t-15.5 39q0 25 20.5 43t53.5 18q35 0 58.5 -22.5t23.5 -56.5q0 -53 -43.5 -86t-119.5 -39zM384 -12q-180 0 -271.5 91.5t-91.5 264.5q0 95 31.5 166.5t87 113t123 61.5t146.5 20q109 0 190 -25l11 -219h-17
q-46 99 -78 145q-29 42 -55.5 56.5t-67.5 14.5q-84 0 -124.5 -77.5t-40.5 -239.5q0 -189 31.5 -266.5t115.5 -77.5q44 0 71 20v162q0 47 -7 58t-37 18l-29 7v15h312v-15l-25 -6q-19 -5 -23.5 -17t-4.5 -58v-171q-41 -17 -110.5 -29t-136.5 -12z" />
    <glyph glyph-name="gcommaaccent" unicode="&#x123;" horiz-adv-x="522" 
d="M331 767l2 -10q-94 -27 -104 -93q14 14 39 14t40.5 -15t15.5 -40q0 -24 -20.5 -42t-53.5 -18q-35 0 -59 22.5t-24 56.5q0 53 43.5 86t120.5 39zM212 -202q-224 0 -224 108q0 37 32 62.5t95 35.5v2q-93 23 -93 102q0 39 23.5 70.5t56.5 50.5v2q-83 41 -83 129q0 82 62 129
t156 47q74 0 131 -30q58 56 111 56q29 0 46.5 -14.5t17.5 -43.5q0 -22 -12.5 -36.5t-37.5 -14.5q-21 0 -30 8t-16 27q-15 39 -63 6v-2q72 -47 72 -118q0 -82 -62 -128t-157 -46q-65 0 -116 20q-20 -20 -20 -45q0 -29 48 -29h194q168 0 168 -135q0 -95 -82 -154t-217 -59z
M234 -175q82 0 126 26.5t44 76.5q0 38 -22.5 54.5t-72.5 16.5h-171q-27 -21 -27 -78q0 -96 123 -96zM237 226q35 0 48 28t13 110q0 86 -13.5 116t-47.5 30t-47 -28.5t-13 -111.5q0 -84 13.5 -114t46.5 -30z" />
    <glyph glyph-name="Hcircumflex" unicode="&#x124;" horiz-adv-x="765" 
d="M7 0v15l30 7q28 8 35 19t7 57v497q0 46 -7 57t-35 19l-30 7v15h341v-15l-27 -7q-30 -8 -36.5 -19t-6.5 -57v-224h209v224q0 46 -6.5 56.5t-36.5 19.5l-27 7v15h341v-15l-30 -7q-29 -8 -36 -19t-7 -57v-497q0 -46 7 -57t36 -19l30 -7v-15h-341v15l27 7q30 9 36.5 19.5
t6.5 56.5v240h-209v-240q0 -46 6.5 -56.5t36.5 -19.5l27 -7v-15h-341zM229 723l-5 9l131 142h56l132 -142l-6 -9l-154 46z" />
    <glyph glyph-name="hcircumflex" unicode="&#x125;" horiz-adv-x="619" 
d="M427 536q62 0 96 -34t34 -100v-324q0 -33 6 -41t35 -16l21 -6v-15h-289v15l18 5q26 7 31 15t5 43v292q0 42 -15.5 59.5t-48.5 17.5q-42 0 -84 -12v-357q0 -35 5.5 -43t31.5 -15l18 -5v-15h-289v15l20 6q29 7 35 15.5t6 41.5v558q0 38 -5 49t-29 24l-32 15v11l235 22l8 -5
q-4 -55 -4 -122v-166h3q97 72 188 72zM14 782l-5 9l131 142h56l132 -142l-6 -9l-154 46z" />
    <glyph glyph-name="Hbar" unicode="&#x126;" horiz-adv-x="765" 
d="M10 499v29h69v67q0 46 -7 57t-35 19l-30 7v15h341v-15l-27 -7q-30 -8 -36.5 -19t-6.5 -57v-67h209v67q0 46 -6.5 56.5t-36.5 19.5l-27 7v15h341v-15l-30 -7q-29 -8 -36 -19t-7 -57v-67h78v-29h-78v-401q0 -46 7 -57t36 -19l30 -7v-15h-341v15l27 7q30 9 36.5 19.5
t6.5 56.5v240h-209v-240q0 -46 6.5 -56.5t36.5 -19.5l27 -7v-15h-341v15l30 7q28 8 35 19t7 57v401h-69zM278 371h209v128h-209v-128z" />
    <glyph glyph-name="hbar" unicode="&#x127;" horiz-adv-x="620" 
d="M-5 600v32h68v4q0 38 -5 49t-29 24l-32 15v11l235 22l8 -5q-4 -54 -4 -120h146v-32h-146v-136h3q97 72 188 72q62 0 96 -34t34 -100v-324q0 -33 6 -41t35 -16l21 -6v-15h-289v15l18 5q26 7 31 15t5 43v292q0 42 -15.5 59.5t-48.5 17.5q-42 0 -84 -12v-357q0 -35 5.5 -43
t31.5 -15l18 -5v-15h-289v15l20 6q29 7 35 15.5t6 41.5v522h-68z" />
    <glyph glyph-name="Itilde" unicode="&#x128;" horiz-adv-x="362" 
d="M7 0v15l32 7q29 7 36 18.5t7 57.5v497q0 46 -7 57.5t-36 18.5l-32 7v15h348v-15l-32 -7q-29 -7 -36 -18t-7 -58v-497q0 -47 7 -58t36 -18l32 -7v-15h-348zM252 743q-20 0 -82.5 10t-84.5 10q-19 0 -31.5 -9t-27.5 -33l-13 7q23 70 45.5 102.5t57.5 32.5q21 0 82.5 -10.5
t83.5 -10.5q33 0 60 43l13 -7q-23 -72 -44 -103.5t-59 -31.5z" />
    <glyph glyph-name="itilde" unicode="&#x129;" horiz-adv-x="299" 
d="M2 0v15l21 6q28 7 34 15.5t6 41.5v336q0 31 -5.5 41t-29.5 26l-31 20v9l236 25l7 -5q-4 -55 -4 -125v-327q0 -33 6 -41t35 -16l20 -6v-15h-295zM3 571l-12 7q24 71 45 103t56 32q20 0 72.5 -9.5t73.5 -9.5q20 0 32.5 9.5t26.5 33.5l13 -7q-23 -72 -44 -103.5t-58 -31.5
q-20 0 -72.5 9t-73.5 9q-20 0 -32.5 -9.5t-26.5 -32.5z" />
    <glyph glyph-name="Imacron" unicode="&#x12a;" horiz-adv-x="362" 
d="M7 0v15l32 7q29 7 36 18.5t7 57.5v497q0 46 -7 57.5t-36 18.5l-32 7v15h348v-15l-32 -7q-29 -7 -36 -18t-7 -58v-497q0 -47 7 -58t36 -18l32 -7v-15h-348zM44 755v63h276v-63h-276z" />
    <glyph glyph-name="imacron" unicode="&#x12b;" horiz-adv-x="299" 
d="M2 0v16l21 5q28 8 34 17t6 43v331q0 32 -5 42t-30 26l-31 21v9l236 25l7 -5q-4 -76 -4 -125v-324q0 -34 6 -43t35 -17l20 -5v-16h-295zM6 612v62h270v-62h-270z" />
    <glyph glyph-name="Ibreve" unicode="&#x12c;" horiz-adv-x="362" 
d="M7 0v15l32 7q29 7 36 18.5t7 57.5v497q0 46 -7 57.5t-36 18.5l-32 7v15h348v-15l-32 -7q-29 -7 -36 -18t-7 -58v-497q0 -47 7 -58t36 -18l32 -7v-15h-348zM181 726q-115 0 -137 150l10 4q21 -33 48.5 -47t78.5 -14q48 0 76.5 14.5t50.5 46.5l10 -4q-8 -69 -42.5 -109.5
t-94.5 -40.5z" />
    <glyph glyph-name="ibreve" unicode="&#x12d;" horiz-adv-x="299" 
d="M2 0v15l21 6q28 7 34 15.5t6 41.5v336q0 31 -5.5 41t-29.5 26l-31 20v9l236 25l7 -5q-4 -55 -4 -125v-327q0 -33 6 -41t35 -16l20 -6v-15h-295zM150 575q-104 0 -127 150l10 4q30 -59 118 -59q84 0 116 59l10 -4q-8 -67 -40 -108.5t-87 -41.5z" />
    <glyph glyph-name="Iogonek" unicode="&#x12e;" horiz-adv-x="362" 
d="M355 0h-86q-44 -53 -44 -114q0 -44 43 -44q19 0 32 4v-14q-34 -36 -88 -36q-50 0 -76.5 20.5t-26.5 55.5q0 75 141 128h-243v15l32 7q29 7 36 18.5t7 57.5v497q0 46 -7 57.5t-36 18.5l-32 7v15h348v-15l-32 -7q-29 -7 -36 -18t-7 -58v-497q0 -47 7 -58t36 -18l32 -7v-15z
" />
    <glyph glyph-name="iogonek" unicode="&#x12f;" horiz-adv-x="299" 
d="M58 663q0 36 25 58.5t62 22.5q38 0 63 -22.5t25 -58.5q0 -37 -25 -59t-63 -22t-62.5 22t-24.5 59zM194 0h-192v15l21 6q28 7 34 15.5t6 41.5v336q0 31 -5.5 41t-29.5 26l-31 20v9l236 25l7 -5q-4 -55 -4 -125v-327q0 -33 6 -41t35 -16l20 -6v-15h-84q-44 -53 -44 -114
q0 -44 43 -44q20 0 32 4v-14q-32 -36 -88 -36q-50 0 -76.5 20.5t-26.5 55.5q0 75 141 128z" />
    <glyph glyph-name="Idotaccent" unicode="&#x130;" horiz-adv-x="362" 
d="M7 0v15l32 7q29 7 36 18.5t7 57.5v497q0 46 -7 57.5t-36 18.5l-32 7v15h348v-15l-32 -7q-29 -7 -36 -18t-7 -58v-497q0 -47 7 -58t36 -18l32 -7v-15h-348zM181 725q-38 0 -63 22.5t-25 59.5q0 36 25 58.5t63 22.5t63 -22.5t25 -58.5q0 -37 -25 -59.5t-63 -22.5z" />
    <glyph glyph-name="dotlessi" unicode="&#x131;" horiz-adv-x="299" 
d="M2 0v15l21 6q28 7 34 15.5t6 41.5v336q0 31 -5.5 41t-29.5 26l-31 20v9l236 25l7 -5q-4 -55 -4 -125v-327q0 -33 6 -41t35 -16l20 -6v-15h-295z" />
    <glyph glyph-name="IJ" unicode="&#x132;" horiz-adv-x="859" 
d="M7 0v15l32 7q29 7 36 18.5t7 57.5v497q0 46 -7 57.5t-36 18.5l-32 7v15h346v-15l-30 -7q-29 -7 -36 -18t-7 -58v-497q0 -47 7 -58t36 -18l32 -7v-15h-348zM521 -10q-82 0 -127 30.5t-45 78.5q0 37 21.5 57t60.5 20q45 0 66 -26.5t25 -104.5q3 -25 21 -25q40 0 40 91v484
q0 47 -6.5 58.5t-35.5 17.5l-31 7v15h343v-15l-30 -7q-29 -8 -35.5 -18.5t-6.5 -57.5v-350q0 -115 -69 -185t-191 -70z" />
    <glyph glyph-name="ij" unicode="&#x133;" horiz-adv-x="582" 
d="M2 0v15l21 6q28 7 34 15.5t6 41.5v336q0 31 -5.5 41t-29.5 26l-31 20v9l236 25l7 -5q-4 -55 -4 -125v-327q0 -33 6 -41t35 -16l20 -6v-15h-295zM58 663q0 36 25 58.5t62 22.5q38 0 63 -22.5t25 -58.5q0 -37 -25 -59t-63 -22t-62.5 22t-24.5 59zM533 405v-386
q0 -99 -62 -160t-158 -61q-71 0 -109.5 26t-38.5 71q0 31 19 48.5t54 17.5q37 0 54.5 -21.5t22.5 -84.5q1 -18 4 -23.5t11 -5.5q31 0 31 71v517q0 31 -5.5 41t-30.5 26l-30 20v9l235 25l7 -5q-4 -80 -4 -125zM355 663q0 36 25 58.5t62 22.5q38 0 63 -22.5t25 -58.5
q0 -37 -25 -59t-63 -22t-62.5 22t-24.5 59z" />
    <glyph glyph-name="Jcircumflex" unicode="&#x134;" horiz-adv-x="503" 
d="M171 723l-5 9l131 142h56l132 -142l-6 -9l-154 46zM165 -10q-81 0 -126 30.5t-45 78.5q0 37 22 57t60 20q45 0 65.5 -26.5t25.5 -104.5q1 -25 21 -25q39 0 39 91v484q0 47 -6.5 58.5t-34.5 17.5l-31 7v15h343v-15l-30 -7q-30 -8 -36.5 -18.5t-6.5 -57.5v-350
q0 -115 -69 -185t-191 -70z" />
    <glyph glyph-name="jcircumflex" unicode="&#x135;" horiz-adv-x="283" 
d="M116 734h52l119 -154l-5 -8l-140 57l-139 -57l-5 8zM234 405v-386q0 -99 -62 -160t-158 -61q-71 0 -109.5 26t-38.5 71q0 31 19 48.5t54 17.5q37 0 54.5 -21.5t22.5 -84.5q1 -18 4 -23.5t11 -5.5q31 0 31 71v517q0 31 -5.5 41t-30.5 26l-30 20v9l235 25l7 -5
q-4 -80 -4 -125z" />
    <glyph glyph-name="Kcommaaccent" unicode="&#x136;" horiz-adv-x="720" 
d="M486 0q-112 147 -189 326v17l182 213q35 41 35 74q0 29 -39 39l-29 9v15h243v-15l-24 -6q-28 -8 -52.5 -26t-63.5 -61l-117 -132q53 -111 119.5 -223t121.5 -182q20 -24 40 -28l15 -5v-15h-242zM7 0v15l30 7q28 8 35 19t7 57v497q0 46 -7 57t-35 19l-30 7v15h341v-15
l-27 -7q-30 -8 -36.5 -19t-6.5 -57v-497q0 -46 6.5 -56.5t36.5 -19.5l27 -7v-15h-341zM271 -244l-2 10q95 27 103 92q-13 -13 -38 -13t-40.5 15t-15.5 39q0 25 20.5 43t53.5 18q35 0 58.5 -22.5t23.5 -56.5q0 -53 -43.5 -86t-119.5 -39z" />
    <glyph glyph-name="kcommaaccent" unicode="&#x137;" horiz-adv-x="593" 
d="M392 0q-87 114 -144 245v10l109 120q51 58 51 86q0 29 -46 41l-15 5v15h224v-16l-11 -3q-47 -11 -93 -58l-95 -95q37 -76 92 -166.5t91 -135.5q20 -26 38 -30l9 -3v-15h-210zM236 630v-551q0 -36 5 -44t30 -15l17 -5v-15h-286v15l20 6q29 7 35 15.5t6 42.5v558
q0 38 -5 48.5t-29 23.5l-32 15v11l235 22l8 -5q-4 -55 -4 -122zM223 -244l-2 10q95 27 103 92q-13 -13 -38 -13t-40.5 15t-15.5 39q0 25 20.5 43t53.5 18q35 0 58.5 -22.5t23.5 -56.5q0 -53 -43.5 -86t-119.5 -39z" />
    <glyph glyph-name="Lacute" unicode="&#x139;" horiz-adv-x="584" 
d="M77 724l-4 10l124 120q25 26 55 26q27 0 45 -19.5t18 -47.5q0 -51 -56 -60zM7 0v15l30 7q28 8 35 19t7 57v497q0 46 -7 57t-35 19l-30 7v15h348v-15l-34 -7q-30 -6 -36.5 -17.5t-6.5 -58.5v-499q0 -42 13 -54t66 -12q59 0 80 11t45 52q33 56 77 170h18l-18 -263h-552z
" />
    <glyph glyph-name="lacute" unicode="&#x13a;" horiz-adv-x="303" 
d="M39 784l-4 10l124 120q25 26 55 26q27 0 45 -19.5t18 -47.5q0 -51 -56 -60zM238 630v-551q0 -33 7 -41.5t37 -16.5l20 -6v-15h-300v15l20 6q31 8 37 16.5t6 41.5v557q0 38 -5.5 49t-30.5 24l-32 15v11l237 22l8 -5q-4 -55 -4 -122z" />
    <glyph glyph-name="Lcommaaccent" unicode="&#x13b;" horiz-adv-x="584" 
d="M219 -244l-2 10q95 27 103 92q-13 -13 -38 -13t-40.5 15t-15.5 39q0 25 20.5 43t53.5 18q35 0 58.5 -22.5t23.5 -56.5q0 -53 -43.5 -86t-119.5 -39zM7 0v15l30 7q28 8 35 19t7 57v497q0 46 -7 57t-35 19l-30 7v15h348v-15l-34 -7q-30 -6 -36.5 -17.5t-6.5 -58.5v-499
q0 -42 13 -54t66 -12q59 0 80 11t45 52q33 56 77 170h18l-18 -263h-552z" />
    <glyph glyph-name="lcommaaccent" unicode="&#x13c;" horiz-adv-x="303" 
d="M65 -244l-2 10q95 27 103 92q-13 -13 -38 -13t-40.5 15t-15.5 39q0 25 20.5 43t53.5 18q35 0 58.5 -22.5t23.5 -56.5q0 -53 -43.5 -86t-119.5 -39zM238 630v-551q0 -33 7 -41.5t37 -16.5l20 -6v-15h-300v15l20 6q31 8 37 16.5t6 41.5v557q0 38 -5.5 49t-30.5 24l-32 15
v11l237 22l8 -5q-4 -55 -4 -122z" />
    <glyph glyph-name="Lcaron" unicode="&#x13d;" horiz-adv-x="584" 
d="M394 513l-10 4l4 139q0 49 46 49q23 0 40 -14t19 -32q0 -23 -16 -41zM7 0v15l30 7q28 8 35 19t7 57v497q0 46 -7 57t-35 19l-30 7v15h348v-15l-34 -7q-30 -6 -36.5 -17.5t-6.5 -58.5v-499q0 -42 13 -54t66 -12q59 0 80 11t45 52q33 56 77 170h18l-18 -263h-552z" />
    <glyph glyph-name="lcaron" unicode="&#x13e;" horiz-adv-x="303" 
d="M281 569l-10 4l4 139q0 49 46 49q23 0 40 -14t19 -32q0 -23 -16 -41zM238 630v-551q0 -33 7 -41.5t37 -16.5l20 -6v-15h-300v15l20 6q31 8 37 16.5t6 41.5v557q0 38 -5.5 49t-30.5 24l-32 15v11l237 22l8 -5q-4 -55 -4 -122z" />
    <glyph glyph-name="Ldot" unicode="&#x13f;" horiz-adv-x="584" 
d="M7 0v15l30 7q28 8 35 19t7 57v497q0 46 -7 57t-35 19l-30 7v15h348v-15l-34 -7q-30 -6 -36.5 -17.5t-6.5 -58.5v-499q0 -42 13 -54t66 -12q60 0 84 11.5t50 51.5q31 45 66 132h18l-16 -225h-552zM480 295q-36 0 -61.5 25t-25.5 61q0 38 25 62.5t62 24.5q35 0 61 -25
t26 -62q0 -36 -26 -61t-61 -25z" />
    <glyph glyph-name="ldot" unicode="&#x140;" horiz-adv-x="439" 
d="M238 630v-551q0 -33 7 -41.5t37 -16.5l20 -6v-15h-300v15l20 6q31 8 37 16.5t6 41.5v557q0 38 -5.5 49t-30.5 24l-32 15v11l237 22l8 -5q-4 -55 -4 -122zM271 370q0 36 24.5 60t60.5 24q35 0 61 -24t26 -60q0 -35 -26.5 -60.5t-60.5 -25.5q-35 0 -60 25t-25 61z" />
    <glyph glyph-name="Lslash" unicode="&#x141;" horiz-adv-x="585" 
d="M7 242v31l73 25v297q0 46 -7 57t-35 19l-30 7v15h348v-15l-34 -7q-30 -6 -36.5 -17.5t-6.5 -58.5v-229l186 65v-31l-186 -65v-237q0 -42 13 -54t66 -12q60 0 81 10t44 51q33 56 77 170h18l-18 -263h-552v15l30 7q28 8 35 19t7 57v169z" />
    <glyph glyph-name="lslash" unicode="&#x142;" horiz-adv-x="303" 
d="M239 630v-145l65 35v-35l-65 -35v-371q0 -33 7 -41.5t37 -16.5l20 -6v-15h-301v15l20 6q31 8 37 16.5t6 41.5v278l-65 -34v36l65 34v243q0 38 -5.5 49t-30.5 24l-32 15v11l237 22l9 -5q-4 -55 -4 -122z" />
    <glyph glyph-name="Nacute" unicode="&#x143;" horiz-adv-x="670" 
d="M253 724l-4 10l124 120q25 26 55 26q27 0 45 -19.5t18 -47.5q0 -51 -56 -60zM534 -1l-415 585h-3v-461q0 -59 8 -75.5t41 -24.5l33 -8v-15h-191v15l30 8q27 8 34.5 24.5t7.5 70.5v477q0 39 -8.5 54t-34.5 22l-29 7v15h268l276 -384h3v261q0 59 -7.5 75t-40.5 24l-36 9v15
h193v-15l-30 -8q-27 -7 -34.5 -23.5t-7.5 -71.5v-576h-57z" />
    <glyph glyph-name="nacute" unicode="&#x144;" horiz-adv-x="620" 
d="M221 575l-4 10l118 123q27 28 58 28q25 0 43.5 -20.5t18.5 -48.5q0 -21 -13 -38t-38 -21zM2 0v15l21 6q28 7 34 15.5t6 41.5v335q0 32 -5 41.5t-28 25.5l-31 21v9l226 25l8 -5l-1 -72h3q106 78 192 78q62 0 96 -34t34 -100v-324q0 -33 6 -41t35 -16l21 -6v-15h-290v15
l19 5q26 6 31 14.5t5 43.5v291q0 42 -15.5 59t-48.5 17q-44 0 -84 -12v-355q0 -35 5.5 -43.5t30.5 -14.5l19 -5v-15h-289z" />
    <glyph glyph-name="Ncommaaccent" unicode="&#x145;" horiz-adv-x="670" 
d="M244 -244l-2 10q95 27 103 92q-13 -13 -38 -13t-40.5 15t-15.5 39q0 25 20.5 43t53.5 18q35 0 58.5 -22.5t23.5 -56.5q0 -53 -43.5 -86t-119.5 -39zM534 -1l-415 585h-3v-461q0 -59 8 -75.5t41 -24.5l33 -8v-15h-191v15l30 8q27 8 34.5 24.5t7.5 70.5v477q0 39 -8.5 54
t-34.5 22l-29 7v15h268l276 -384h3v261q0 59 -7.5 75t-40.5 24l-36 9v15h193v-15l-30 -8q-27 -7 -34.5 -23.5t-7.5 -71.5v-576h-57z" />
    <glyph glyph-name="ncommaaccent" unicode="&#x146;" horiz-adv-x="620" 
d="M220 -244l-2 10q95 27 103 92q-13 -13 -38 -13t-40.5 15t-15.5 39q0 25 20.5 43t53.5 18q35 0 58.5 -22.5t23.5 -56.5q0 -53 -43.5 -86t-119.5 -39zM2 0v15l21 6q28 7 34 15.5t6 41.5v335q0 32 -5 41.5t-28 25.5l-31 21v9l226 25l8 -5l-1 -72h3q106 78 192 78
q62 0 96 -34t34 -100v-324q0 -33 6 -41t35 -16l21 -6v-15h-290v15l19 5q26 6 31 14.5t5 43.5v291q0 42 -15.5 59t-48.5 17q-44 0 -84 -12v-355q0 -35 5.5 -43.5t30.5 -14.5l19 -5v-15h-289z" />
    <glyph glyph-name="Ncaron" unicode="&#x147;" horiz-adv-x="670" 
d="M184 872l5 9l154 -46l154 46l6 -9l-132 -142h-56zM534 -1l-415 585h-3v-461q0 -59 8 -75.5t41 -24.5l33 -8v-15h-191v15l30 8q27 8 34.5 24.5t7.5 70.5v477q0 39 -8.5 54t-34.5 22l-29 7v15h268l276 -384h3v261q0 59 -7.5 75t-40.5 24l-36 9v15h193v-15l-30 -8
q-27 -7 -34.5 -23.5t-7.5 -71.5v-576h-57z" />
    <glyph glyph-name="ncaron" unicode="&#x148;" horiz-adv-x="620" 
d="M334 579h-52l-118 154l5 9l139 -58l140 58l5 -9zM2 0v15l21 6q28 7 34 15.5t6 41.5v335q0 32 -5 41.5t-28 25.5l-31 21v9l226 25l8 -5l-1 -72h3q106 78 192 78q62 0 96 -34t34 -100v-324q0 -33 6 -41t35 -16l21 -6v-15h-290v15l19 5q26 6 31 14.5t5 43.5v291
q0 42 -15.5 59t-48.5 17q-44 0 -84 -12v-355q0 -35 5.5 -43.5t30.5 -14.5l19 -5v-15h-289z" />
    <glyph glyph-name="napostrophe" unicode="&#x149;" horiz-adv-x="667" 
d="M-92 460l-3 12q103 37 101 120q-12 -20 -39 -20q-26 0 -42.5 17t-16.5 46q0 32 22 51t55 19q37 0 62.5 -25t25.5 -69q0 -122 -165 -151zM50 0v15l21 6q28 7 34 15.5t6 41.5v335q0 32 -5 41.5t-28 25.5l-31 21v9l226 25l8 -5l-1 -72h3q106 78 192 78q62 0 96 -34t34 -100
v-324q0 -33 6 -41t35 -16l21 -6v-15h-290v15l19 5q26 6 31 14.5t5 43.5v291q0 42 -15.5 59t-48.5 17q-44 0 -84 -12v-355q0 -35 5.5 -43.5t30.5 -14.5l19 -5v-15h-289z" />
    <glyph glyph-name="Eng" unicode="&#x14a;" horiz-adv-x="670" 
d="M551 -25l-432 609h-3v-461q0 -59 8 -75.5t41 -24.5l33 -8v-15h-191v15l30 8q27 7 34.5 23.5t7.5 71.5v477q0 39 -8.5 54t-34.5 22l-29 7v15h268l276 -384h3v261q0 59 -7.5 75t-40.5 24l-36 9v15h193v-15l-30 -8q-27 -7 -34.5 -23.5t-7.5 -71.5v-582q0 -176 -150 -176
q-64 0 -96 27t-32 68q0 26 18 43t48 17q34 0 50.5 -19t27.5 -69q6 -31 25 -31q26 0 47 31t22 91z" />
    <glyph glyph-name="eng" unicode="&#x14b;" horiz-adv-x="604" 
d="M384 369q0 42 -15.5 59t-48.5 17q-44 0 -84 -12v-355q0 -35 5.5 -43.5t30.5 -14.5l19 -5v-15h-289v15l21 6q28 7 34 15.5t6 41.5v335q0 32 -5 41.5t-28 25.5l-31 21v9l226 25l8 -5l-1 -72h3q106 78 192 78q62 0 96 -34t34 -100v-374q0 -103 -63 -166.5t-157 -63.5
q-68 0 -104.5 23.5t-36.5 64.5q0 28 17 43.5t48 15.5q33 0 49.5 -21t20.5 -76q3 -24 14 -24q15 0 27 17.5t12 55.5v472z" />
    <glyph glyph-name="Omacron" unicode="&#x14c;" horiz-adv-x="727" 
d="M225 755v63h276v-63h-276zM361 -12q-67 0 -127 21t-108 62.5t-76.5 110t-28.5 156.5q0 95 31 168.5t82.5 115t110.5 62.5t122 21q54 0 102.5 -12t92.5 -38.5t75.5 -66.5t50.5 -100t19 -134q0 -77 -21 -140t-55 -104.5t-79.5 -69.5t-93 -40t-97.5 -12zM364 16
q72 0 104 69.5t32 246.5q0 192 -32 268.5t-105 76.5q-70 0 -103 -71t-33 -246q0 -193 32 -268.5t105 -75.5z" />
    <glyph glyph-name="omacron" unicode="&#x14d;" horiz-adv-x="583" 
d="M155 612v62h272v-62h-272zM291 -12q-117 0 -196.5 70.5t-79.5 201.5q0 93 41.5 157.5t102 91.5t132.5 27q117 0 196.5 -70t79.5 -202q0 -70 -23 -124.5t-62.5 -87t-88 -48.5t-102.5 -16zM294 15q34 0 53 17t30 70.5t11 152.5q0 104 -13 161.5t-32.5 75t-53.5 17.5
q-31 0 -50.5 -18t-31.5 -71.5t-12 -146.5q0 -107 11 -164t31 -75.5t57 -18.5z" />
    <glyph glyph-name="Obreve" unicode="&#x14e;" horiz-adv-x="727" 
d="M361 726q-115 0 -137 150l10 4q21 -33 48.5 -47t78.5 -14q48 0 76.5 14.5t50.5 46.5l10 -4q-8 -69 -42.5 -109.5t-94.5 -40.5zM361 -12q-67 0 -127 21t-108 62.5t-76.5 110t-28.5 156.5q0 95 31 168.5t82.5 115t110.5 62.5t122 21q54 0 102.5 -12t92.5 -38.5t75.5 -66.5
t50.5 -100t19 -134q0 -77 -21 -140t-55 -104.5t-79.5 -69.5t-93 -40t-97.5 -12zM364 16q72 0 104 69.5t32 246.5q0 192 -32 268.5t-105 76.5q-70 0 -103 -71t-33 -246q0 -193 32 -268.5t105 -75.5z" />
    <glyph glyph-name="obreve" unicode="&#x14f;" horiz-adv-x="583" 
d="M291 -12q-117 0 -196.5 70.5t-79.5 201.5q0 93 41.5 157.5t102 91.5t132.5 27q117 0 196.5 -70t79.5 -202q0 -70 -23 -124.5t-62.5 -87t-88 -48.5t-102.5 -16zM294 15q34 0 53 17t30 70.5t11 152.5q0 104 -13 161.5t-32.5 75t-53.5 17.5q-31 0 -50.5 -18t-31.5 -71.5
t-12 -146.5q0 -107 11 -164t31 -75.5t57 -18.5zM291 575q-104 0 -127 150l10 4q30 -59 118 -59q84 0 116 59l10 -4q-8 -67 -40 -108.5t-87 -41.5z" />
    <glyph glyph-name="Ohungarumlaut" unicode="&#x150;" horiz-adv-x="727" 
d="M266 725l-10 7l51 120q19 47 53 47q22 0 40.5 -17.5t18.5 -40.5q0 -34 -47 -60zM436 725l-9 7l50 120q20 47 53 47q22 0 41 -17.5t19 -40.5q0 -35 -48 -60zM361 -12q-67 0 -127 21t-108 62.5t-76.5 110t-28.5 156.5q0 95 31 168.5t82.5 115t110.5 62.5t122 21
q54 0 102.5 -12t92.5 -38.5t75.5 -66.5t50.5 -100t19 -134q0 -77 -21 -140t-55 -104.5t-79.5 -69.5t-93 -40t-97.5 -12zM364 16q72 0 104 69.5t32 246.5q0 192 -32 268.5t-105 76.5q-70 0 -103 -71t-33 -246q0 -193 32 -268.5t105 -75.5z" />
    <glyph glyph-name="ohungarumlaut" unicode="&#x151;" horiz-adv-x="583" 
d="M168 567l-9 7l56 130q19 44 54 44q22 0 41 -17.5t19 -40.5q0 -37 -46 -62zM335 567l-9 7l56 130q19 44 55 44q22 0 40.5 -17.5t18.5 -40.5q0 -37 -46 -62zM291 -12q-117 0 -196.5 70.5t-79.5 201.5q0 93 41.5 157.5t102 91.5t132.5 27q117 0 196.5 -70t79.5 -202
q0 -70 -23 -124.5t-62.5 -87t-88 -48.5t-102.5 -16zM294 15q34 0 53 17t30 70.5t11 152.5q0 104 -13 161.5t-32.5 75t-53.5 17.5q-31 0 -50.5 -18t-31.5 -71.5t-12 -146.5q0 -107 11 -164t31 -75.5t57 -18.5z" />
    <glyph glyph-name="OE" unicode="&#x152;" horiz-adv-x="982" 
d="M967 251l-14 -251h-580q-162 0 -257 80.5t-95 258.5q0 90 28.5 159.5t78.5 111t113.5 62.5t138.5 21h553l10 -213h-17q-34 78 -63 124q-21 35 -45.5 46.5t-75.5 11.5q-56 0 -84 -7v-281h35q51 0 67.5 6t26.5 25q18 34 31 87h16v-270h-16q-12 53 -31 91q-9 19 -26.5 25
t-68.5 6h-34v-242q0 -46 14 -58.5t75 -12.5q59 0 81 11.5t47 51.5q37 60 74 157h18zM384 30q44 0 60 21t16 69v462q0 46 -17.5 64t-64.5 18q-151 0 -151 -303q0 -179 34.5 -255t122.5 -76z" />
    <glyph glyph-name="oe" unicode="&#x153;" horiz-adv-x="900" 
d="M291 -12q-117 0 -196.5 70.5t-79.5 201.5q0 137 81.5 206.5t195.5 69.5q121 0 188 -82q71 82 174 82q228 0 232 -242h-328q1 -126 42 -173.5t129 -47.5q74 0 139 35v-17q-31 -41 -87.5 -72t-128.5 -31q-125 0 -185 74q-71 -74 -176 -74zM293 15q33 0 52 17t30 70.5
t11 152.5q0 104 -12.5 161.5t-32 75t-52.5 17.5q-30 0 -49.5 -18t-31.5 -71.5t-12 -146.5q0 -107 10.5 -164t30.5 -75.5t56 -18.5zM647 510q-86 0 -89 -193l159 11q0 105 -15 143.5t-55 38.5z" />
    <glyph glyph-name="Racute" unicode="&#x154;" horiz-adv-x="703" 
d="M242 724l-4 10l124 120q25 26 55 26q27 0 45 -19.5t18 -47.5q0 -51 -56 -60zM7 0v15l30 7q28 8 35 19t7 57v497q0 46 -7 57t-35 19l-30 7v15h349q144 0 210.5 -43.5t66.5 -134.5q0 -67 -31.5 -106.5t-98.5 -60.5v-3q89 -195 160 -292q19 -27 43 -33l18 -5v-15h-254
q-75 110 -154 311q-22 0 -37 1v-214q0 -46 6 -57.5t33 -18.5l29 -7v-15h-340zM321 340q59 0 86 34.5t27 123.5q0 87 -21.5 125t-75.5 38q-35 0 -58 -5v-312q20 -4 42 -4z" />
    <glyph glyph-name="racute" unicode="&#x155;" horiz-adv-x="460" 
d="M144 575l-4 10l118 123q27 28 58 28q25 0 43.5 -20.5t18.5 -48.5q0 -21 -13 -38t-38 -21zM2 0v15l21 6q28 7 34 15.5t6 42.5v335q0 31 -5 40.5t-28 25.5l-31 21v9l226 25l8 -5v-78h2q74 83 147 83q35 0 56 -20.5t21 -57.5q0 -38 -21 -60t-55 -22q-51 0 -72 49
q-6 13 -10.5 17t-13.5 4q-27 0 -51 -21v-345q0 -34 6.5 -43.5t33.5 -14.5l27 -5v-16h-301z" />
    <glyph glyph-name="Rcommaaccent" unicode="&#x156;" horiz-adv-x="703" 
d="M254 -244l-2 10q95 27 103 92q-13 -13 -38 -13t-40.5 15t-15.5 39q0 25 20.5 43t53.5 18q35 0 58.5 -22.5t23.5 -56.5q0 -53 -43.5 -86t-119.5 -39zM7 0v15l30 7q28 8 35 19t7 57v497q0 46 -7 57t-35 19l-30 7v15h349q144 0 210.5 -43.5t66.5 -134.5q0 -67 -31.5 -106.5
t-98.5 -60.5v-3q89 -195 160 -292q19 -27 43 -33l18 -5v-15h-254q-75 110 -154 311q-22 0 -37 1v-214q0 -46 6 -57.5t33 -18.5l29 -7v-15h-340zM321 340q59 0 86 34.5t27 123.5q0 87 -21.5 125t-75.5 38q-35 0 -58 -5v-312q20 -4 42 -4z" />
    <glyph glyph-name="rcommaaccent" unicode="&#x157;" horiz-adv-x="460" 
d="M61 -244l-2 10q95 27 103 92q-13 -13 -38 -13t-40.5 15t-15.5 39q0 25 20.5 43t53.5 18q35 0 58.5 -22.5t23.5 -56.5q0 -53 -43.5 -86t-119.5 -39zM2 0v15l21 6q28 7 34 15.5t6 42.5v335q0 31 -5 40.5t-28 25.5l-31 21v9l226 25l8 -5v-78h2q74 83 147 83q35 0 56 -20.5
t21 -57.5q0 -38 -21 -60t-55 -22q-51 0 -72 49q-6 13 -10.5 17t-13.5 4q-27 0 -51 -21v-345q0 -34 6.5 -43.5t33.5 -14.5l27 -5v-16h-301z" />
    <glyph glyph-name="Rcaron" unicode="&#x158;" horiz-adv-x="703" 
d="M172 872l5 9l154 -46l154 46l6 -9l-132 -142h-56zM7 0v15l30 7q28 8 35 19t7 57v497q0 46 -7 57t-35 19l-30 7v15h349q144 0 210.5 -43.5t66.5 -134.5q0 -67 -31.5 -106.5t-98.5 -60.5v-3q89 -195 160 -292q19 -27 43 -33l18 -5v-15h-254q-75 110 -154 311q-22 0 -37 1
v-214q0 -46 6 -57.5t33 -18.5l29 -7v-15h-340zM321 340q59 0 86 34.5t27 123.5q0 87 -21.5 125t-75.5 38q-35 0 -58 -5v-312q20 -4 42 -4z" />
    <glyph glyph-name="rcaron" unicode="&#x159;" horiz-adv-x="460" 
d="M264 579h-52l-118 154l5 9l139 -58l140 58l5 -9zM2 0v15l21 6q28 7 34 15.5t6 42.5v335q0 31 -5 40.5t-28 25.5l-31 21v9l226 25l8 -5v-78h2q74 83 147 83q35 0 56 -20.5t21 -57.5q0 -38 -21 -60t-55 -22q-51 0 -72 49q-6 13 -10.5 17t-13.5 4q-27 0 -51 -21v-345
q0 -34 6.5 -43.5t33.5 -14.5l27 -5v-16h-301z" />
    <glyph glyph-name="Sacute" unicode="&#x15a;" horiz-adv-x="513" 
d="M233 -12q-137 0 -206 32l-12 204h18q49 -98 81 -140q28 -36 57 -52t72 -16q51 0 79 29t28 79q0 51 -30.5 81.5t-112.5 61.5q-103 37 -146 86.5t-43 131.5q0 95 71 157.5t184 62.5q109 0 175 -30l10 -183h-19q-42 92 -77 132q-26 30 -48.5 41.5t-55.5 11.5q-48 0 -76 -26
t-28 -72q0 -44 28.5 -71.5t106.5 -58.5q117 -44 164 -92.5t47 -128.5q0 -98 -72 -169t-195 -71zM164 724l-4 10l124 120q25 26 55 26q27 0 45 -19.5t18 -47.5q0 -51 -56 -60z" />
    <glyph glyph-name="sacute" unicode="&#x15b;" horiz-adv-x="430" 
d="M112 575l-4 10l118 123q27 28 58 28q25 0 43.5 -20.5t18.5 -48.5q0 -21 -13 -38t-38 -21zM188 -12q-90 0 -163 21l-5 166h17q37 -69 69 -109q20 -28 41 -39t56 -11q36 0 58.5 20t22.5 54q0 33 -24 52.5t-100 49.5q-72 26 -106.5 65t-34.5 101q0 76 56 127t160 51
q84 0 139 -21l6 -141h-15q-45 70 -62 89q-22 24 -40.5 34.5t-47.5 10.5q-35 0 -56 -18t-21 -48q0 -32 22.5 -50.5t87.5 -42.5q90 -33 128 -73.5t38 -102.5q0 -83 -59 -134t-167 -51z" />
    <glyph glyph-name="Scircumflex" unicode="&#x15c;" horiz-adv-x="513" 
d="M103 723l-5 9l131 142h56l132 -142l-6 -9l-154 46zM233 -12q-137 0 -206 32l-12 204h18q49 -98 81 -140q28 -36 57 -52t72 -16q51 0 79 29t28 79q0 51 -30.5 81.5t-112.5 61.5q-103 37 -146 86.5t-43 131.5q0 95 71 157.5t184 62.5q109 0 175 -30l10 -183h-19
q-42 92 -77 132q-26 30 -48.5 41.5t-55.5 11.5q-48 0 -76 -26t-28 -72q0 -44 28.5 -71.5t106.5 -58.5q117 -44 164 -92.5t47 -128.5q0 -98 -72 -169t-195 -71z" />
    <glyph glyph-name="scircumflex" unicode="&#x15d;" horiz-adv-x="430" 
d="M189 734h52l119 -154l-5 -8l-140 57l-139 -57l-5 8zM188 -12q-90 0 -163 21l-5 166h17q37 -69 69 -109q20 -28 41 -39t56 -11q36 0 58.5 20t22.5 54q0 33 -24 52.5t-100 49.5q-72 26 -106.5 65t-34.5 101q0 76 56 127t160 51q84 0 139 -21l6 -141h-15q-45 70 -62 89
q-22 24 -40.5 34.5t-47.5 10.5q-35 0 -56 -18t-21 -48q0 -32 22.5 -50.5t87.5 -42.5q90 -33 128 -73.5t38 -102.5q0 -83 -59 -134t-167 -51z" />
    <glyph glyph-name="Scedilla" unicode="&#x15e;" horiz-adv-x="513" 
d="M147 -201v13q84 21 84 60q0 24 -40 27l-4 4l41 85q-137 1 -201 32l-12 204h18q49 -98 81 -140q28 -36 57 -52t72 -16q51 0 79 29t28 79q0 51 -30.5 81.5t-112.5 61.5q-103 37 -146 86.5t-43 131.5q0 95 71 157.5t184 62.5q109 0 175 -30l10 -183h-19q-42 92 -77 132
q-26 30 -48.5 41.5t-55.5 11.5q-48 0 -76 -26t-28 -72q0 -44 28.5 -71.5t106.5 -58.5q117 -44 164 -92.5t47 -128.5q0 -92 -64.5 -161t-175.5 -78l-21 -31q84 -8 84 -64q0 -39 -51.5 -63.5t-124.5 -31.5z" />
    <glyph glyph-name="scedilla" unicode="&#x15f;" horiz-adv-x="430" 
d="M81 -201v13q84 21 84 60q0 24 -40 27l-4 4l41 86q-75 3 -137 20l-5 166h17q37 -69 69 -109q20 -28 41 -39t56 -11q36 0 58.5 20t22.5 54q0 33 -24 52.5t-100 49.5q-72 26 -106.5 65t-34.5 101q0 76 56 127t160 51q84 0 139 -21l6 -141h-15q-45 70 -62 89
q-22 24 -40.5 34.5t-47.5 10.5q-35 0 -56 -18t-21 -48q0 -32 22.5 -50.5t87.5 -42.5q90 -33 128 -73.5t38 -102.5q0 -82 -57.5 -133t-163.5 -52l-20 -30q84 -8 84 -64q0 -39 -51.5 -63.5t-124.5 -31.5z" />
    <glyph glyph-name="Scaron" unicode="&#x160;" horiz-adv-x="513" 
d="M100 872l5 9l154 -46l154 46l6 -9l-132 -142h-56zM233 -12q-137 0 -206 32l-12 204h18q49 -98 81 -140q28 -36 57 -52t72 -16q51 0 79 29t28 79q0 51 -30.5 81.5t-112.5 61.5q-103 37 -146 86.5t-43 131.5q0 95 71 157.5t184 62.5q109 0 175 -30l10 -183h-19
q-42 92 -77 132q-26 30 -48.5 41.5t-55.5 11.5q-48 0 -76 -26t-28 -72q0 -44 28.5 -71.5t106.5 -58.5q117 -44 164 -92.5t47 -128.5q0 -98 -72 -169t-195 -71z" />
    <glyph glyph-name="scaron" unicode="&#x161;" horiz-adv-x="430" 
d="M244 579h-52l-118 154l5 9l139 -58l140 58l5 -9zM188 -12q-90 0 -163 21l-5 166h17q37 -69 69 -109q20 -28 41 -39t56 -11q36 0 58.5 20t22.5 54q0 33 -24 52.5t-100 49.5q-72 26 -106.5 65t-34.5 101q0 76 56 127t160 51q84 0 139 -21l6 -141h-15q-45 70 -62 89
q-22 24 -40.5 34.5t-47.5 10.5q-35 0 -56 -18t-21 -48q0 -32 22.5 -50.5t87.5 -42.5q90 -33 128 -73.5t38 -102.5q0 -83 -59 -134t-167 -51z" />
    <glyph glyph-name="Tcommaaccent" unicode="&#x162;" horiz-adv-x="629" 
d="M225 -244l-2 10q95 27 103 92q-13 -13 -38 -13t-40.5 15t-15.5 39q0 25 20.5 43t53.5 18q35 0 58.5 -22.5t23.5 -56.5q0 -53 -43.5 -86t-119.5 -39zM438 663h-24v-565q0 -46 7.5 -56.5t41.5 -19.5l32 -7v-15h-361v15l32 7q34 8 42 19t8 57v565h-25q-34 0 -51 -11.5
t-35 -41.5q-29 -46 -79 -164h-17l8 247h595l9 -247h-18q-50 121 -78 164q-20 33 -35 43t-52 10z" />
    <glyph glyph-name="tcommaaccent" unicode="&#x163;" horiz-adv-x="360" 
d="M109 -244l-2 10q95 27 103 92q-13 -13 -38 -13t-40.5 15t-15.5 39q0 25 20.5 43t53.5 18q35 0 58.5 -22.5t23.5 -56.5q0 -53 -43.5 -86t-119.5 -39zM199 -12q-76 0 -111.5 35t-35.5 111v339h-55v11q61 22 112 69.5t75 103.5h41v-135h125l-7 -49h-118v-338
q0 -43 13.5 -57.5t52.5 -14.5q31 0 67 9v-15q-62 -69 -159 -69z" />
    <glyph glyph-name="Tcaron" unicode="&#x164;" horiz-adv-x="635" 
d="M155 872l5 9l154 -46l154 46l6 -9l-132 -142h-56zM438 663h-24v-565q0 -46 7.5 -56.5t41.5 -19.5l32 -7v-15h-361v15l32 7q34 8 42 19t8 57v565h-25q-34 0 -51 -11.5t-35 -41.5q-29 -46 -79 -164h-17l8 247h595l9 -247h-18q-50 121 -78 164q-20 33 -35 43t-52 10z" />
    <glyph glyph-name="tcaron" unicode="&#x165;" horiz-adv-x="360" 
d="M274 569l-10 4l4 139q0 49 46 49q23 0 40 -14t19 -32q0 -23 -16 -41zM199 -12q-76 0 -111.5 35t-35.5 111v339h-55v11q61 22 112 69.5t75 103.5h41v-135h125l-7 -49h-118v-338q0 -43 13.5 -57.5t52.5 -14.5q31 0 67 9v-15q-62 -69 -159 -69z" />
    <glyph glyph-name="Tbar" unicode="&#x166;" horiz-adv-x="635" 
d="M77 357v34h138v272h-24q-34 0 -51.5 -12t-34.5 -41q-26 -39 -79 -164h-18l9 247h595l8 -247h-17q-47 115 -78 164q-20 33 -35 43t-52 10h-24v-272h142v-34h-142v-259q0 -46 7.5 -56.5t41.5 -19.5l32 -7v-15h-361v15l32 7q34 8 41.5 19t7.5 57v259h-138z" />
    <glyph glyph-name="tbar" unicode="&#x167;" horiz-adv-x="360" 
d="M-3 328v33h55v112h-55v11q61 22 112 69.5t75 103.5h41v-135h125l-7 -49h-118v-112h123v-33h-123v-193q0 -43 13.5 -57.5t52.5 -14.5q31 0 67 9v-15q-62 -69 -159 -69q-76 0 -111.5 35t-35.5 111v194h-55z" />
    <glyph glyph-name="Utilde" unicode="&#x168;" horiz-adv-x="688" 
d="M371 -12q-143 0 -218.5 53.5t-75.5 178.5v375q0 46 -7 57t-37 19l-29 7v15h344v-15l-30 -7q-29 -8 -36.5 -19t-7.5 -57v-392q0 -82 37.5 -120.5t118.5 -38.5q77 0 111 43t34 126v357q0 58 -8 75t-41 24l-36 9v15h194v-15l-31 -8q-25 -6 -33 -24t-8 -71v-370
q0 -99 -59 -158t-182 -59zM483 743q-20 0 -82.5 10t-84.5 10q-20 0 -32 -9t-27 -33l-13 7q23 70 45.5 102.5t57.5 32.5q21 0 82.5 -10.5t83.5 -10.5q33 0 60 43l13 -7q-23 -72 -44 -103.5t-59 -31.5z" />
    <glyph glyph-name="utilde" unicode="&#x169;" horiz-adv-x="618" 
d="M383 91v320q0 33 -5 43.5t-28 25.5l-31 21v9l229 25l7 -5v-420q0 -38 5.5 -49t30.5 -20l25 -9v-12l-223 -32l-7 6v71h-3q-102 -77 -192 -77q-60 0 -94.5 34.5t-34.5 99.5v290q0 32 -5 41.5t-28 26.5l-30 21v9l228 25l8 -5v-369q0 -82 64 -82q34 0 84 12zM164 571l-12 7
q24 71 45 103t56 32q20 0 72.5 -9.5t73.5 -9.5q20 0 32.5 9.5t26.5 33.5l13 -7q-23 -72 -44 -103.5t-58 -31.5q-20 0 -72.5 9t-73.5 9q-20 0 -32.5 -9.5t-26.5 -32.5z" />
    <glyph glyph-name="Umacron" unicode="&#x16a;" horiz-adv-x="688" 
d="M371 -12q-143 0 -218.5 53.5t-75.5 178.5v375q0 46 -7 57t-37 19l-29 7v15h344v-15l-30 -7q-29 -8 -36.5 -19t-7.5 -57v-392q0 -82 37.5 -120.5t118.5 -38.5q77 0 111 43t34 126v357q0 58 -8 75t-41 24l-36 9v15h194v-15l-31 -8q-25 -6 -33 -24t-8 -71v-370
q0 -99 -59 -158t-182 -59zM254 755v63h276v-63h-276z" />
    <glyph glyph-name="umacron" unicode="&#x16b;" horiz-adv-x="618" 
d="M383 91v320q0 33 -5 43.5t-28 25.5l-31 21v9l229 25l7 -5v-420q0 -38 5.5 -49t30.5 -20l25 -9v-12l-223 -32l-7 6v71h-3q-102 -77 -192 -77q-60 0 -94.5 34.5t-34.5 99.5v290q0 32 -5 41.5t-28 26.5l-30 21v9l228 25l8 -5v-369q0 -82 64 -82q34 0 84 12zM170 612v62h272
v-62h-272z" />
    <glyph glyph-name="Ubreve" unicode="&#x16c;" horiz-adv-x="688" 
d="M371 -12q-143 0 -218.5 53.5t-75.5 178.5v375q0 46 -7 57t-37 19l-29 7v15h344v-15l-30 -7q-29 -8 -36.5 -19t-7.5 -57v-392q0 -82 37.5 -120.5t118.5 -38.5q77 0 111 43t34 126v357q0 58 -8 75t-41 24l-36 9v15h194v-15l-31 -8q-25 -6 -33 -24t-8 -71v-370
q0 -99 -59 -158t-182 -59zM398 726q-115 0 -137 150l10 4q21 -33 48.5 -47t78.5 -14q48 0 76.5 14.5t50.5 46.5l10 -4q-8 -69 -42.5 -109.5t-94.5 -40.5z" />
    <glyph glyph-name="ubreve" unicode="&#x16d;" horiz-adv-x="618" 
d="M383 91v320q0 33 -5 43.5t-28 25.5l-31 21v9l229 25l7 -5v-420q0 -38 5.5 -49t30.5 -20l25 -9v-12l-223 -32l-7 6v71h-3q-102 -77 -192 -77q-60 0 -94.5 34.5t-34.5 99.5v290q0 32 -5 41.5t-28 26.5l-30 21v9l228 25l8 -5v-369q0 -82 64 -82q34 0 84 12zM311 575
q-104 0 -127 150l10 4q30 -59 118 -59q84 0 116 59l10 -4q-8 -67 -40 -108.5t-87 -41.5z" />
    <glyph glyph-name="Uring" unicode="&#x16e;" horiz-adv-x="688" 
d="M371 -12q-143 0 -218.5 53.5t-75.5 178.5v375q0 46 -7 57t-37 19l-29 7v15h344v-15l-30 -7q-29 -8 -36.5 -19t-7.5 -57v-392q0 -82 37.5 -120.5t118.5 -38.5q77 0 111 43t34 126v357q0 58 -8 75t-41 24l-36 9v15h194v-15l-31 -8q-25 -6 -33 -24t-8 -71v-370
q0 -99 -59 -158t-182 -59zM321 804q0 38 27.5 63.5t64.5 25.5t64.5 -25.5t27.5 -63.5t-27 -63t-65 -25t-65 25t-27 63zM356 804q0 -27 15.5 -44t41.5 -17t41.5 17t15.5 44t-15.5 44.5t-41.5 17.5t-41.5 -17.5t-15.5 -44.5z" />
    <glyph glyph-name="uring" unicode="&#x16f;" horiz-adv-x="618" 
d="M217 659q0 38 27 63t65 25t65 -25t27 -63t-27 -63t-65 -25t-65 25t-27 63zM252 659q0 -27 15.5 -44.5t41.5 -17.5t41.5 17.5t15.5 44.5t-15.5 44.5t-41.5 17.5t-41.5 -17.5t-15.5 -44.5zM383 91v320q0 33 -5 43.5t-28 25.5l-31 21v9l229 25l7 -5v-420q0 -38 5.5 -49
t30.5 -20l25 -9v-12l-223 -32l-7 6v71h-3q-102 -77 -192 -77q-60 0 -94.5 34.5t-34.5 99.5v290q0 32 -5 41.5t-28 26.5l-30 21v9l228 25l8 -5v-369q0 -82 64 -82q34 0 84 12z" />
    <glyph glyph-name="Uhungarumlaut" unicode="&#x170;" horiz-adv-x="688" 
d="M276 725l-10 7l51 120q19 47 53 47q22 0 40.5 -17.5t18.5 -40.5q0 -34 -47 -60zM446 725l-9 7l50 120q20 47 53 47q22 0 41 -17.5t19 -40.5q0 -35 -48 -60zM371 -12q-143 0 -218.5 53.5t-75.5 178.5v375q0 46 -7 57t-37 19l-29 7v15h344v-15l-30 -7q-29 -8 -36.5 -19
t-7.5 -57v-392q0 -82 37.5 -120.5t118.5 -38.5q77 0 111 43t34 126v357q0 58 -8 75t-41 24l-36 9v15h194v-15l-31 -8q-25 -6 -33 -24t-8 -71v-370q0 -99 -59 -158t-182 -59z" />
    <glyph glyph-name="uhungarumlaut" unicode="&#x171;" horiz-adv-x="618" 
d="M383 91v320q0 33 -5 43.5t-28 25.5l-31 21v9l229 25l7 -5v-420q0 -38 5.5 -49t30.5 -20l25 -9v-12l-223 -32l-7 6v71h-3q-102 -77 -192 -77q-60 0 -94.5 34.5t-34.5 99.5v290q0 32 -5 41.5t-28 26.5l-30 21v9l228 25l8 -5v-369q0 -82 64 -82q34 0 84 12zM190 567l-9 7
l56 130q19 44 54 44q22 0 41 -17.5t19 -40.5q0 -37 -46 -62zM357 567l-9 7l56 130q19 44 55 44q22 0 40.5 -17.5t18.5 -40.5q0 -37 -46 -62z" />
    <glyph glyph-name="Uogonek" unicode="&#x172;" horiz-adv-x="688" 
d="M371 -12q-143 0 -218.5 53.5t-75.5 178.5v375q0 46 -7 57t-37 19l-29 7v15h344v-15l-30 -7q-29 -8 -36.5 -19t-7.5 -57v-392q0 -82 37.5 -120.5t118.5 -38.5q77 0 111 43t34 126v357q0 58 -8 75t-41 24l-36 9v15h194v-15l-31 -8q-25 -6 -33 -24t-8 -71v-370
q0 -68 -23.5 -112t-80.5 -86q-48 -34 -66.5 -60.5t-18.5 -60.5q0 -44 44 -44q19 0 31 4v-15q-35 -35 -92 -35q-45 0 -71.5 20.5t-26.5 55.5q0 39 35 69t113 56q-42 -9 -85 -9z" />
    <glyph glyph-name="uogonek" unicode="&#x173;" horiz-adv-x="618" 
d="M387 -18v83h-3q-102 -77 -194 -77q-60 0 -94.5 34.5t-34.5 99.5v289q0 33 -4.5 43t-28.5 26l-30 21v9l228 25l8 -5v-369q0 -82 64 -82q34 0 84 12v320q0 33 -5 43t-28 26l-31 21v9l229 25l7 -5v-420q0 -38 5.5 -49t30.5 -20l25 -9v-12l-58 -8q-89 -14 -126 -43t-37 -78
t52 -49q14 0 26 4v-14q-32 -36 -87 -36q-51 0 -77 20.5t-26 55.5t25 60.5t80 49.5z" />
    <glyph glyph-name="Wcircumflex" unicode="&#x174;" horiz-adv-x="1011" 
d="M393 723l-5 9l131 142h56l132 -142l-6 -9l-154 46zM785 204l106 351q15 47 15 73q0 35 -40 43l-31 7v15h190v-15l-18 -6q-25 -7 -40 -30t-35 -84l-183 -558h-95l-135 420h-3l-141 -420h-100l-206 583q-18 53 -28.5 69t-32.5 20l-24 6v15h343v-15l-24 -6q-37 -9 -37 -39
q0 -20 20 -78l120 -351h3l91 271l-41 126q-11 34 -22 49t-33 22l-20 6v15h338v-15l-33 -8q-34 -7 -34 -42q0 -19 17 -73l110 -351h3z" />
    <glyph glyph-name="wcircumflex" unicode="&#x175;" horiz-adv-x="828" 
d="M398 734h52l119 -154l-5 -8l-140 57l-139 -57l-5 8zM762 410l-150 -410h-76l-114 319h-2l-121 -319h-76l-162 421q-18 46 -29 60.5t-27 19.5l-18 6v15h292v-15l-14 -4q-30 -7 -30 -32q0 -17 16 -67l77 -236h3l73 198l-19 55q-17 47 -26.5 61.5t-27.5 19.5l-15 5v15h295
v-15l-22 -6q-21 -6 -29 -15t-8 -26q0 -21 11 -56l76 -236h4l77 235q13 38 13 61q0 28 -33 36l-27 7v15h170v-15l-14 -5q-24 -8 -36.5 -25t-30.5 -67z" />
    <glyph glyph-name="Ycircumflex" unicode="&#x176;" horiz-adv-x="637" 
d="M154 0v15l32 7q34 8 41.5 19t7.5 57v198l-165 295q-28 50 -38 62.5t-28 18.5l-18 6v15h366v-15l-32 -7q-44 -10 -44 -42q0 -24 17 -55l120 -231h3l97 220q17 41 17 64q0 31 -42 44l-27 7v15h186v-15l-19 -7q-19 -6 -31.5 -23.5t-36.5 -70.5l-127 -276v-203q0 -46 8 -57
t41 -19l33 -7v-15h-361zM222 723l-5 9l131 142h56l132 -142l-6 -9l-154 46z" />
    <glyph glyph-name="ycircumflex" unicode="&#x177;" horiz-adv-x="536" 
d="M345 180l80 216q17 46 17 65q0 31 -34 39l-26 7v15h167v-15l-18 -7q-17 -6 -28 -23.5t-32 -69.5l-187 -453q-35 -84 -73.5 -121.5t-103.5 -37.5q-41 0 -69.5 21t-28.5 56q0 29 18.5 46t52.5 17q59 0 67 -60q2 -16 5 -21.5t13 -5.5q18 0 41 27t45 82l9 22l-198 440
q-21 46 -33 61.5t-27 20.5l-16 6v15h313v-15l-26 -8q-33 -10 -33 -40q0 -15 15 -56l86 -223h4zM263 734h52l119 -154l-5 -8l-140 57l-139 -57l-5 8z" />
    <glyph glyph-name="Ydieresis" unicode="&#x178;" horiz-adv-x="637" 
d="M154 0v15l32 7q34 8 41.5 19t7.5 57v198l-165 295q-28 50 -38 62.5t-28 18.5l-18 6v15h366v-15l-32 -7q-44 -10 -44 -42q0 -24 17 -55l120 -231h3l97 220q17 41 17 64q0 31 -42 44l-27 7v15h186v-15l-19 -7q-19 -6 -31.5 -23.5t-36.5 -70.5l-127 -276v-203q0 -46 8 -57
t41 -19l33 -7v-15h-361zM272 722q-34 0 -57 21t-23 57t23 57t57 21q36 0 59 -21t23 -57t-23 -57t-59 -21zM481 722q-34 0 -57 21t-23 57t23 57t57 21q36 0 59 -21t23 -57t-23 -57t-59 -21z" />
    <glyph glyph-name="Zacute" unicode="&#x179;" horiz-adv-x="617" 
d="M240 724l-4 10l124 120q25 26 55 26q27 0 45 -19.5t18 -47.5q0 -51 -56 -60zM18 0v32l348 628v4h-42q-87 0 -117 -9.5t-51 -41.5q-36 -54 -82 -161h-18l14 241h517v-32l-352 -628v-4h46q108 0 140 10.5t61 52.5q29 40 88 164h19l-19 -256h-552z" />
    <glyph glyph-name="zacute" unicode="&#x17a;" horiz-adv-x="500" 
d="M172 575l-4 10l118 123q27 28 58 28q25 0 43.5 -20.5t18.5 -48.5q0 -21 -13 -38t-38 -21zM14 0v36l279 450v4h-53q-53 0 -72 -6t-41 -31q-18 -20 -73 -115h-14l11 184h433v-34l-279 -452v-4h57q65 0 88.5 8t44.5 32q31 35 73 118h16l-18 -190h-452z" />
    <glyph glyph-name="Zdotaccent" unicode="&#x17b;" horiz-adv-x="617" 
d="M18 0v32l348 628v4h-42q-87 0 -117 -9.5t-51 -41.5q-36 -54 -82 -161h-18l14 241h517v-32l-352 -628v-4h46q108 0 140 10.5t61 52.5q29 40 88 164h19l-19 -256h-552zM334 725q-38 0 -63 22.5t-25 59.5q0 36 25 58.5t63 22.5t63 -22.5t25 -58.5q0 -37 -25 -59.5t-63 -22.5
z" />
    <glyph glyph-name="zdotaccent" unicode="&#x17c;" horiz-adv-x="500" 
d="M14 0v36l279 450v4h-53q-53 0 -72 -6t-41 -31q-18 -20 -73 -115h-14l11 184h433v-34l-279 -452v-4h57q65 0 88.5 8t44.5 32q31 35 73 118h16l-18 -190h-452zM178 650q0 36 25.5 59t62.5 23q38 0 63 -23t25 -59q0 -37 -25 -59.5t-63 -22.5t-63 22.5t-25 59.5z" />
    <glyph glyph-name="Zcaron" unicode="&#x17d;" horiz-adv-x="617" 
d="M180 872l5 9l154 -46l154 46l6 -9l-132 -142h-56zM18 0v32l348 628v4h-42q-87 0 -117 -9.5t-51 -41.5q-36 -54 -82 -161h-18l14 241h517v-32l-352 -628v-4h46q108 0 140 10.5t61 52.5q29 40 88 164h19l-19 -256h-552z" />
    <glyph glyph-name="zcaron" unicode="&#x17e;" horiz-adv-x="500" 
d="M294 579h-52l-118 154l5 9l139 -58l140 58l5 -9zM14 0v36l279 450v4h-53q-53 0 -72 -6t-41 -31q-18 -20 -73 -115h-14l11 184h433v-34l-279 -452v-4h57q65 0 88.5 8t44.5 32q31 35 73 118h16l-18 -190h-452z" />
    <glyph glyph-name="florin" unicode="&#x192;" horiz-adv-x="503" 
d="M48 372v30h78l7 55q15 125 80.5 186.5t174.5 61.5q66 0 104 -26t38 -69q0 -26 -19 -40.5t-47 -14.5q-36 0 -52 17.5t-20 65.5q-1 23 -6.5 31.5t-16.5 8.5q-21 0 -32.5 -23t-18.5 -90l-20 -163h119v-30h-122l-37 -312q-15 -128 -77.5 -190t-161.5 -62q-63 0 -94.5 23.5
t-31.5 57.5q0 56 62 56q32 0 46 -15.5t18 -62.5q3 -22 7 -27.5t12 -5.5q24 0 33 88l52 450h-75z" />
    <glyph glyph-name="Aringacute" unicode="&#x1fa;" horiz-adv-x="679" 
d="M-7 0v15l14 5q26 8 39 26.5t39 91.5l202 555h102l203 -557q24 -68 36 -88.5t34 -27.5l18 -5v-15h-359v15l27 7q38 9 38 44q0 31 -19 84l-25 78h-186l-25 -73q-20 -58 -20 -86q0 -18 10.5 -28.5t38.5 -18.5l25 -7v-15h-192zM245 807q0 38 27.5 63.5t64.5 25.5t64.5 -25.5
t27.5 -63.5t-27 -63t-65 -25t-65 25t-27 63zM252 509l-85 -249h165l-77 249h-3zM226 905l-4 10l124 120q25 26 55 26q27 0 45 -19.5t18 -47.5q0 -51 -56 -60zM280 807q0 -27 15.5 -44t41.5 -17t41.5 17t15.5 44t-15.5 44.5t-41.5 17.5t-41.5 -17.5t-15.5 -44.5z" />
    <glyph glyph-name="aringacute" unicode="&#x1fb;" horiz-adv-x="528" 
d="M157 -12q-67 0 -106 33t-39 91q0 34 12.5 58.5t38 40.5t49 25t61.5 19l118 32v99q0 69 -11.5 95.5t-48.5 26.5q-24 0 -34 -8.5t-11 -33.5q-4 -57 -21 -77.5t-58 -20.5q-73 0 -73 60q0 51 59 79.5t170 28.5q201 0 201 -140v-284q0 -30 4 -43.5t17 -20.5q20 -10 47 -10v-13
q-47 -37 -122 -37q-89 0 -109 65h-4q-53 -65 -140 -65zM240 55q37 0 51 24v170l-32 -4q-42 -5 -60 -26t-18 -73q0 -91 59 -91zM160 656q0 38 27 63t65 25t65 -25t27 -63t-27 -63t-65 -25t-65 25t-27 63zM195 656q0 -27 15.5 -44.5t41.5 -17.5t41.5 17.5t15.5 44.5
t-15.5 44.5t-41.5 17.5t-41.5 -17.5t-15.5 -44.5zM136 757l-4 10l124 120q25 26 55 26q27 0 45 -19.5t18 -47.5q0 -51 -56 -60z" />
    <glyph glyph-name="AEacute" unicode="&#x1fc;" horiz-adv-x="910" 
d="M896 251l-14 -251h-559v15l29 7q29 8 36 19t7 57v127h-195l-44 -86q-29 -60 -29 -82q0 -12 10 -19t36 -16l23 -7v-15h-206v15l23 7q30 9 46.5 27.5t50.5 80.5l275 513q-10 16 -49 27l-29 8v15h555l10 -213h-17q-34 78 -63 124q-21 35 -45.5 46.5t-75.5 11.5q-53 0 -81 -7
v-281h32q51 0 67.5 6t26.5 25q18 34 31 87h16v-270h-16q-12 53 -31 91q-9 19 -26.5 25t-68.5 6h-31v-242q0 -46 14 -58.5t72 -12.5q59 0 81 11.5t47 51.5q37 60 74 157h18zM393 599l-177 -343h179v342v1h-2zM526 724l-4 10l124 120q25 26 55 26q27 0 45 -19.5t18 -47.5
q0 -51 -56 -60z" />
    <glyph glyph-name="aeacute" unicode="&#x1fd;" horiz-adv-x="800" 
d="M342 75q-67 -87 -185 -87q-67 0 -106 33.5t-39 93.5q0 65 41.5 95.5t119.5 51.5l118 31v93q0 69 -11.5 95.5t-48.5 26.5q-24 0 -34 -8.5t-11 -33.5q-4 -57 -21 -77.5t-58 -20.5q-73 0 -73 60q0 50 56.5 79t156.5 29q114 0 154 -63q65 63 154 63q227 0 233 -245h-326
q1 -124 41.5 -171t125.5 -47q75 0 140 35v-17q-30 -41 -86.5 -72t-130.5 -31q-142 0 -209 87h-1zM547 510q-40 0 -62 -43.5t-23 -151.5l156 10q0 107 -15 146t-56 39zM247 55q47 0 83 39q-37 62 -39 161l-28 -3q-45 -5 -63.5 -27.5t-18.5 -75.5q0 -94 66 -94zM323 575l-4 10
l118 123q27 28 58 28q25 0 43.5 -20.5t18.5 -48.5q0 -21 -13 -38t-38 -21z" />
    <glyph glyph-name="Oslashacute" unicode="&#x1fe;" horiz-adv-x="727" 
d="M361 -12q-111 0 -195 53l-67 -94h-36l79 111q-121 96 -121 280q0 95 31 168.5t82.5 115t110.5 62.5t122 21q113 0 197 -52l54 77h37l-67 -94q119 -92 119 -282q0 -77 -21 -140t-55 -104.5t-79.5 -69.5t-93 -40t-97.5 -12zM223 360q0 -108 10 -174l254 358
q-16 71 -46.5 102t-77.5 31q-70 0 -105 -71.5t-35 -245.5zM364 16q73 0 106.5 70.5t33.5 245.5q0 105 -10 171l-254 -357q16 -70 46.5 -100t77.5 -30zM255 724l-4 10l124 120q25 26 55 26q27 0 45 -19.5t18 -47.5q0 -51 -56 -60z" />
    <glyph glyph-name="oslashacute" unicode="&#x1ff;" horiz-adv-x="583" 
d="M291 -12q-89 0 -153 38l-49 -70h-35l60 86q-99 74 -99 218q0 93 41.5 157.5t102 91.5t132.5 27q79 0 142 -33l44 63h35l-54 -78q109 -72 109 -224q0 -70 -23 -124.5t-62.5 -87t-88 -48.5t-102.5 -16zM294 15q34 0 54 17t32 71t12 152q0 82 -7 128l-185 -267
q10 -58 32 -79.5t62 -21.5zM190 273q0 -72 4 -115l184 265q-12 49 -33.5 67.5t-55.5 18.5q-32 0 -52 -18t-33.5 -71.5t-13.5 -146.5zM184 575l-4 10l118 123q27 28 58 28q25 0 43.5 -20.5t18.5 -48.5q0 -21 -13 -38t-38 -21z" />
    <glyph glyph-name="Scommaaccent" unicode="&#x218;" horiz-adv-x="513" 
d="M233 -12q-137 0 -206 32l-12 204h18q49 -98 81 -140q28 -36 57 -52t72 -16q51 0 79 29t28 79q0 51 -30.5 81.5t-112.5 61.5q-103 37 -146 86.5t-43 131.5q0 95 71 157.5t184 62.5q109 0 175 -30l10 -183h-19q-42 92 -77 132q-26 30 -48.5 41.5t-55.5 11.5q-48 0 -76 -26
t-28 -72q0 -44 28.5 -71.5t106.5 -58.5q117 -44 164 -92.5t47 -128.5q0 -98 -72 -169t-195 -71zM152 -244l-2 10q95 27 103 92q-13 -13 -38 -13t-40.5 15t-15.5 39q0 25 20.5 43t53.5 18q35 0 58.5 -22.5t23.5 -56.5q0 -53 -43.5 -86t-119.5 -39z" />
    <glyph glyph-name="scommaaccent" unicode="&#x219;" horiz-adv-x="430" 
d="M188 -12q-90 0 -163 21l-5 166h17q37 -69 69 -109q20 -28 41 -39t56 -11q36 0 58.5 20t22.5 54q0 33 -24 52.5t-100 49.5q-72 26 -106.5 65t-34.5 101q0 76 56 127t160 51q84 0 139 -21l6 -141h-15q-45 70 -62 89q-22 24 -40.5 34.5t-47.5 10.5q-35 0 -56 -18t-21 -48
q0 -32 22.5 -50.5t87.5 -42.5q90 -33 128 -73.5t38 -102.5q0 -83 -59 -134t-167 -51zM120 -244l-2 10q95 27 103 92q-13 -13 -38 -13t-40.5 15t-15.5 39q0 25 20.5 43t53.5 18q35 0 58.5 -22.5t23.5 -56.5q0 -53 -43.5 -86t-119.5 -39z" />
    <glyph glyph-name="uni021A" unicode="&#x21a;" horiz-adv-x="629" 
d="M225 -244l-2 10q95 27 103 92q-13 -13 -38 -13t-40.5 15t-15.5 39q0 25 20.5 43t53.5 18q35 0 58.5 -22.5t23.5 -56.5q0 -53 -43.5 -86t-119.5 -39zM438 663h-24v-565q0 -46 7.5 -56.5t41.5 -19.5l32 -7v-15h-361v15l32 7q34 8 42 19t8 57v565h-25q-34 0 -51 -11.5
t-35 -41.5q-29 -46 -79 -164h-17l8 247h595l9 -247h-18q-50 121 -78 164q-20 33 -35 43t-52 10z" />
    <glyph glyph-name="uni021B" unicode="&#x21b;" horiz-adv-x="360" 
d="M109 -244l-2 10q95 27 103 92q-13 -13 -38 -13t-40.5 15t-15.5 39q0 25 20.5 43t53.5 18q35 0 58.5 -22.5t23.5 -56.5q0 -53 -43.5 -86t-119.5 -39zM199 -12q-76 0 -111.5 35t-35.5 111v339h-55v11q61 22 112 69.5t75 103.5h41v-135h125l-7 -49h-118v-338
q0 -43 13.5 -57.5t52.5 -14.5q31 0 67 9v-15q-62 -69 -159 -69z" />
    <glyph glyph-name="uni0237" unicode="&#x237;" horiz-adv-x="283" 
d="M234 405v-386q0 -99 -62 -160t-158 -61q-71 0 -109.5 26t-38.5 71q0 31 19 48.5t54 17.5q37 0 54.5 -21.5t22.5 -84.5q1 -18 4 -23.5t11 -5.5q31 0 31 71v517q0 31 -5.5 41t-30.5 26l-30 20v9l235 25l7 -5q-4 -80 -4 -125z" />
    <glyph glyph-name="circumflex" unicode="&#x2c6;" 
d="M214 734h52l119 -154l-5 -8l-140 57l-139 -57l-5 8z" />
    <glyph glyph-name="caron" unicode="&#x2c7;" 
d="M266 579h-52l-118 154l5 9l139 -58l140 58l5 -9z" />
    <glyph glyph-name="breve" unicode="&#x2d8;" 
d="M240 575q-104 0 -127 150l10 4q30 -59 118 -59q84 0 116 59l10 -4q-8 -67 -40 -108.5t-87 -41.5z" />
    <glyph glyph-name="dotaccent" unicode="&#x2d9;" horiz-adv-x="335" 
d="M79 650q0 36 25.5 59t62.5 23q38 0 63 -23t25 -59q0 -37 -25 -59.5t-63 -22.5t-63 22.5t-25 59.5z" />
    <glyph glyph-name="ring" unicode="&#x2da;" 
d="M148 659q0 38 27 63t65 25t65 -25t27 -63t-27 -63t-65 -25t-65 25t-27 63zM183 659q0 -27 15.5 -44.5t41.5 -17.5t41.5 17.5t15.5 44.5t-15.5 44.5t-41.5 17.5t-41.5 -17.5t-15.5 -44.5z" />
    <glyph glyph-name="ogonek" unicode="&#x2db;" horiz-adv-x="358" 
d="M210 0h18q-43 -52 -43 -113q0 -45 43 -45q20 0 32 4v-14q-34 -36 -89 -36q-49 0 -75.5 20.5t-26.5 55.5q0 75 141 128z" />
    <glyph glyph-name="tilde" unicode="&#x2dc;" 
d="M93 571l-12 7q24 71 45 103t56 32q20 0 72.5 -9.5t73.5 -9.5q20 0 32.5 9.5t26.5 33.5l13 -7q-23 -72 -44 -103.5t-58 -31.5q-20 0 -72.5 9t-73.5 9q-20 0 -32.5 -9.5t-26.5 -32.5z" />
    <glyph glyph-name="hungarumlaut" unicode="&#x2dd;" 
d="M108 567l-9 7l56 130q19 44 54 44q22 0 41 -17.5t19 -40.5q0 -37 -46 -62zM275 567l-9 7l56 130q19 44 55 44q22 0 40.5 -17.5t18.5 -40.5q0 -37 -46 -62z" />
    <glyph glyph-name="Wgrave" unicode="&#x1e80;" horiz-adv-x="1011" 
d="M648 732l-4 -9l-182 29q-56 8 -56 60q0 28 18 47.5t45 19.5q29 0 55 -26zM785 204l106 351q15 47 15 73q0 35 -40 43l-31 7v15h190v-15l-18 -6q-25 -7 -40 -30t-35 -84l-183 -558h-95l-135 420h-3l-141 -420h-100l-206 583q-18 53 -28.5 69t-32.5 20l-24 6v15h343v-15
l-24 -6q-37 -9 -37 -39q0 -20 20 -78l120 -351h3l91 271l-41 126q-11 34 -22 49t-33 22l-20 6v15h338v-15l-33 -8q-34 -7 -34 -42q0 -19 17 -73l110 -351h3z" />
    <glyph glyph-name="wgrave" unicode="&#x1e81;" horiz-adv-x="828" 
d="M762 410l-150 -410h-76l-114 319h-2l-121 -319h-76l-162 421q-18 46 -29 60.5t-27 19.5l-18 6v15h292v-15l-14 -4q-30 -7 -30 -32q0 -17 16 -67l77 -236h3l73 198l-19 55q-17 47 -26.5 61.5t-27.5 19.5l-15 5v15h295v-15l-22 -6q-21 -6 -29 -15t-8 -26q0 -21 11 -56
l76 -236h4l77 235q13 38 13 61q0 28 -33 36l-27 7v15h170v-15l-14 -5q-24 -8 -36.5 -25t-30.5 -67zM532 585l-4 -10l-183 33q-25 4 -38 21t-13 38q0 28 18.5 48.5t43.5 20.5q31 0 58 -28z" />
    <glyph glyph-name="Wacute" unicode="&#x1e82;" horiz-adv-x="1011" 
d="M451 724l-4 10l124 120q25 26 55 26q27 0 45 -19.5t18 -47.5q0 -51 -56 -60zM785 204l106 351q15 47 15 73q0 35 -40 43l-31 7v15h190v-15l-18 -6q-25 -7 -40 -30t-35 -84l-183 -558h-95l-135 420h-3l-141 -420h-100l-206 583q-18 53 -28.5 69t-32.5 20l-24 6v15h343v-15
l-24 -6q-37 -9 -37 -39q0 -20 20 -78l120 -351h3l91 271l-41 126q-11 34 -22 49t-33 22l-20 6v15h338v-15l-33 -8q-34 -7 -34 -42q0 -19 17 -73l110 -351h3z" />
    <glyph glyph-name="wacute" unicode="&#x1e83;" horiz-adv-x="828" 
d="M353 575l-4 10l118 123q27 28 58 28q25 0 43.5 -20.5t18.5 -48.5q0 -21 -13 -38t-38 -21zM762 410l-150 -410h-76l-114 319h-2l-121 -319h-76l-162 421q-18 46 -29 60.5t-27 19.5l-18 6v15h292v-15l-14 -4q-30 -7 -30 -32q0 -17 16 -67l77 -236h3l73 198l-19 55
q-17 47 -26.5 61.5t-27.5 19.5l-15 5v15h295v-15l-22 -6q-21 -6 -29 -15t-8 -26q0 -21 11 -56l76 -236h4l77 235q13 38 13 61q0 28 -33 36l-27 7v15h170v-15l-14 -5q-24 -8 -36.5 -25t-30.5 -67z" />
    <glyph glyph-name="Wdieresis" unicode="&#x1e84;" horiz-adv-x="1011" 
d="M442 722q-34 0 -57 21t-23 57t23 57t57 21q36 0 59 -21t23 -57t-23 -57t-59 -21zM651 722q-34 0 -57 21t-23 57t23 57t57 21q36 0 59 -21t23 -57t-23 -57t-59 -21zM785 204l106 351q15 47 15 73q0 35 -40 43l-31 7v15h190v-15l-18 -6q-25 -7 -40 -30t-35 -84l-183 -558
h-95l-135 420h-3l-141 -420h-100l-206 583q-18 53 -28.5 69t-32.5 20l-24 6v15h343v-15l-24 -6q-37 -9 -37 -39q0 -20 20 -78l120 -351h3l91 271l-41 126q-11 34 -22 49t-33 22l-20 6v15h338v-15l-33 -8q-34 -7 -34 -42q0 -19 17 -73l110 -351h3z" />
    <glyph glyph-name="wdieresis" unicode="&#x1e85;" horiz-adv-x="828" 
d="M249 652q0 36 23 57t57 21q36 0 59 -21t23 -57t-23 -57t-59 -21q-34 0 -57 21t-23 57zM449 652q0 36 23.5 57t57.5 21q35 0 58.5 -21t23.5 -57t-23.5 -57t-58.5 -21q-34 0 -57.5 21t-23.5 57zM762 410l-150 -410h-76l-114 319h-2l-121 -319h-76l-162 421q-18 46 -29 60.5
t-27 19.5l-18 6v15h292v-15l-14 -4q-30 -7 -30 -32q0 -17 16 -67l77 -236h3l73 198l-19 55q-17 47 -26.5 61.5t-27.5 19.5l-15 5v15h295v-15l-22 -6q-21 -6 -29 -15t-8 -26q0 -21 11 -56l76 -236h4l77 235q13 38 13 61q0 28 -33 36l-27 7v15h170v-15l-14 -5
q-24 -8 -36.5 -25t-30.5 -67z" />
    <glyph glyph-name="Ygrave" unicode="&#x1ef2;" horiz-adv-x="637" 
d="M154 0v15l32 7q34 8 41.5 19t7.5 57v198l-165 295q-28 50 -38 62.5t-28 18.5l-18 6v15h366v-15l-32 -7q-44 -10 -44 -42q0 -24 17 -55l120 -231h3l97 220q17 41 17 64q0 31 -42 44l-27 7v15h186v-15l-19 -7q-19 -6 -31.5 -23.5t-36.5 -70.5l-127 -276v-203q0 -46 8 -57
t41 -19l33 -7v-15h-361zM474 732l-4 -9l-182 29q-56 8 -56 60q0 28 18 47.5t45 19.5q29 0 55 -26z" />
    <glyph glyph-name="ygrave" unicode="&#x1ef3;" horiz-adv-x="536" 
d="M345 180l80 216q17 46 17 65q0 31 -34 39l-26 7v15h167v-15l-18 -7q-17 -6 -28 -23.5t-32 -69.5l-187 -453q-35 -84 -73.5 -121.5t-103.5 -37.5q-41 0 -69.5 21t-28.5 56q0 29 18.5 46t52.5 17q59 0 67 -60q2 -16 5 -21.5t13 -5.5q18 0 41 27t45 82l9 22l-198 440
q-21 46 -33 61.5t-27 20.5l-16 6v15h313v-15l-26 -8q-33 -10 -33 -40q0 -15 15 -56l86 -223h4zM385 585l-4 -10l-183 33q-25 4 -38 21t-13 38q0 28 18.5 48.5t43.5 20.5q31 0 58 -28z" />
    <glyph glyph-name="uni2009" unicode="&#x2009;" horiz-adv-x="68" 
 />
    <glyph glyph-name="endash" unicode="&#x2013;" horiz-adv-x="400" 
d="M31 274v34h338v-34h-338z" />
    <glyph glyph-name="emdash" unicode="&#x2014;" horiz-adv-x="656" 
d="M31 274v34h594v-34h-594z" />
    <glyph glyph-name="quoteleft" unicode="&#x2018;" horiz-adv-x="199" 
d="M182 701l3 -11q-108 -38 -104 -124q13 19 39 19t43 -16.5t17 -47.5q0 -32 -22.5 -51.5t-55.5 -19.5q-37 0 -63 25.5t-26 70.5q0 61 43 101t126 54z" />
    <glyph glyph-name="quoteright" unicode="&#x2019;" horiz-adv-x="199" 
d="M18 454l-3 12q107 38 103 124q-12 -20 -39 -20q-26 0 -43 17t-17 47q0 33 22.5 52t55.5 19q37 0 63 -25.5t26 -70.5q0 -60 -42.5 -100t-125.5 -55z" />
    <glyph glyph-name="quotesinglbase" unicode="&#x201a;" horiz-adv-x="199" 
d="M18 -106l-3 12q107 38 103 124q-12 -20 -39 -20q-26 0 -43 17t-17 47q0 32 22.5 51.5t55.5 19.5q37 0 63 -25.5t26 -70.5q0 -125 -168 -155z" />
    <glyph glyph-name="quotedblleft" unicode="&#x201c;" horiz-adv-x="394" 
d="M377 701l3 -11q-108 -38 -104 -124q13 19 39 19q27 0 43.5 -16.5t16.5 -47.5q0 -32 -22.5 -51.5t-55.5 -19.5q-37 0 -63 25.5t-26 70.5q0 61 43 101t126 54zM182 701l3 -11q-108 -38 -104 -124q13 19 39 19t43 -16.5t17 -47.5q0 -32 -22.5 -51.5t-55.5 -19.5
q-37 0 -63 25.5t-26 70.5q0 61 43 101t126 54z" />
    <glyph glyph-name="quotedblright" unicode="&#x201d;" horiz-adv-x="394" 
d="M18 454l-3 12q107 38 103 124q-12 -20 -39 -20q-26 0 -43 17t-17 47q0 33 22.5 52t55.5 19q37 0 63 -25.5t26 -70.5q0 -60 -42.5 -100t-125.5 -55zM213 454l-3 12q107 38 103 124q-12 -20 -39 -20q-26 0 -43 17t-17 47q0 33 22.5 52t55.5 19q37 0 63 -25.5t26 -70.5
q0 -60 -42.5 -100t-125.5 -55z" />
    <glyph glyph-name="quotedblbase" unicode="&#x201e;" horiz-adv-x="394" 
d="M18 -106l-3 12q107 38 103 124q-12 -20 -39 -20q-26 0 -43 17t-17 47q0 32 22.5 51.5t55.5 19.5q37 0 63 -25.5t26 -70.5q0 -125 -168 -155zM213 -106l-3 12q107 38 103 124q-12 -20 -39 -20q-26 0 -43 17t-17 47q0 32 22.5 51.5t55.5 19.5q37 0 63 -25.5t26 -70.5
q0 -125 -168 -155z" />
    <glyph glyph-name="dagger" unicode="&#x2020;" horiz-adv-x="415" 
d="M198 484q-19 -4 -60.5 -29.5t-62.5 -25.5q-28 0 -45 18.5t-17 45.5t17 45t45 18q21 0 62.5 -25.5t60.5 -29.5q-3 24 -32 70t-29 67q0 27 19.5 45.5t50.5 18.5t50.5 -18.5t19.5 -45.5q0 -21 -28.5 -67t-31.5 -70q19 4 60 29.5t62 25.5q28 0 45.5 -18.5t17.5 -44.5
q0 -27 -17.5 -45.5t-45.5 -18.5q-21 0 -62 25.5t-60 29.5q2 -29 20.5 -61.5t43.5 -54.5l-67 -435h-13l-67 435q25 23 44 55.5t20 60.5z" />
    <glyph glyph-name="daggerdbl" unicode="&#x2021;" horiz-adv-x="410" 
d="M275 429l-65 -102h-10l-66 102q53 31 61 82q-19 -4 -59 -29t-61 -25q-28 0 -45 18t-17 44q0 27 17 45t45 18q21 0 61 -25.5t59 -29.5q-3 24 -31.5 70.5t-28.5 65.5q0 25 19 41.5t51 16.5q31 0 50 -16.5t19 -41.5q0 -19 -28 -65.5t-31 -70.5q17 4 57.5 29.5t62.5 25.5
q28 0 45 -18t17 -45q0 -26 -17 -44t-45 -18q-21 0 -61.5 25t-58.5 29q8 -50 60 -82zM210 314l65 -102q-52 -30 -60 -82q18 4 58.5 29t61.5 25q28 0 45 -18t17 -44q0 -27 -17 -44.5t-45 -17.5q-22 0 -62.5 25t-57.5 29q3 -24 31 -70.5t28 -65.5q0 -25 -19 -41t-50 -16
q-32 0 -51 16t-19 41q0 19 28.5 65.5t31.5 70.5q-19 -4 -59 -29t-61 -25q-29 0 -45.5 17.5t-16.5 44.5q0 26 17 44t45 18q21 0 61 -25t59 -29q-8 52 -61 82l66 102h10z" />
    <glyph glyph-name="bullet" unicode="&#x2022;" horiz-adv-x="290" 
d="M19 330q0 53 37 89.5t89 36.5q51 0 88.5 -36.5t37.5 -89.5q0 -50 -38 -87.5t-88 -37.5q-51 0 -88.5 37.5t-37.5 87.5z" />
    <glyph glyph-name="ellipsis" unicode="&#x2026;" horiz-adv-x="665" 
d="M22 79q0 37 25.5 61.5t61.5 24.5q35 0 61 -24.5t26 -61.5q0 -36 -26 -61t-61 -25q-36 0 -61.5 25t-25.5 61zM245 79q0 37 25.5 61.5t61.5 24.5q35 0 61 -24.5t26 -61.5q0 -36 -26 -61t-61 -25q-36 0 -61.5 25t-25.5 61zM468 79q0 37 25.5 61.5t61.5 24.5q35 0 61 -24.5
t26 -61.5q0 -36 -26 -61t-61 -25q-36 0 -61.5 25t-25.5 61z" />
    <glyph glyph-name="perthousand" unicode="&#x2030;" horiz-adv-x="1085" 
d="M65 -50l526 764h39l-526 -764h-39zM195 358q-74 0 -123.5 43.5t-49.5 125.5q0 60 30 102t68.5 58.5t78.5 16.5q71 0 123 -45t52 -126q0 -85 -54 -130t-125 -45zM198 384q33 0 43 29.5t10 112.5q0 90 -11 121t-42 31q-29 0 -41.5 -30t-12.5 -114q0 -87 11 -118.5t43 -31.5
zM510 -12q-74 0 -123.5 43t-49.5 126q0 46 17 81.5t44 55.5t56.5 30t58.5 10q72 0 123.5 -45t51.5 -126q0 -85 -53.5 -130t-124.5 -45zM512 14q33 0 43 29.5t10 112.5q0 90 -11 121t-42 31q-29 0 -41 -29.5t-12 -114.5q0 -88 10.5 -119t42.5 -31zM884 -12q-74 0 -123.5 43
t-49.5 126q0 60 30 102t68.5 58.5t78.5 16.5q72 0 123.5 -45t51.5 -126q0 -85 -54 -130t-125 -45zM887 14q33 0 43 29.5t10 112.5q0 90 -11 121t-42 31q-29 0 -41.5 -30t-12.5 -114q0 -87 11 -118.5t43 -31.5z" />
    <glyph glyph-name="uni2032" unicode="&#x2032;" horiz-adv-x="196" 
d="M62 432l-28 172q-17 104 66 104q42 0 61 -30t-1 -75l-81 -171h-17z" />
    <glyph glyph-name="uni2033" unicode="&#x2033;" horiz-adv-x="363" 
d="M62 432l-28 172q-17 104 66 104q42 0 61 -30t-1 -75l-81 -171h-17zM229 432l-28 172q-17 104 66 104q42 0 60.5 -30t-1.5 -75l-80 -171h-17z" />
    <glyph glyph-name="guilsinglleft" unicode="&#x2039;" horiz-adv-x="239" 
d="M194 48l-175 201v7l175 201h19l-87 -203l87 -206h-19z" />
    <glyph glyph-name="guilsinglright" unicode="&#x203a;" horiz-adv-x="239" 
d="M220 249l-175 -201h-19l87 203l-87 206h19l175 -201v-7z" />
    <glyph glyph-name="fraction" unicode="&#x2044;" horiz-adv-x="338" 
d="M-114 -50l527 764h39l-526 -764h-40z" />
    <glyph glyph-name="Euro" unicode="&#x20ac;" horiz-adv-x="601" 
d="M2 383v30h61q14 97 66.5 164.5t120.5 97.5t147 30q84 0 140 -31t56 -88q0 -32 -22.5 -49.5t-55.5 -17.5q-48 0 -66 23t-23 85q-2 32 -9.5 41t-29.5 9q-61 0 -93 -57.5t-36 -206.5h204l-6 -30h-199v-19q0 -37 1 -54h183l-6 -30h-175q10 -123 54.5 -169t132.5 -46
q68 0 135 37v-18q-28 -37 -85 -66.5t-134 -29.5q-133 0 -211.5 72t-91.5 220h-58v30h56v29q0 16 2 44h-58z" />
    <glyph glyph-name="trademark" unicode="&#x2122;" horiz-adv-x="692" 
d="M296 421v12l19 4q13 3 17 9.5t4 27.5v174q0 14 -3.5 19t-14.5 8l-17 5v13h137l51 -148h3l52 148h139v-11l-17 -4q-11 -3 -13.5 -8t-2.5 -21v-184q0 -17 2.5 -21.5t13.5 -6.5l19 -4v-12h-166v12l19 4q10 2 13 7t3 21v191h-2l-79 -232h-32l-84 232h-1v-180q0 -23 3 -30
t15 -9l21 -4v-12h-99zM101 468v207h-4q-27 0 -40 -17q-10 -16 -30 -73h-11l3 108h257l4 -108h-11q-22 57 -32 73q-13 17 -40 17h-3v-207q0 -18 3 -22.5t14 -6.5l23 -5v-12h-173v12l22 5q12 2 15 6.5t3 22.5z" />
    <glyph glyph-name="onethird" unicode="&#x2153;" horiz-adv-x="744" 
d="M6 309v16l18 5q19 6 23.5 12.5t4.5 35.5v208l-45 11v15q50 8 97.5 32t72.5 54l19 -5v-315q0 -28 5.5 -36t23.5 -12l18 -5v-16h-237zM65 -50l527 764h39l-526 -764h-40zM546 -7q-64 0 -99.5 20.5t-35.5 55.5q0 19 13.5 30t35.5 11q27 0 39.5 -14.5t15.5 -50.5q2 -17 7 -22
t20 -5q23 0 36.5 21t13.5 61q0 46 -17.5 66.5t-55.5 20.5h-26v28h24q67 0 67 80q0 71 -36 71q-12 0 -16.5 -4.5t-7.5 -20.5q-6 -32 -17.5 -46t-37.5 -14q-45 0 -45 41q0 30 33.5 49.5t98.5 19.5q69 0 111.5 -23.5t42.5 -71.5q0 -34 -27.5 -56.5t-80.5 -29.5v-3q64 -7 94 -31
t30 -71q0 -49 -46 -80.5t-134 -31.5z" />
    <glyph glyph-name="twothirds" unicode="&#x2154;" horiz-adv-x="772" 
d="M8 309v59q71 54 106 91q66 75 66 145t-38 70q-13 0 -17 -6t-6 -26q-4 -35 -17.5 -49.5t-44.5 -14.5q-22 0 -35 13t-13 34q0 34 40 54.5t109 20.5q72 0 114.5 -29.5t42.5 -83.5q0 -46 -51 -89t-173 -91v-3h154q19 0 27.5 9t21.5 40h17l-8 -144h-295zM98 -50l527 764h39
l-526 -764h-40zM574 -7q-64 0 -99.5 20.5t-35.5 55.5q0 19 13.5 30t35.5 11q27 0 39.5 -14.5t15.5 -50.5q2 -17 7 -22t20 -5q23 0 36.5 21t13.5 61q0 46 -17.5 66.5t-55.5 20.5h-26v28h24q67 0 67 80q0 71 -36 71q-12 0 -16.5 -4.5t-7.5 -20.5q-6 -32 -17.5 -46t-37.5 -14
q-45 0 -45 41q0 30 33.5 49.5t98.5 19.5q69 0 111.5 -23.5t42.5 -71.5q0 -34 -27.5 -56.5t-80.5 -29.5v-3q64 -7 94 -31t30 -71q0 -49 -46 -80.5t-134 -31.5z" />
    <glyph glyph-name="oneeighth" unicode="&#x215b;" horiz-adv-x="744" 
d="M6 309v16l18 5q19 6 23.5 12.5t4.5 35.5v208l-45 11v15q50 8 97.5 32t72.5 54l19 -5v-315q0 -28 5.5 -36t23.5 -12l18 -5v-16h-237zM62 -50l527 764h39l-526 -764h-40zM554 -6q-78 0 -120 24t-42 63q0 62 93 83v3q-42 20 -59.5 44t-17.5 60q0 56 49.5 88t109.5 32
q59 0 100.5 -21t41.5 -63q0 -24 -23.5 -43.5t-55.5 -27.5v-3q95 -42 95 -109q0 -55 -48 -92.5t-123 -37.5zM560 18q26 0 45.5 13.5t19.5 38.5q0 27 -23 44.5t-92 43.5q-23 -23 -23 -64q0 -76 73 -76zM601 244q17 17 17 58q0 64 -57 64q-25 0 -41 -12.5t-16 -32.5
q0 -25 20.5 -42t76.5 -35z" />
    <glyph glyph-name="threeeighths" unicode="&#x215c;" horiz-adv-x="772" 
d="M88 -50l527 764h39l-526 -764h-40zM582 -6q-78 0 -120 24t-42 63q0 62 93 83v3q-42 20 -59.5 44t-17.5 60q0 56 49.5 88t109.5 32q59 0 100.5 -21t41.5 -63q0 -24 -23.5 -43.5t-55.5 -27.5v-3q95 -42 95 -109q0 -55 -48 -92.5t-123 -37.5zM588 18q26 0 45.5 13.5
t19.5 38.5q0 27 -23 44.5t-92 43.5q-23 -23 -23 -64q0 -76 73 -76zM629 244q17 17 17 58q0 64 -57 64q-25 0 -41 -12.5t-16 -32.5q0 -25 20.5 -42t76.5 -35zM142 302q-64 0 -99.5 20.5t-35.5 55.5q0 19 13.5 30t35.5 11q27 0 39.5 -14.5t15.5 -50.5q2 -17 7 -22t20 -5
q23 0 36.5 21t13.5 61q0 46 -17.5 66.5t-55.5 20.5h-26v28h24q67 0 67 80q0 71 -36 71q-12 0 -16.5 -4.5t-7.5 -20.5q-6 -32 -17.5 -46t-37.5 -14q-45 0 -45 41q0 30 33.5 49.5t98.5 19.5q69 0 111.5 -23.5t42.5 -71.5q0 -34 -27.5 -56.5t-80.5 -29.5v-3q64 -7 94 -31
t30 -71q0 -49 -46 -80.5t-134 -31.5z" />
    <glyph glyph-name="fiveeighths" unicode="&#x215d;" horiz-adv-x="764" 
d="M74 -50l527 764h39l-526 -764h-40zM574 -6q-78 0 -120 24t-42 63q0 62 93 83v3q-42 20 -59.5 44t-17.5 60q0 56 49.5 88t109.5 32q59 0 100.5 -21t41.5 -63q0 -24 -23.5 -43.5t-55.5 -27.5v-3q95 -42 95 -109q0 -55 -48 -92.5t-123 -37.5zM580 18q26 0 45.5 13.5
t19.5 38.5q0 27 -23 44.5t-92 43.5q-23 -23 -23 -64q0 -76 73 -76zM621 244q17 17 17 58q0 64 -57 64q-25 0 -41 -12.5t-16 -32.5q0 -25 20.5 -42t76.5 -35zM130 302q-61 0 -90 18t-29 47q0 42 47 42q23 0 34.5 -12.5t15.5 -39.5q4 -19 10 -24.5t22 -5.5q57 0 57 65
q0 34 -23.5 52t-62.5 18q-43 0 -70 -11l-9 5l27 237l184 -1q16 0 23 6.5t18 29.5h18l-13 -122h-211l-6 -52q30 10 83 10q76 0 116 -32t40 -89q0 -61 -48 -101t-133 -40z" />
    <glyph glyph-name="seveneighths" unicode="&#x215e;" horiz-adv-x="746" 
d="M56 309q30 172 202 293h-176q-23 0 -32 -8.5t-23 -42.5h-17l10 142h286v-58q-57 -67 -79 -146t-23 -180h-148zM53 -50l527 764h39l-526 -764h-40zM556 -6q-78 0 -120 24t-42 63q0 62 93 83v3q-42 20 -59.5 44t-17.5 60q0 56 49.5 88t109.5 32q59 0 100.5 -21t41.5 -63
q0 -24 -23.5 -43.5t-55.5 -27.5v-3q95 -42 95 -109q0 -55 -48 -92.5t-123 -37.5zM562 18q26 0 45.5 13.5t19.5 38.5q0 27 -23 44.5t-92 43.5q-23 -23 -23 -64q0 -76 73 -76zM603 244q17 17 17 58q0 64 -57 64q-25 0 -41 -12.5t-16 -32.5q0 -25 20.5 -42t76.5 -35z" />
    <glyph glyph-name="arrowleft" unicode="&#x2190;" horiz-adv-x="815" 
d="M695 250l-339 16l80 -66q53 -44 40 -99.5t-63.5 -68.5t-100.5 26l-286 287v4l287 288q45 45 99.5 26t63.5 -69t-40 -100l-80 -66l339 16q63 3 89.5 -47t0 -100t-89.5 -47z" />
    <glyph glyph-name="arrowright" unicode="&#x2192;" horiz-adv-x="815" 
d="M458 266l-339 -16q-63 -3 -89.5 47t0 100t89.5 47l339 -16l-80 66q-53 44 -40 99.5t63 69t100 -25.5l287 -288v-4l-286 -287q-46 -45 -100.5 -26.5t-63.5 68.5t40 100z" />
    <glyph glyph-name="minus" unicode="&#x2212;" horiz-adv-x="474" 
d="M42 329v31h389v-31h-389z" />
    <glyph glyph-name="uni24C5" unicode="&#x24c5;" horiz-adv-x="782" 
d="M420 167v-16h-205v16l12 4q18 6 22 14t4 41v247q0 32 -4.5 41t-22.5 14l-11 3v17h193q87 0 130.5 -31t43.5 -86q0 -59 -35 -93t-99 -34q-28 0 -52 7v13q34 4 48 24t14 73q0 54 -14 77.5t-45 23.5q-15 0 -28 -3v-291q0 -38 4 -45.5t25 -11.5zM34 344q0 149 103.5 253.5
t253.5 104.5t253 -104.5t103 -253.5q0 -150 -103 -254t-253 -104t-253.5 104t-103.5 254zM69 344q0 -136 92.5 -232.5t229.5 -96.5t229.5 96.5t92.5 232.5t-93 232.5t-229 96.5t-229 -96.5t-93 -232.5z" />
    <glyph glyph-name="square" unicode="&#x25a0;" horiz-adv-x="923" 
d="M114 0v693h694v-693h-694z" />
    <glyph glyph-name="squareopen" unicode="&#x25a1;" horiz-adv-x="923" 
d="M114 0v693h694v-693h-694zM160 44h602v607h-602v-607z" />
    <glyph glyph-name="triangleup" unicode="&#x25b2;" horiz-adv-x="826" 
d="M778 0h-729v14l354 710h20l355 -710v-14z" />
    <glyph glyph-name="triangleupopen" unicode="&#x25b3;" horiz-adv-x="804" 
d="M771 0h-729v14l359 710h10l360 -710v-14zM707 42l-302 597l-300 -597h602z" />
    <glyph glyph-name="triangleright" unicode="&#x25b6;" horiz-adv-x="857" 
d="M114 -18v729h14l680 -359v-10l-680 -360h-14z" />
    <glyph glyph-name="trianglerightopen" unicode="&#x25b7;" horiz-adv-x="857" 
d="M114 -18v729h14l680 -359v-10l-680 -360h-14zM160 45l569 302l-569 302v-604z" />
    <glyph glyph-name="triangledown" unicode="&#x25bc;" horiz-adv-x="826" 
d="M48 693h729v-14l-354 -710h-20l-355 710v14z" />
    <glyph glyph-name="triangledownopen" unicode="&#x25bd;" horiz-adv-x="804" 
d="M42 693h729v-14l-359 -710h-10l-360 710v14zM106 651l302 -597l300 597h-602z" />
    <glyph glyph-name="triangleleft" unicode="&#x25c0;" horiz-adv-x="857" 
d="M742 711v-729h-14l-680 360v10l680 359h14z" />
    <glyph glyph-name="triangleleftopen" unicode="&#x25c1;" horiz-adv-x="857" 
d="M742 711v-729h-14l-680 360v10l680 359h14zM127 347l569 -302v604z" />
    <glyph glyph-name="circle" unicode="&#x25cb;" horiz-adv-x="803" 
d="M400 -15q-150 0 -255.5 106t-105.5 256t105.5 255.5t255.5 105.5t256.5 -105.5t106.5 -255.5q0 -149 -107 -255.5t-256 -106.5z" />
    <glyph glyph-name="circleopen" unicode="&#x25cf;" horiz-adv-x="803" 
d="M400 -15q-150 0 -255.5 106t-105.5 256t105.5 255.5t255.5 105.5t256.5 -105.5t106.5 -255.5q0 -149 -107 -255.5t-256 -106.5zM400 27q131 0 223.5 94t92.5 226t-92.5 225.5t-223.5 93.5q-132 0 -223 -93t-91 -226q0 -132 91 -226t223 -94z" />
    <glyph glyph-name="star" unicode="&#x2605;" horiz-adv-x="829" 
d="M167 -34l-7 4l96 291l-244 174v8h304l94 291h8l95 -291h303v-8l-243 -174l95 -289l-7 -4l-247 176z" />
    <glyph glyph-name="staropen" unicode="&#x2606;" horiz-adv-x="829" 
d="M167 -34l-7 4l96 291l-244 174v8h304l94 291h8l95 -291h303v-8l-243 -174l95 -289l-7 -4l-247 176zM227 54l188 140l186 -140l-76 222l190 130h-229l-72 221l-72 -221h-228l189 -130z" />
    <glyph glyph-name="space_uni0326" 
d="M157 -244l-2 10q95 27 103 92q-13 -13 -38 -13t-40.5 15t-15.5 39q0 25 20.5 43t53.5 18q35 0 58.5 -22.5t23.5 -56.5q0 -53 -43.5 -86t-119.5 -39z" />
    <glyph glyph-name="caron.alt" 
d="M219 569l-10 4l4 139q0 49 46 49q23 0 40 -14t19 -32q0 -23 -16 -41z" />
    <glyph glyph-name="space_uni0326.alt" 
d="M324 767l2 -10q-94 -27 -104 -93q14 14 39 14t40.5 -15t15.5 -40q0 -24 -20.5 -42t-53.5 -18q-35 0 -59 22.5t-24 56.5q0 53 43.5 86t120.5 39z" />
    <glyph glyph-name="acute.pl" 
d="M224 561l-7 6l29 141q13 58 60 58q28 0 47 -18.5t19 -43.5q0 -32 -38 -59z" />
    <glyph glyph-name="grave.uc" 
d="M353 732l-4 -9l-182 29q-56 8 -56 60q0 28 18 47.5t45 19.5q29 0 55 -26z" />
    <glyph glyph-name="dieresis.uc" 
d="M135 722q-34 0 -57 21t-23 57t23 57t57 21q36 0 59 -21t23 -57t-23 -57t-59 -21zM344 722q-34 0 -57 21t-23 57t23 57t57 21q36 0 59 -21t23 -57t-23 -57t-59 -21z" />
    <glyph glyph-name="macron.uc" 
d="M102 755v63h276v-63h-276z" />
    <glyph glyph-name="acute.uc" 
d="M131 724l-4 10l124 120q25 26 55 26q27 0 45 -19.5t18 -47.5q0 -51 -56 -60z" />
    <glyph glyph-name="circumflex.uc" 
d="M86 723l-5 9l131 142h56l132 -142l-6 -9l-154 46z" />
    <glyph glyph-name="caron.uc" 
d="M81 872l5 9l154 -46l154 46l6 -9l-132 -142h-56z" />
    <glyph glyph-name="breve.uc" 
d="M240 726q-115 0 -137 150l10 4q21 -33 48.5 -47t78.5 -14q48 0 76.5 14.5t50.5 46.5l10 -4q-8 -69 -42.5 -109.5t-94.5 -40.5z" />
    <glyph glyph-name="dotaccent.uc" horiz-adv-x="335" 
d="M168 725q-38 0 -63 22.5t-25 59.5q0 36 25 58.5t63 22.5t63 -22.5t25 -58.5q0 -37 -25 -59.5t-63 -22.5z" />
    <glyph glyph-name="ring.uc" horiz-adv-x="481" 
d="M148 807q0 38 27.5 63.5t64.5 25.5t64.5 -25.5t27.5 -63.5t-27 -63t-65 -25t-65 25t-27 63zM183 807q0 -27 15.5 -44t41.5 -17t41.5 17t15.5 44t-15.5 44.5t-41.5 17.5t-41.5 -17.5t-15.5 -44.5z" />
    <glyph glyph-name="tilde.uc" 
d="M308 743q-20 0 -82.5 10t-84.5 10q-19 0 -31.5 -9t-27.5 -33l-13 7q23 70 45.5 102.5t57.5 32.5q21 0 82.5 -10.5t83.5 -10.5q33 0 60 43l13 -7q-23 -72 -44 -103.5t-59 -31.5z" />
    <glyph glyph-name="hungarumlaut.uc" 
d="M114 725l-10 7l51 120q19 47 53 47q22 0 40.5 -17.5t18.5 -40.5q0 -34 -47 -60zM284 725l-9 7l50 120q20 47 53 47q22 0 41 -17.5t19 -40.5q0 -35 -48 -60z" />
    <glyph glyph-name="acute.ucpl" 
d="M181 723l-7 6l32 124q16 58 60 58q25 0 45 -17.5t20 -41.5q0 -33 -38 -57z" />
    <glyph glyph-name="Cacute.pl" horiz-adv-x="623" 
d="M365 -12q-159 0 -251.5 91t-92.5 262q0 93 29.5 164.5t81 114t117 64t142.5 21.5q109 0 185 -24l15 -221h-17q-54 109 -90 159q-21 31 -43.5 44.5t-59.5 13.5q-152 0 -152 -316q0 -191 35 -268t110 -77q46 0 73 13.5t52 50.5q25 34 82 159h17l-12 -212q-99 -39 -221 -39z
M338 723l-7 6l32 124q16 58 60 58q25 0 45 -17.5t20 -41.5q0 -33 -38 -57z" />
    <glyph glyph-name="Nacute.pl" horiz-adv-x="670" 
d="M324 723l-7 6l32 124q16 58 60 58q25 0 45 -17.5t20 -41.5q0 -33 -38 -57zM534 -1l-415 585h-3v-461q0 -59 8 -75.5t41 -24.5l33 -8v-15h-191v15l30 8q27 8 34.5 24.5t7.5 70.5v477q0 39 -8.5 54t-34.5 22l-29 7v15h268l276 -384h3v261q0 59 -7.5 75t-40.5 24l-36 9v15
h193v-15l-30 -8q-27 -7 -34.5 -23.5t-7.5 -71.5v-576h-57z" />
    <glyph glyph-name="Oacute.pl" horiz-adv-x="727" 
d="M341 723l-7 6l32 124q16 58 60 58q25 0 45 -17.5t20 -41.5q0 -33 -38 -57zM361 -12q-67 0 -127 21t-108 62.5t-76.5 110t-28.5 156.5q0 95 31 168.5t82.5 115t110.5 62.5t122 21q54 0 102.5 -12t92.5 -38.5t75.5 -66.5t50.5 -100t19 -134q0 -77 -21 -140t-55 -104.5
t-79.5 -69.5t-93 -40t-97.5 -12zM364 16q72 0 104 69.5t32 246.5q0 192 -32 268.5t-105 76.5q-70 0 -103 -71t-33 -246q0 -193 32 -268.5t105 -75.5z" />
    <glyph glyph-name="Sacute.pl" horiz-adv-x="513" 
d="M233 -12q-137 0 -206 32l-12 204h18q49 -98 81 -140q28 -36 57 -52t72 -16q51 0 79 29t28 79q0 51 -30.5 81.5t-112.5 61.5q-103 37 -146 86.5t-43 131.5q0 95 71 157.5t184 62.5q109 0 175 -30l10 -183h-19q-42 92 -77 132q-26 30 -48.5 41.5t-55.5 11.5q-48 0 -76 -26
t-28 -72q0 -44 28.5 -71.5t106.5 -58.5q117 -44 164 -92.5t47 -128.5q0 -98 -72 -169t-195 -71zM231 723l-7 6l32 124q16 58 60 58q25 0 45 -17.5t20 -41.5q0 -33 -38 -57z" />
    <glyph glyph-name="Zacute.pl" horiz-adv-x="617" 
d="M18 0v32l348 628v4h-42q-87 0 -117 -9.5t-51 -41.5q-36 -54 -82 -161h-18l14 241h517v-32l-352 -628v-4h46q108 0 140 10.5t61 52.5q29 40 88 164h19l-19 -256h-552zM295 723l-7 6l32 124q16 58 60 58q25 0 45 -17.5t20 -41.5q0 -33 -38 -57z" />
    <glyph glyph-name="cacute.pl" horiz-adv-x="494" 
d="M269 -12q-120 0 -187 70.5t-67 192.5q0 73 27 129.5t72 89.5t96.5 49.5t106.5 16.5q80 0 123.5 -26.5t43.5 -77.5q0 -69 -75 -69q-43 0 -59 21t-21 75q-4 30 -10 39t-27 9q-102 0 -102 -207q0 -118 34 -173t124 -55q67 0 130 34v-17q-25 -36 -80.5 -68.5t-128.5 -32.5z
M242 561l-7 6l29 141q13 58 60 58q28 0 47 -18.5t19 -43.5q0 -32 -38 -59z" />
    <glyph glyph-name="idotaccent" horiz-adv-x="299" 
d="M2 0v15l21 6q28 7 34 15.5t6 41.5v336q0 31 -5.5 41t-29.5 26l-31 20v9l236 25l7 -5q-4 -55 -4 -125v-327q0 -33 6 -41t35 -16l20 -6v-15h-295zM58 663q0 36 25 58.5t62 22.5q38 0 63 -22.5t25 -58.5q0 -37 -25 -59t-63 -22t-62.5 22t-24.5 59z" />
    <glyph glyph-name="nacute.pl" horiz-adv-x="620" 
d="M302 561l-7 6l29 141q13 58 60 58q28 0 47 -18.5t19 -43.5q0 -32 -38 -59zM2 0v15l21 6q28 7 34 15.5t6 41.5v335q0 32 -5 41.5t-28 25.5l-31 21v9l226 25l8 -5l-1 -72h3q106 78 192 78q62 0 96 -34t34 -100v-324q0 -33 6 -41t35 -16l21 -6v-15h-290v15l19 5
q26 6 31 14.5t5 43.5v291q0 42 -15.5 59t-48.5 17q-44 0 -84 -12v-355q0 -35 5.5 -43.5t30.5 -14.5l19 -5v-15h-289z" />
    <glyph glyph-name="oacute.pl" horiz-adv-x="583" 
d="M291 -12q-117 0 -196.5 70.5t-79.5 201.5q0 93 41.5 157.5t102 91.5t132.5 27q117 0 196.5 -70t79.5 -202q0 -70 -23 -124.5t-62.5 -87t-88 -48.5t-102.5 -16zM294 15q34 0 53 17t30 70.5t11 152.5q0 104 -13 161.5t-32.5 75t-53.5 17.5q-31 0 -50.5 -18t-31.5 -71.5
t-12 -146.5q0 -107 11 -164t31 -75.5t57 -18.5zM277 561l-7 6l29 141q13 58 60 58q28 0 47 -18.5t19 -43.5q0 -32 -38 -59z" />
    <glyph glyph-name="sacute.pl" horiz-adv-x="430" 
d="M188 -12q-90 0 -163 21l-5 166h17q37 -69 69 -109q20 -28 41 -39t56 -11q36 0 58.5 20t22.5 54q0 33 -24 52.5t-100 49.5q-72 26 -106.5 65t-34.5 101q0 76 56 127t160 51q84 0 139 -21l6 -141h-15q-45 70 -62 89q-22 24 -40.5 34.5t-47.5 10.5q-35 0 -56 -18t-21 -48
q0 -32 22.5 -50.5t87.5 -42.5q90 -33 128 -73.5t38 -102.5q0 -83 -59 -134t-167 -51zM193 561l-7 6l29 141q13 58 60 58q28 0 47 -18.5t19 -43.5q0 -32 -38 -59z" />
    <glyph glyph-name="zacute.pl" horiz-adv-x="500" 
d="M14 0v36l279 450v4h-53q-53 0 -72 -6t-41 -31q-18 -20 -73 -115h-14l11 184h433v-34l-279 -452v-4h57q65 0 88.5 8t44.5 32q31 35 73 118h16l-18 -190h-452zM235 561l-7 6l29 141q13 58 60 58q28 0 47 -18.5t19 -43.5q0 -32 -38 -59z" />
    <glyph glyph-name="dollar.old" horiz-adv-x="510" 
d="M16 105q0 64 71 64q35 0 55 -20t28 -72q6 -34 16 -46t41 -14v234q-116 42 -160.5 92.5t-44.5 127.5q0 82 60 137.5t157 62.5v67h29v-66q99 -1 149.5 -33t50.5 -76q0 -29 -19 -45.5t-49 -16.5q-38 0 -55.5 18.5t-23.5 68.5q-4 31 -14 42.5t-39 12.5v-214q2 -2 5 -2
q117 -44 166.5 -97.5t49.5 -128.5q0 -85 -61.5 -144.5t-171.5 -65.5v-85h-29v84q-211 3 -211 115zM357 122q0 78 -101 118v-223q44 2 72.5 28.5t28.5 76.5zM147 549q0 -34 21.5 -59.5t70.5 -48.5v203q-43 -3 -67.5 -27.5t-24.5 -67.5z" />
    <glyph glyph-name="Euro.old" horiz-adv-x="568" 
d="M-1 361v30h57q20 135 111.5 208t210.5 73q78 0 128.5 -29t50.5 -79q0 -30 -19.5 -47t-52.5 -17q-38 0 -57.5 22t-24.5 78q-2 25 -10 33.5t-28 8.5q-57 0 -87.5 -57t-34.5 -194h194l-6 -30h-189v-14q0 -36 1 -52h174l-6 -30h-166q9 -115 51 -161t127 -46q72 0 134 39v-18
q-31 -41 -85.5 -66t-124.5 -25q-123 0 -201.5 69.5t-92.5 207.5h-54v30h52v27q0 26 1 39h-53z" />
    <glyph glyph-name="sterling.old" horiz-adv-x="527" 
d="M23 333v30h51q-21 74 -21 113q0 88 69 142.5t197 54.5q97 0 147 -29.5t50 -76.5q0 -28 -18.5 -45.5t-50.5 -17.5q-40 0 -58.5 21t-26.5 68q-5 33 -13.5 42.5t-29.5 9.5q-36 0 -51 -31t-15 -98q0 -13 13 -153h135v-30h-132q1 -12 1 -35q0 -65 -35.5 -103.5t-120.5 -65.5
v-4h304q29 0 43.5 15t30.5 64h17l-15 -204h-483v86q52 33 75 60t23 73q0 33 -25 114h-61z" />
    <glyph glyph-name="yen.old" horiz-adv-x="556" 
d="M29 297v28h150l-131 234q-27 47 -37 59t-28 19l-18 6v15h349v-15l-27 -7q-25 -7 -34.5 -15.5t-9.5 -22.5q0 -18 18 -55l92 -181h3l76 172q16 38 16 62q0 16 -9 24.5t-32 15.5l-25 7v15h180v-15l-15 -5q-21 -6 -35 -26.5t-42 -81.5l-94 -201v-4h151v-28h-151v-64h151v-29
h-151v-109q0 -43 7.5 -54.5t38.5 -18.5l32 -7v-15h-352v15l32 7q32 8 39 18.5t7 54.5v109h-151v29h151v64h-151z" />
    <glyph glyph-name="zero.old" horiz-adv-x="626" 
d="M309 -12q-124 0 -206.5 76t-82.5 222q0 83 26 146t69.5 99t94 53.5t106.5 17.5q121 0 205.5 -76.5t84.5 -224.5q0 -81 -26 -143t-69.5 -98t-94.5 -54t-107 -18zM313 16q60 0 84.5 62t24.5 210q0 112 -13 176t-35.5 87.5t-60.5 23.5q-61 0 -85 -60.5t-24 -215.5
q0 -158 26 -220.5t83 -62.5z" />
    <glyph glyph-name="one.old" horiz-adv-x="335" 
d="M4 0v15l33 6q27 4 34 15.5t7 47.5v392l-68 5v17q117 18 218 100l28 -6v-508q0 -37 6.5 -48t32.5 -15l33 -6v-15h-324z" />
    <glyph glyph-name="two.old" horiz-adv-x="509" 
d="M12 0v79q101 66 150 110q75 68 106.5 129.5t31.5 134.5q0 60 -22.5 90.5t-61.5 30.5q-44 0 -46 -48q-1 -54 -21 -77.5t-59 -23.5q-32 0 -51 18t-19 51q0 45 53.5 76.5t157.5 31.5q114 0 179.5 -47t65.5 -127q0 -90 -84.5 -164t-259.5 -138v-4h343l-10 -122h-453z" />
    <glyph glyph-name="three.old" horiz-adv-x="541" 
d="M216 -124q-207 0 -207 110q0 29 18.5 47t52.5 18q39 0 57 -21.5t23 -71.5q3 -31 14 -43t40 -12q98 0 98 182q0 84 -26 118t-94 34h-48v31h40q65 0 92 33t27 121q0 87 -16.5 120t-57.5 33q-25 0 -35.5 -12.5t-12.5 -38.5q-5 -54 -25 -76t-61 -22q-31 0 -49 18t-18 49
q0 48 55.5 78.5t158.5 30.5q123 0 185.5 -43t62.5 -125q0 -64 -44.5 -110.5t-127.5 -61.5v-3q101 -4 148 -53.5t47 -122.5q0 -99 -78.5 -153t-218.5 -54z" />
    <glyph glyph-name="four.old" horiz-adv-x="570" 
d="M465 -112h-177v170h-282v48l344 484h115v-466h102l-9 -66h-93v-170zM62 124h226v315h-3l-223 -312v-3z" />
    <glyph glyph-name="five.old" horiz-adv-x="515" 
d="M203 -124q-98 0 -145.5 28t-47.5 77q0 29 18 49t53 20q37 0 56 -22.5t25 -73.5q4 -31 14 -41t38 -10q55 0 89 45t34 112q0 138 -162 138q-68 0 -114 -17l-11 7l44 402h386l-15 -139h-353l-15 -129q51 19 136 19q124 0 192 -57t68 -163t-81.5 -175.5t-208.5 -69.5z" />
    <glyph glyph-name="six.old" horiz-adv-x="597" 
d="M300 -12q-125 0 -200.5 81.5t-75.5 246.5q0 184 94.5 286.5t258.5 102.5q88 0 133 -28t45 -73q0 -31 -18 -48.5t-51 -17.5q-40 0 -59.5 20t-23.5 66q-4 32 -13 42.5t-33 10.5q-41 0 -70.5 -24.5t-50.5 -94.5t-24 -186q65 43 148 43q102 0 158 -48.5t56 -148.5
q0 -103 -72 -166.5t-202 -63.5zM304 16q49 0 68 47t19 147q0 85 -22 119t-76 34q-49 0 -82 -18l-1 -34q0 -160 18 -227.5t76 -67.5z" />
    <glyph glyph-name="seven.old" horiz-adv-x="503" 
d="M101 -112q36 172 118.5 306.5t210.5 259.5h-319q-31 0 -43 -12t-34 -64h-19l15 212h467v-87q-97 -133 -139 -274.5t-57 -340.5h-200z" />
    <glyph glyph-name="eight.old" horiz-adv-x="562" 
d="M273 -12q-117 0 -187.5 42.5t-70.5 122.5q0 57 38.5 96t120.5 65v3q-132 80 -132 191q0 86 67.5 141.5t178.5 55.5q94 0 162.5 -41t68.5 -112q0 -51 -35.5 -85t-105.5 -60v-3q90 -46 128 -91t38 -114q0 -90 -77 -150.5t-194 -60.5zM351 417q42 48 42 127q0 64 -30.5 98
t-82.5 34q-50 0 -78.5 -28t-28.5 -75q0 -49 40.5 -80.5t137.5 -75.5zM280 17q63 0 98 30t35 79q0 23 -8.5 41.5t-20 32t-43.5 32t-57 31.5t-82 40q-56 -67 -56 -135q0 -151 134 -151z" />
    <glyph glyph-name="nine.old" horiz-adv-x="597" 
d="M295 601q126 0 203 -81t77 -251q0 -195 -97 -294t-255 -99q-88 0 -135 29t-47 74q0 31 19.5 49.5t54.5 18.5q36 0 54 -20t25 -72q6 -31 14 -41t34 -10q69 0 105 72.5t40 239.5q-64 -46 -151 -46q-101 0 -157.5 54.5t-56.5 153.5q0 103 71.5 163t201.5 60zM292 574
q-48 0 -67 -48t-19 -146q0 -82 23.5 -120t73.5 -38q51 0 85 23v29q0 167 -18.5 233.5t-77.5 66.5z" />
    <glyph glyph-name="percent.old" horiz-adv-x="696" 
d="M68 -46l499 723h39l-498 -723h-40zM184 341q-73 0 -120.5 41t-47.5 120q0 84 54 127t118 43q69 0 119 -43.5t50 -120.5q0 -81 -51.5 -124t-121.5 -43zM187 368q28 0 38.5 28.5t10.5 104.5q0 83 -11 113.5t-38 30.5q-26 0 -38.5 -28.5t-12.5 -107.5q0 -81 11.5 -111
t39.5 -30zM507 -13q-73 0 -120.5 41.5t-47.5 119.5q0 58 29 98.5t66 56t77 15.5q70 0 119.5 -43t49.5 -121q0 -81 -51.5 -124t-121.5 -43zM510 15q28 0 38.5 28.5t10.5 104.5q0 83 -11 113.5t-38 30.5q-26 0 -38 -28.5t-12 -108.5q0 -81 11 -110.5t39 -29.5z" />
    <glyph glyph-name="perthousand.old" horiz-adv-x="1058" 
d="M68 -46l499 723h39l-498 -723h-40zM183 341q-73 0 -120.5 41t-47.5 120q0 84 54 127t118 43q69 0 119 -43.5t50 -120.5q0 -81 -51.5 -124t-121.5 -43zM186 368q28 0 38.5 28.5t10.5 104.5q0 83 -11 113.5t-38 30.5q-26 0 -38 -28.5t-12 -107.5q0 -81 11 -111t39 -30z
M507 -13q-73 0 -120.5 41.5t-47.5 119.5q0 58 29 98.5t66 56t77 15.5q70 0 119.5 -43t49.5 -121q0 -81 -51.5 -124t-121.5 -43zM510 15q28 0 38.5 28.5t10.5 104.5q0 83 -11 113.5t-38 30.5q-26 0 -38 -28.5t-12 -108.5q0 -81 11 -110.5t39 -29.5zM869 -13
q-73 0 -120.5 41.5t-47.5 119.5q0 58 29 98.5t66 56t77 15.5q70 0 119.5 -43t49.5 -121q0 -81 -51.5 -124t-121.5 -43zM872 15q28 0 38.5 28t10.5 105q0 83 -11 113.5t-38 30.5q-26 0 -38 -28.5t-12 -108.5q0 -81 11 -110.5t39 -29.5z" />
    <glyph glyph-name="plus.old" horiz-adv-x="474" 
d="M221 82v191h-179v30h179v190h33v-190h178v-30h-178v-191h-33z" />
    <glyph glyph-name="minus.old" horiz-adv-x="474" 
d="M42 272v31h389v-31h-389z" />
    <glyph glyph-name="multiply.old" horiz-adv-x="447" 
d="M372 467l23 -23l-149 -157l149 -156l-22 -23l-149 156l-149 -156l-23 23l149 156l-148 157l22 23l148 -157z" />
    <glyph glyph-name="divide.old" horiz-adv-x="473" 
d="M42 272v31h389v-31h-389zM236 66q-29 0 -49.5 21t-20.5 48q0 30 20 50t50 20q28 0 48.5 -20t20.5 -50q0 -27 -20.5 -48t-48.5 -21zM236 370q-29 0 -49.5 21t-20.5 49q0 30 20 49.5t50 19.5q28 0 48.5 -20t20.5 -49q0 -28 -20.5 -49t-48.5 -21z" />
    <glyph glyph-name="equal.old" horiz-adv-x="530" 
d="M46 343v31h438v-31h-438zM46 202v32h438v-32h-438z" />
    <glyph glyph-name="less.old" horiz-adv-x="468" 
d="M415 102l-373 172v29l373 172v-34l-331 -152l331 -153v-34z" />
    <glyph glyph-name="greater.old" horiz-adv-x="468" 
d="M426 274l-373 -172v34l332 153l-332 152v34l373 -172v-29z" />
    <glyph glyph-name="numbersign.old" horiz-adv-x="444" 
d="M201 0l41 181h-110l-42 -181h-32l42 181h-87l26 107h86l20 92h-85l24 107h86l40 171h32l-40 -171h111l40 171h31l-39 -171h86l-26 -107h-85l-21 -92h87l-25 -107h-87l-41 -181h-32zM177 380l-21 -92h111l21 92h-111z" />
    <glyph glyph-name="zero.num" horiz-adv-x="424" 
d="M208 302q-78 0 -134 54t-56 141q0 99 58.5 151t136.5 52t136 -52t58 -145q0 -91 -59.5 -146t-139.5 -55zM212 327q30 0 42.5 33.5t12.5 135.5q0 77 -6.5 116.5t-17 51t-31.5 11.5q-19 0 -30 -10.5t-18.5 -49t-7.5 -109.5q0 -111 12.5 -145t43.5 -34z" />
    <glyph glyph-name="one.num" horiz-adv-x="248" 
d="M6 309v16l18 5q19 6 23.5 12.5t4.5 35.5v208l-45 11v15q50 8 97.5 32t72.5 54l19 -5v-315q0 -28 5.5 -36t23.5 -12l18 -5v-16h-237z" />
    <glyph glyph-name="two.num" horiz-adv-x="328" 
d="M8 309v59q71 54 106 91q66 75 66 145t-38 70q-13 0 -17 -6t-6 -26q-4 -35 -17.5 -49.5t-44.5 -14.5q-22 0 -35 13t-13 34q0 34 40 54.5t109 20.5q72 0 114.5 -29.5t42.5 -83.5q0 -46 -51 -89t-173 -91v-3h154q19 0 27.5 9t21.5 40h17l-8 -144h-295z" />
    <glyph glyph-name="three.num" horiz-adv-x="340" 
d="M142 302q-64 0 -99.5 20.5t-35.5 55.5q0 19 13.5 30t35.5 11q27 0 39.5 -14.5t15.5 -50.5q2 -17 7 -22t20 -5q23 0 36.5 21t13.5 61q0 46 -17.5 66.5t-55.5 20.5h-26v28h24q67 0 67 80q0 71 -36 71q-12 0 -16.5 -4.5t-7.5 -20.5q-6 -32 -17.5 -46t-37.5 -14q-45 0 -45 41
q0 30 33.5 49.5t98.5 19.5q69 0 111.5 -23.5t42.5 -71.5q0 -34 -27.5 -56.5t-80.5 -29.5v-3q64 -7 94 -31t30 -71q0 -49 -46 -80.5t-134 -31.5z" />
    <glyph glyph-name="four.num" horiz-adv-x="358" 
d="M112 309v16l18 5q21 5 25.5 12t4.5 36v38h-156v30l199 247h93v-235h57l-4 -42h-53v-38q0 -30 4.5 -37t24.5 -11l20 -5v-16h-233zM50 458h110v138h-2l-108 -136v-2z" />
    <glyph glyph-name="five.num" horiz-adv-x="331" 
d="M130 302q-61 0 -90 18t-29 47q0 42 47 42q23 0 34.5 -12.5t15.5 -39.5q4 -19 10 -24.5t22 -5.5q57 0 57 65q0 34 -23.5 52t-62.5 18q-43 0 -70 -11l-9 5l27 237l184 -1q16 0 23 6.5t18 29.5h18l-13 -122h-211l-6 -52q30 10 83 10q76 0 116 -32t40 -89q0 -61 -48 -101
t-133 -40z" />
    <glyph glyph-name="six.num" horiz-adv-x="380" 
d="M198 302q-84 0 -132.5 46.5t-48.5 138.5q0 105 64.5 159t156.5 54q55 0 84 -18.5t29 -48.5q0 -43 -52 -43q-27 0 -37.5 12.5t-14.5 44.5q-2 16 -7 22t-17 6q-31 0 -48.5 -33.5t-19.5 -121.5q39 22 86 22q57 0 90.5 -28.5t33.5 -84.5q0 -55 -44 -91t-123 -36zM195 326
q22 0 30.5 20t8.5 74q0 49 -12.5 66t-35.5 17q-17 0 -31 -7v-11q0 -100 8 -129.5t32 -29.5z" />
    <glyph glyph-name="seven.num" horiz-adv-x="317" 
d="M56 309q30 172 202 293h-176q-23 0 -32 -8.5t-23 -42.5h-17l10 142h286v-58q-57 -67 -79 -146t-23 -180h-148z" />
    <glyph glyph-name="eight.num" horiz-adv-x="368" 
d="M178 303q-78 0 -120 24t-42 63q0 62 93 83v3q-42 20 -59.5 44t-17.5 60q0 56 49.5 88t109.5 32q59 0 100.5 -21t41.5 -63q0 -24 -23.5 -43.5t-55.5 -27.5v-3q95 -42 95 -109q0 -55 -48 -92.5t-123 -37.5zM184 327q26 0 45.5 13.5t19.5 38.5q0 27 -23 44.5t-92 43.5
q-23 -23 -23 -64q0 -76 73 -76zM225 553q17 17 17 58q0 64 -57 64q-25 0 -41 -12.5t-16 -32.5q0 -25 20.5 -42t76.5 -35z" />
    <glyph glyph-name="nine.num" horiz-adv-x="380" 
d="M181 699q85 0 133.5 -46.5t48.5 -138.5q0 -107 -61.5 -160t-158.5 -53q-55 0 -84 18.5t-29 48.5q0 20 14 31.5t39 11.5q26 0 36.5 -13t14.5 -44q3 -18 7 -23t16 -5q35 0 49.5 31t17.5 123q-35 -21 -85 -21q-57 0 -90.5 28.5t-33.5 84.5t43.5 91.5t122.5 35.5zM185 675
q-22 0 -30.5 -19.5t-8.5 -74.5q0 -49 12.5 -66t34.5 -17q19 0 31 7v11q0 100 -8 129.5t-31 29.5z" />
    <glyph glyph-name="zero.den" horiz-adv-x="424" 
d="M208 -7q-78 0 -134 54t-56 141q0 99 58.5 151t136.5 52t136 -52t58 -145q0 -91 -59.5 -146t-139.5 -55zM212 18q30 0 42.5 33.5t12.5 135.5q0 77 -6.5 116.5t-17 51t-31.5 11.5q-19 0 -30 -10.5t-18.5 -49t-7.5 -109.5q0 -111 12.5 -145t43.5 -34z" />
    <glyph glyph-name="one.den" horiz-adv-x="248" 
d="M6 0v16l18 5q19 6 23.5 12.5t4.5 35.5v208l-45 11v15q50 8 97.5 32t72.5 54l19 -5v-315q0 -28 5.5 -36t23.5 -12l18 -5v-16h-237z" />
    <glyph glyph-name="two.den" horiz-adv-x="328" 
d="M8 0v59q71 54 106 91q66 75 66 145t-38 70q-13 0 -17 -6.5t-6 -25.5q-4 -35 -17.5 -49.5t-44.5 -14.5q-22 0 -35 13t-13 34q0 34 40 54.5t109 20.5q72 0 114.5 -29.5t42.5 -83.5q0 -46 -51 -89t-173 -91v-3h154q19 0 27.5 9t21.5 40h17l-8 -144h-295z" />
    <glyph glyph-name="three.den" horiz-adv-x="340" 
d="M142 -7q-64 0 -99.5 20.5t-35.5 55.5q0 19 13.5 30t35.5 11q27 0 39.5 -14.5t15.5 -50.5q2 -17 7 -22t20 -5q23 0 36.5 21t13.5 61q0 46 -17.5 66.5t-55.5 20.5h-26v28h24q67 0 67 80q0 71 -36 71q-12 0 -16.5 -4.5t-7.5 -20.5q-6 -32 -17.5 -46t-37.5 -14q-45 0 -45 41
q0 30 33.5 49.5t98.5 19.5q69 0 111.5 -23.5t42.5 -71.5q0 -34 -27.5 -56.5t-80.5 -29.5v-3q64 -7 94 -31t30 -71q0 -49 -46 -80.5t-134 -31.5z" />
    <glyph glyph-name="four.den" horiz-adv-x="358" 
d="M112 0v16l18 5q21 5 25.5 12t4.5 36v38h-156v30l199 247h93v-235h57l-4 -42h-53v-38q0 -30 4.5 -37t24.5 -11l20 -5v-16h-233zM50 149h110v138h-2l-108 -136v-2z" />
    <glyph glyph-name="five.den" horiz-adv-x="331" 
d="M130 -7q-61 0 -90 18t-29 47q0 42 47 42q23 0 34.5 -12.5t15.5 -39.5q4 -19 10 -24.5t22 -5.5q57 0 57 65q0 34 -23.5 52t-62.5 18q-43 0 -70 -11l-9 5l27 237l184 -1q16 0 23 6.5t18 29.5h18l-13 -122h-211l-6 -52q30 10 83 10q76 0 116 -32t40 -89q0 -61 -48 -101
t-133 -40z" />
    <glyph glyph-name="six.den" horiz-adv-x="380" 
d="M198 -7q-84 0 -132.5 46.5t-48.5 138.5q0 105 64.5 159t156.5 54q55 0 84 -18.5t29 -48.5q0 -43 -52 -43q-27 0 -37.5 12.5t-14.5 44.5q-2 16 -7 22t-17 6q-31 0 -48.5 -33.5t-19.5 -121.5q39 22 86 22q57 0 90.5 -28.5t33.5 -84.5q0 -55 -44 -91t-123 -36zM195 17
q22 0 30.5 20t8.5 74q0 49 -12.5 66t-35.5 17q-17 0 -31 -7v-11q0 -100 8 -129.5t32 -29.5z" />
    <glyph glyph-name="seven.den" horiz-adv-x="317" 
d="M56 0q30 172 202 293h-176q-23 0 -32 -8.5t-23 -42.5h-17l10 142h286v-58q-57 -67 -79 -146t-23 -180h-148z" />
    <glyph glyph-name="eight.den" horiz-adv-x="368" 
d="M178 -6q-78 0 -120 24t-42 63q0 62 93 83v3q-42 20 -59.5 44t-17.5 60q0 56 49.5 88t109.5 32q59 0 100.5 -21t41.5 -63q0 -24 -23.5 -43.5t-55.5 -27.5v-3q95 -42 95 -109q0 -55 -48 -92.5t-123 -37.5zM184 18q26 0 45.5 13.5t19.5 38.5q0 27 -23 44.5t-92 43.5
q-23 -23 -23 -64q0 -76 73 -76zM225 244q17 17 17 58q0 64 -57 64q-25 0 -41 -12.5t-16 -32.5q0 -25 20.5 -42t76.5 -35z" />
    <glyph glyph-name="nine.den" horiz-adv-x="380" 
d="M181 390q85 0 133.5 -46.5t48.5 -138.5q0 -107 -61.5 -160t-158.5 -53q-55 0 -84 18.5t-29 48.5q0 20 14 31.5t39 11.5q26 0 36.5 -13t14.5 -44q3 -18 7 -23t16 -5q35 0 49.5 31t17.5 123q-35 -21 -85 -21q-57 0 -90.5 28.5t-33.5 84.5t43.5 91.5t122.5 35.5zM185 366
q-22 0 -30.5 -19.5t-8.5 -74.5q0 -49 12.5 -66t34.5 -17q19 0 31 7v11q0 100 -8 129.5t-31 29.5z" />
    <glyph glyph-name="zero.sub" horiz-adv-x="424" 
d="M208 -56q-78 0 -134 54t-56 141q0 99 58.5 151t136.5 52t136 -52t58 -145q0 -91 -59.5 -146t-139.5 -55zM212 -31q30 0 42.5 33.5t12.5 135.5q0 77 -6.5 116.5t-17 51t-31.5 11.5q-19 0 -30 -10.5t-18.5 -49t-7.5 -109.5q0 -111 12.5 -145t43.5 -34z" />
    <glyph glyph-name="one.sub" horiz-adv-x="248" 
d="M6 -49v16l18 5q19 6 23.5 12.5t4.5 35.5v208l-45 11v15q50 8 97.5 32t72.5 54l19 -5v-315q0 -28 5.5 -36t23.5 -12l18 -5v-16h-237z" />
    <glyph glyph-name="two.sub" horiz-adv-x="328" 
d="M8 -49v59q71 54 106 91q66 75 66 145t-38 70q-13 0 -17 -6t-6 -26q-4 -35 -17.5 -49.5t-44.5 -14.5q-22 0 -35 13t-13 34q0 34 40 54.5t109 20.5q72 0 114.5 -29.5t42.5 -83.5q0 -46 -51 -89t-173 -91v-3h154q19 0 27.5 9t21.5 40h17l-8 -144h-295z" />
    <glyph glyph-name="three.sub" horiz-adv-x="340" 
d="M142 -56q-64 0 -99.5 20.5t-35.5 55.5q0 19 13.5 30t35.5 11q27 0 39.5 -14.5t15.5 -50.5q2 -17 7 -22t20 -5q23 0 36.5 21t13.5 61q0 46 -17.5 66.5t-55.5 20.5h-26v28h24q67 0 67 80q0 71 -36 71q-12 0 -16.5 -4.5t-7.5 -20.5q-6 -32 -17.5 -46t-37.5 -14q-45 0 -45 41
q0 30 33.5 49.5t98.5 19.5q69 0 111.5 -23.5t42.5 -71.5q0 -34 -27.5 -56.5t-80.5 -29.5v-3q64 -7 94 -31t30 -71q0 -49 -46 -80.5t-134 -31.5z" />
    <glyph glyph-name="four.sub" horiz-adv-x="358" 
d="M112 -49v16l18 5q21 5 25.5 12t4.5 36v38h-156v30l199 247h93v-235h57l-4 -42h-53v-38q0 -30 4.5 -37t24.5 -11l20 -5v-16h-233zM50 100h110v138h-2l-108 -136v-2z" />
    <glyph glyph-name="five.sub" horiz-adv-x="331" 
d="M130 -56q-61 0 -90 18t-29 47q0 42 47 42q23 0 34.5 -12.5t15.5 -39.5q4 -19 10 -24.5t22 -5.5q57 0 57 65q0 34 -23.5 52t-62.5 18q-43 0 -70 -11l-9 5l27 237l184 -1q16 0 23 6.5t18 29.5h18l-13 -122h-211l-6 -52q30 10 83 10q76 0 116 -32t40 -89q0 -61 -48 -101
t-133 -40z" />
    <glyph glyph-name="six.sub" horiz-adv-x="380" 
d="M198 -56q-84 0 -132.5 46.5t-48.5 138.5q0 105 64.5 159t156.5 54q55 0 84 -18.5t29 -48.5q0 -43 -52 -43q-27 0 -37.5 12.5t-14.5 44.5q-2 16 -7 22t-17 6q-31 0 -48.5 -33.5t-19.5 -121.5q39 22 86 22q57 0 90.5 -28.5t33.5 -84.5q0 -55 -44 -91t-123 -36zM195 -32
q22 0 30.5 20t8.5 74q0 49 -12.5 66t-35.5 17q-17 0 -31 -7v-11q0 -100 8 -129.5t32 -29.5z" />
    <glyph glyph-name="seven.sub" horiz-adv-x="317" 
d="M56 -49q30 172 202 293h-176q-23 0 -32 -8.5t-23 -42.5h-17l10 142h286v-58q-57 -67 -79 -146t-23 -180h-148z" />
    <glyph glyph-name="eight.sub" horiz-adv-x="368" 
d="M178 -55q-78 0 -120 24t-42 63q0 62 93 83v3q-42 20 -59.5 44t-17.5 60q0 56 49.5 88t109.5 32q59 0 100.5 -21t41.5 -63q0 -24 -23.5 -43.5t-55.5 -27.5v-3q95 -42 95 -109q0 -55 -48 -92.5t-123 -37.5zM184 -31q26 0 45.5 13.5t19.5 38.5q0 27 -23 44.5t-92 43.5
q-23 -23 -23 -64q0 -76 73 -76zM225 195q17 17 17 58q0 64 -57 64q-25 0 -41 -12.5t-16 -32.5q0 -25 20.5 -42t76.5 -35z" />
    <glyph glyph-name="nine.sub" horiz-adv-x="380" 
d="M181 341q85 0 133.5 -46.5t48.5 -138.5q0 -107 -61.5 -160t-158.5 -53q-55 0 -84 18.5t-29 48.5q0 20 14 31.5t39 11.5q26 0 36.5 -13t14.5 -44q3 -18 7 -23t16 -5q35 0 49.5 31t17.5 123q-35 -21 -85 -21q-57 0 -90.5 28.5t-33.5 84.5t43.5 91.5t122.5 35.5zM185 317
q-22 0 -30.5 -19.5t-8.5 -74.5q0 -49 12.5 -66t34.5 -17q19 0 31 7v11q0 100 -8 129.5t-31 29.5z" />
    <glyph glyph-name="zero.sup" horiz-adv-x="424" 
d="M208 399q-78 0 -134 54t-56 141q0 99 58.5 151t136.5 52t136 -52t58 -145q0 -91 -59.5 -146t-139.5 -55zM212 424q30 0 42.5 33.5t12.5 135.5q0 77 -6.5 116.5t-17 51t-31.5 11.5q-19 0 -30 -10.5t-18.5 -49t-7.5 -109.5q0 -111 12.5 -145t43.5 -34z" />
    <glyph glyph-name="one.sup" horiz-adv-x="248" 
d="M6 406v16l18 5q19 6 23.5 12.5t4.5 35.5v208l-45 11v15q50 8 97.5 32t72.5 54l19 -5v-315q0 -28 5.5 -36t23.5 -12l18 -5v-16h-237z" />
    <glyph glyph-name="two.sup" horiz-adv-x="328" 
d="M8 406v59q71 54 106 91q66 75 66 145t-38 70q-13 0 -17 -6.5t-6 -25.5q-4 -35 -17.5 -49.5t-44.5 -14.5q-22 0 -35 13t-13 34q0 34 40 54.5t109 20.5q72 0 114.5 -29.5t42.5 -83.5q0 -46 -51 -89t-173 -91v-3h154q19 0 27.5 9t21.5 40h17l-8 -144h-295z" />
    <glyph glyph-name="three.sup" horiz-adv-x="340" 
d="M142 399q-64 0 -99.5 20.5t-35.5 55.5q0 19 13.5 30t35.5 11q27 0 39.5 -14.5t15.5 -50.5q2 -17 7 -22t20 -5q23 0 36.5 21t13.5 61q0 46 -17.5 66.5t-55.5 20.5h-26v28h24q67 0 67 80q0 71 -36 71q-12 0 -16.5 -4.5t-7.5 -20.5q-6 -32 -17.5 -46t-37.5 -14q-45 0 -45 41
q0 30 33.5 49.5t98.5 19.5q69 0 111.5 -23.5t42.5 -71.5q0 -34 -27.5 -56.5t-80.5 -29.5v-3q64 -7 94 -31t30 -71q0 -49 -46 -80.5t-134 -31.5z" />
    <glyph glyph-name="four.sup" horiz-adv-x="358" 
d="M112 406v16l18 5q21 5 25.5 12t4.5 36v38h-156v30l199 247h93v-235h57l-4 -42h-53v-38q0 -30 4.5 -37t24.5 -11l20 -5v-16h-233zM50 555h110v138h-2l-108 -136v-2z" />
    <glyph glyph-name="five.sup" horiz-adv-x="331" 
d="M130 399q-61 0 -90 18t-29 47q0 42 47 42q23 0 34.5 -12.5t15.5 -39.5q4 -19 10 -24.5t22 -5.5q57 0 57 65q0 34 -23.5 52t-62.5 18q-43 0 -70 -11l-9 5l27 237l184 -1q16 0 23 6.5t18 29.5h18l-13 -122h-211l-6 -52q30 10 83 10q76 0 116 -32t40 -89q0 -61 -48 -101
t-133 -40z" />
    <glyph glyph-name="six.sup" horiz-adv-x="380" 
d="M198 399q-84 0 -132.5 46.5t-48.5 138.5q0 105 64.5 159t156.5 54q55 0 84 -18.5t29 -48.5q0 -43 -52 -43q-27 0 -37.5 12.5t-14.5 44.5q-2 16 -7 22t-17 6q-31 0 -48.5 -33.5t-19.5 -121.5q39 22 86 22q57 0 90.5 -28.5t33.5 -84.5q0 -55 -44 -91t-123 -36zM195 423
q22 0 30.5 20t8.5 74q0 49 -12.5 66t-35.5 17q-17 0 -31 -7v-11q0 -100 8 -129.5t32 -29.5z" />
    <glyph glyph-name="seven.sup" horiz-adv-x="317" 
d="M56 406q30 172 202 293h-176q-23 0 -32 -8.5t-23 -42.5h-17l10 142h286v-58q-57 -67 -79 -146t-23 -180h-148z" />
    <glyph glyph-name="eight.sup" horiz-adv-x="368" 
d="M178 400q-78 0 -120 24t-42 63q0 62 93 83v3q-42 20 -59.5 44t-17.5 60q0 56 49.5 88t109.5 32q59 0 100.5 -21t41.5 -63q0 -24 -23.5 -43.5t-55.5 -27.5v-3q95 -42 95 -109q0 -55 -48 -92.5t-123 -37.5zM184 424q26 0 45.5 13.5t19.5 38.5q0 27 -23 44.5t-92 43.5
q-23 -23 -23 -64q0 -76 73 -76zM225 650q17 17 17 58q0 64 -57 64q-25 0 -41 -12.5t-16 -32.5q0 -25 20.5 -42t76.5 -35z" />
    <glyph glyph-name="nine.sup" horiz-adv-x="380" 
d="M181 796q85 0 133.5 -46.5t48.5 -138.5q0 -107 -61.5 -160t-158.5 -53q-55 0 -84 18.5t-29 48.5q0 20 14 31.5t39 11.5q26 0 36.5 -13t14.5 -44q3 -18 7 -23t16 -5q35 0 49.5 31t17.5 123q-35 -21 -85 -21q-57 0 -90.5 28.5t-33.5 84.5t43.5 91.5t122.5 35.5zM185 772
q-22 0 -30.5 -19.5t-8.5 -74.5q0 -49 12.5 -66t34.5 -17q19 0 31 7v11q0 100 -8 129.5t-31 29.5z" />
    <glyph glyph-name="J.alt" horiz-adv-x="357" 
d="M22 -183q-76 0 -113.5 27.5t-37.5 69.5q0 32 20 49.5t55 17.5q40 0 59.5 -22.5t24.5 -89.5q1 -22 16 -22q33 0 33 91v657q0 47 -6.5 58.5t-34.5 17.5l-31 7v15h343v-15l-30 -7q-29 -8 -35.5 -18.5t-6.5 -57.5v-523q0 -115 -67 -185t-189 -70z" />
    <glyph glyph-name="R.alt" horiz-adv-x="706" 
d="M7 0v15l30 7q28 8 35 19t7 57v497q0 46 -7 57t-35 19l-30 7v15h333q155 0 223 -43t68 -138q0 -77 -49.5 -118.5t-158.5 -57.5v-3q49 -8 80.5 -24t56.5 -48q33 -40 66 -116.5t43 -91.5q18 -26 38 -32l17 -6v-15h-254q-15 36 -42 123t-43 125q-15 38 -33 52.5t-49 14.5h-24
v-217q0 -47 6.5 -58t32.5 -18l29 -7v-15h-340zM322 343q58 0 83.5 34t25.5 120q0 92 -22 127t-77 35q-29 0 -53 -4v-308q16 -4 43 -4z" />
    <glyph glyph-name="Jcircumflex.alt" horiz-adv-x="357" 
d="M24 723l-5 9l131 142h56l132 -142l-6 -9l-154 46zM22 -183q-76 0 -113.5 27.5t-37.5 69.5q0 32 20 49.5t55 17.5q40 0 59.5 -22.5t24.5 -89.5q1 -22 16 -22q33 0 33 91v657q0 47 -6.5 58.5t-34.5 17.5l-31 7v15h343v-15l-30 -7q-29 -8 -35.5 -18.5t-6.5 -57.5v-523
q0 -115 -67 -185t-189 -70z" />
    <glyph glyph-name="IJ.alt" horiz-adv-x="719" 
d="M7 0v15l32 7q29 7 36 18.5t7 57.5v497q0 46 -7 57.5t-36 18.5l-32 7v15h348v-15l-32 -7q-29 -7 -36 -18t-7 -58v-497q0 -47 7 -58t36 -18l32 -7v-15h-348zM384 -183q-76 0 -113.5 27.5t-37.5 69.5q0 32 20 49.5t55 17.5q40 0 59.5 -22.5t23.5 -89.5q3 -22 16 -22
q34 0 34 91v657q0 47 -6.5 58.5t-34.5 17.5l-31 7v15h343v-15l-30 -7q-30 -8 -36.5 -18.5t-6.5 -57.5v-523q0 -115 -66.5 -185t-188.5 -70z" />
    <glyph glyph-name="Racute.alt" horiz-adv-x="706" 
d="M234 724l-4 10l124 120q25 26 55 26q27 0 45 -19.5t18 -47.5q0 -51 -56 -60zM7 0v15l30 7q28 8 35 19t7 57v497q0 46 -7 57t-35 19l-30 7v15h333q155 0 223 -43t68 -138q0 -77 -49.5 -118.5t-158.5 -57.5v-3q49 -8 80.5 -24t56.5 -48q33 -40 66 -116.5t43 -91.5
q18 -26 38 -32l17 -6v-15h-254q-15 36 -42 123t-43 125q-15 38 -33 52.5t-49 14.5h-24v-217q0 -47 6.5 -58t32.5 -18l29 -7v-15h-340zM322 343q58 0 83.5 34t25.5 120q0 92 -22 127t-77 35q-29 0 -53 -4v-308q16 -4 43 -4z" />
    <glyph glyph-name="Rcaron.alt" horiz-adv-x="706" 
d="M176 872l5 9l154 -46l154 46l6 -9l-132 -142h-56zM7 0v15l30 7q28 8 35 19t7 57v497q0 46 -7 57t-35 19l-30 7v15h333q155 0 223 -43t68 -138q0 -77 -49.5 -118.5t-158.5 -57.5v-3q49 -8 80.5 -24t56.5 -48q33 -40 66 -116.5t43 -91.5q18 -26 38 -32l17 -6v-15h-254
q-15 36 -42 123t-43 125q-15 38 -33 52.5t-49 14.5h-24v-217q0 -47 6.5 -58t32.5 -18l29 -7v-15h-340zM322 343q58 0 83.5 34t25.5 120q0 92 -22 127t-77 35q-29 0 -53 -4v-308q16 -4 43 -4z" />
    <glyph glyph-name="Rcommaaccent.alt" horiz-adv-x="706" 
d="M267 -244l-2 10q95 27 103 92q-13 -13 -38 -13t-40.5 15t-15.5 39q0 25 20.5 43t53.5 18q35 0 58.5 -22.5t23.5 -56.5q0 -53 -43.5 -86t-119.5 -39zM7 0v15l30 7q28 8 35 19t7 57v497q0 46 -7 57t-35 19l-30 7v15h333q155 0 223 -43t68 -138q0 -77 -49.5 -118.5
t-158.5 -57.5v-3q49 -8 80.5 -24t56.5 -48q33 -40 66 -116.5t43 -91.5q18 -26 38 -32l17 -6v-15h-254q-15 36 -42 123t-43 125q-15 38 -33 52.5t-49 14.5h-24v-217q0 -47 6.5 -58t32.5 -18l29 -7v-15h-340zM322 343q58 0 83.5 34t25.5 120q0 92 -22 127t-77 35q-29 0 -53 -4
v-308q16 -4 43 -4z" />
    <glyph glyph-name="f.short" horiz-adv-x="340" 
d="M2 0v15l21 6q28 7 34 15.5t6 42.5v394h-65v11l65 38v23q0 100 50.5 158.5t160.5 58.5q61 0 92.5 -24t31.5 -60q0 -28 -16 -43.5t-42 -15.5q-30 0 -45.5 15.5t-19.5 57.5q-3 42 -19 42q-8 0 -12 -6.5t-6 -27t-2 -58.5v-120h95l-8 -49h-87v-394q0 -32 5.5 -40t31.5 -15
l33 -9v-15h-304z" />
    <glyph glyph-name="f_f.short" horiz-adv-x="648" 
d="M305 749q86 0 123 -40q53 53 154 53q61 0 92.5 -24t31.5 -60q0 -28 -15.5 -43.5t-41.5 -15.5q-31 0 -46.5 16t-18.5 57q-2 24 -6 33t-13 9q-12 0 -16.5 -18t-4.5 -74v-120h95l-7 -49h-88v-394q0 -32 5.5 -40t31.5 -15l33 -9v-15h-296v15l18 5q25 6 30.5 14.5t5.5 44.5
v394h-136v-394q0 -35 5 -43.5t29 -15.5l22 -5v-15h-290v15l21 6q28 7 34 15.5t6 42.5v394h-65v11l65 38v19q0 95 63 151.5t179 56.5zM372 522v23q0 33 4 57q-32 1 -45 20.5t-16 65.5q-2 34 -21 34q-58 0 -58 -116v-84h136z" />
    <glyph glyph-name="g.short" horiz-adv-x="522" 
d="M212 -202q-224 0 -224 108q0 37 32 62.5t95 35.5v2q-93 23 -93 102q0 39 23.5 70.5t56.5 50.5v2q-83 41 -83 129q0 82 62 129t156 47q74 0 131 -30q48 53 92 53q28 0 43 -14.5t15 -40.5q0 -23 -11.5 -35t-29.5 -12q-31 0 -47 30q-10 17 -19.5 18.5t-26.5 -11.5v-2
q72 -47 72 -118q0 -82 -62 -128t-157 -46q-65 0 -116 20q-20 -20 -20 -45q0 -29 48 -29h194q168 0 168 -135q0 -95 -82 -154t-217 -59zM234 -175q82 0 126 26.5t44 76.5q0 38 -22.5 54.5t-72.5 16.5h-171q-27 -21 -27 -78q0 -96 123 -96zM237 226q35 0 48 28t13 110
q0 86 -13.5 116t-47.5 30t-47 -28.5t-13 -111.5q0 -84 13.5 -114t46.5 -30z" />
    <glyph glyph-name="gbreve.short" horiz-adv-x="522" 
d="M212 -202q-224 0 -224 108q0 37 32 62.5t95 35.5v2q-93 23 -93 102q0 39 23.5 70.5t56.5 50.5v2q-83 41 -83 129q0 82 62 129t156 47q74 0 131 -30q48 53 92 53q28 0 43 -14.5t15 -40.5q0 -23 -11.5 -35t-29.5 -12q-31 0 -47 30q-10 17 -19.5 18.5t-26.5 -11.5v-2
q72 -47 72 -118q0 -82 -62 -128t-157 -46q-65 0 -116 20q-20 -20 -20 -45q0 -29 48 -29h194q168 0 168 -135q0 -95 -82 -154t-217 -59zM234 -175q82 0 126 26.5t44 76.5q0 38 -22.5 54.5t-72.5 16.5h-171q-27 -21 -27 -78q0 -96 123 -96zM237 226q35 0 48 28t13 110
q0 86 -13.5 116t-47.5 30t-47 -28.5t-13 -111.5q0 -84 13.5 -114t46.5 -30zM248 575q-104 0 -127 150l10 4q30 -59 118 -59q84 0 116 59l10 -4q-8 -67 -40 -108.5t-87 -41.5z" />
    <glyph glyph-name="gcircumflex.short" horiz-adv-x="522" 
d="M220 734h52l119 -154l-5 -8l-140 57l-139 -57l-5 8zM212 -202q-224 0 -224 108q0 37 32 62.5t95 35.5v2q-93 23 -93 102q0 39 23.5 70.5t56.5 50.5v2q-83 41 -83 129q0 82 62 129t156 47q74 0 131 -30q48 53 92 53q28 0 43 -14.5t15 -40.5q0 -23 -11.5 -35t-29.5 -12
q-31 0 -47 30q-10 17 -19.5 18.5t-26.5 -11.5v-2q72 -47 72 -118q0 -82 -62 -128t-157 -46q-65 0 -116 20q-20 -20 -20 -45q0 -29 48 -29h194q168 0 168 -135q0 -95 -82 -154t-217 -59zM234 -175q82 0 126 26.5t44 76.5q0 38 -22.5 54.5t-72.5 16.5h-171q-27 -21 -27 -78
q0 -96 123 -96zM237 226q35 0 48 28t13 110q0 86 -13.5 116t-47.5 30t-47 -28.5t-13 -111.5q0 -84 13.5 -114t46.5 -30z" />
    <glyph glyph-name="gcommaaccent.short" horiz-adv-x="522" 
d="M212 -202q-224 0 -224 108q0 37 32 62.5t95 35.5v2q-93 23 -93 102q0 39 23.5 70.5t56.5 50.5v2q-83 41 -83 129q0 82 62 129t156 47q74 0 131 -30q48 53 92 53q28 0 43 -14.5t15 -40.5q0 -23 -11.5 -35t-29.5 -12q-31 0 -47 30q-10 17 -19.5 18.5t-26.5 -11.5v-2
q72 -47 72 -118q0 -82 -62 -128t-157 -46q-65 0 -116 20q-20 -20 -20 -45q0 -29 48 -29h194q168 0 168 -135q0 -95 -82 -154t-217 -59zM234 -175q82 0 126 26.5t44 76.5q0 38 -22.5 54.5t-72.5 16.5h-171q-27 -21 -27 -78q0 -96 123 -96zM237 226q35 0 48 28t13 110
q0 86 -13.5 116t-47.5 30t-47 -28.5t-13 -111.5q0 -84 13.5 -114t46.5 -30zM332 767l2 -10q-94 -27 -104 -93q14 14 39 14t40.5 -15t15.5 -40q0 -24 -20.5 -42t-53.5 -18q-35 0 -59 22.5t-24 56.5q0 53 43.5 86t120.5 39z" />
    <glyph glyph-name="gdotaccent.short" horiz-adv-x="522" 
d="M212 -202q-224 0 -224 108q0 37 32 62.5t95 35.5v2q-93 23 -93 102q0 39 23.5 70.5t56.5 50.5v2q-83 41 -83 129q0 82 62 129t156 47q74 0 131 -30q48 53 92 53q28 0 43 -14.5t15 -40.5q0 -23 -11.5 -35t-29.5 -12q-31 0 -47 30q-10 17 -19.5 18.5t-26.5 -11.5v-2
q72 -47 72 -118q0 -82 -62 -128t-157 -46q-65 0 -116 20q-20 -20 -20 -45q0 -29 48 -29h194q168 0 168 -135q0 -95 -82 -154t-217 -59zM234 -175q82 0 126 26.5t44 76.5q0 38 -22.5 54.5t-72.5 16.5h-171q-27 -21 -27 -78q0 -96 123 -96zM237 226q35 0 48 28t13 110
q0 86 -13.5 116t-47.5 30t-47 -28.5t-13 -111.5q0 -84 13.5 -114t46.5 -30zM152 650q0 36 25.5 59t62.5 23q38 0 63 -23t25 -59q0 -37 -25 -59.5t-63 -22.5t-63 22.5t-25 59.5z" />
    <glyph glyph-name="registered.alt" horiz-adv-x="769" 
d="M190 151v16l19 4q14 3 18.5 10t4.5 33v270q0 26 -4.5 32.5t-18.5 11.5l-19 3v17h198q166 0 166 -106q0 -76 -74 -95v-3q36 -85 88 -160q7 -9 23 -14l9 -3v-16h-140q-45 65 -84 170q-19 0 -28 1v-108q0 -26 4 -32.5t19 -10.5l18 -4v-16h-199zM373 345q34 0 49 19t15 69
t-11.5 69.5t-43.5 19.5q-16 0 -34 -3v-172q8 -2 25 -2zM28 344q0 149 103.5 253.5t253.5 104.5t253 -104.5t103 -253.5q0 -150 -103 -254t-253 -104t-253.5 104t-103.5 254zM63 344q0 -136 92.5 -232.5t229.5 -96.5q136 0 229 96.5t93 232.5t-93 232.5t-229 96.5t-229 -96.5
t-93 -232.5z" />
    <glyph glyph-name="questiondown.uc" horiz-adv-x="455" 
d="M314 478v-189q-68 -21 -105 -57t-37 -105q0 -53 22 -79.5t60 -26.5q16 0 21.5 9t8.5 36q6 51 25.5 71.5t62.5 20.5q33 0 51 -18t18 -46q0 -48 -53 -75t-142 -27q-104 0 -163 48.5t-59 138.5q0 89 65 150t191 88v61h34zM376 617q0 -38 -25 -62.5t-62 -24.5q-35 0 -61 25
t-26 62q0 36 26 61t61 25q36 0 61.5 -25t25.5 -61z" />
    <glyph glyph-name="exclamdown.uc" horiz-adv-x="274" 
d="M42 139l85 339h20l85 -339q21 -72 -6.5 -109.5t-87.5 -37.5q-61 0 -89 37.5t-7 109.5zM50 616q0 36 26 61t61 25q36 0 61.5 -25t25.5 -61q0 -38 -25 -62t-62 -24q-35 0 -61 24.5t-26 61.5z" />
    <glyph glyph-name="hyphen.uc" horiz-adv-x="285" 
d="M17 294l10 103h242l-12 -103h-240z" />
    <glyph glyph-name="endash.uc" horiz-adv-x="418" 
d="M31 329v34h356v-34h-356z" />
    <glyph glyph-name="emdash.uc" horiz-adv-x="674" 
d="M31 329v34h612v-34h-612z" />
    <glyph glyph-name="guilsinglleft.uc" horiz-adv-x="239" 
d="M197 127l-145 164l-33 41l142 167l49 37l-62 -165l44 -205z" />
    <glyph glyph-name="guilsinglright.uc" horiz-adv-x="239" 
d="M45 127h-19l87 206l-87 203h19l175 -201v-7z" />
    <glyph glyph-name="guillemotleft.uc" horiz-adv-x="398" 
d="M325 127l-161 185l78 -185h-19l-176 201v7l176 201h19l-81 -188l164 188h19l-87 -203l87 -206h-19z" />
    <glyph glyph-name="guillemotright.uc" horiz-adv-x="398" 
d="M379 330l-175 -200h-19l87 203l-87 206h19l175 -201v-8zM220 330l-175 -200h-19l87 203l-87 206h19l175 -201v-8z" />
    <glyph glyph-name="parenleft.uc" horiz-adv-x="301" 
d="M281 -97q-246 175 -246 440q0 75 23.5 147t62 128.5t78.5 98.5t82 72l9 -10q-67 -64 -109.5 -176t-42.5 -237q0 -155 40.5 -262.5t112.5 -191.5z" />
    <glyph glyph-name="parenright.uc" horiz-adv-x="301" 
d="M20 789q42 -30 82 -71t78.5 -97t62 -128.5t23.5 -148.5q0 -80 -23 -152.5t-62.5 -127t-78 -92.5t-82.5 -69l-10 9q153 178 153 446q0 132 -42.5 244.5t-109.5 177.5z" />
    <glyph glyph-name="bracketleft.uc" horiz-adv-x="310" 
d="M166 679v-665q0 -48 11.5 -60.5t55.5 -17.5l66 -7v-15h-226v864h226v-15l-66 -7q-44 -5 -55.5 -17t-11.5 -60z" />
    <glyph glyph-name="bracketright.uc" horiz-adv-x="310" 
d="M144 14v665q0 48 -11 60t-55 17l-67 7v15h227v-864h-227v15l67 7q44 5 55 17.5t11 60.5z" />
    <glyph glyph-name="braceleft.uc" horiz-adv-x="333" 
d="M29 337v24q66 4 93 19.5t27 42.5q0 21 -26.5 117t-26.5 125q0 57 52 82t175 34v-15q-79 -12 -101.5 -27t-22.5 -56q0 -40 12 -125t12 -108q0 -40 -30.5 -62.5t-110.5 -37.5v-2q81 -15 111 -38.5t30 -65.5q0 -22 -12 -106t-12 -125q0 -40 23.5 -56.5t100.5 -27.5v-15
q-126 10 -176.5 34.5t-50.5 82.5q0 29 26.5 124.5t26.5 116.5q0 57 -120 65z" />
    <glyph glyph-name="braceright.uc" horiz-adv-x="333" 
d="M304 361v-24q-119 -8 -119 -65q0 -21 26 -116.5t26 -124.5q0 -58 -50.5 -82.5t-175.5 -34.5v15q76 11 99.5 27.5t23.5 56.5q0 41 -12 125t-12 106q0 42 30.5 65.5t111.5 38.5v2q-80 15 -111 37.5t-31 62.5q0 23 12 108t12 125q0 41 -22.5 56t-100.5 27v15q122 -9 174 -34
t52 -82q0 -29 -26 -125t-26 -117q0 -54 119 -62z" />
    <glyph glyph-name="slash.uc" horiz-adv-x="374" 
d="M363 779l-328 -864h-35l328 864h35z" />
    <glyph glyph-name="backslash.uc" horiz-adv-x="374" 
d="M339 -85l-328 864h35l328 -864h-35z" />
    <glyph glyph-name="bar.uc" horiz-adv-x="182" 
d="M75 -85v864h32v-864h-32z" />
    <glyph glyph-name="at.uc" horiz-adv-x="831" 
d="M401 -11q-171 0 -274.5 80t-103.5 235q0 166 128 285.5t302 119.5q166 0 262.5 -78.5t96.5 -202.5q0 -138 -75 -217t-179 -79q-114 0 -118 89h-3q-21 -38 -55.5 -63t-71.5 -25q-53 0 -84 35.5t-31 104.5q0 120 76 206t182 86q76 0 135 -46h2l52 38l9 -2q-11 -25 -27 -107
l-34 -177q-19 -104 35 -104q43 0 77 58.5t34 182.5q0 127 -72.5 201.5t-215.5 74.5q-65 0 -125.5 -23.5t-109 -67t-78 -114.5t-29.5 -158q0 -142 79 -222t233 -80q129 0 225 50v-20q-36 -23 -103 -41.5t-139 -18.5zM382 210q22 0 52 35l53 268q-7 30 -36 30q-39 0 -70.5 -87
t-31.5 -180q0 -66 33 -66z" />
    </font>
</defs>
</svg>
